{
.appVersion = "939";
DisplayStrings = (
"/jdotless j",
"lynx tuft frogs, dolphins abduct by proxy the ever awkward klutz, dud, dummkopf, jinx snubnose filmgoer, orphan sgt. renfruw grudgek reyfus, md. sikh psych if halt tympany jewelry sri heh! twyer vs jojo pneu fylfot alcaaba son of nonplussed halfbreed bubbly playboy guggenheim daddy coccyx sgraffito effect, vacuum dirndle impossible attempt to disvalue, muzzle the afghan czech czar and exninja, bob bixby dvorak wood dhurrie savvy, dizzy eye aeon circumcision uvula scrungy picnic luxurious special type carbohydrate ovoid adzuki kumquat bomb? afterglows gold girl pygmy gnome lb. ankhs acme aggroupment akmed brouhha tv wt. ujjain ms. oz abacus mnemonics bhikku khaki bwana aorta embolism vivid owls often kvetch otherwise, wysiwyg densfort wright you/quoteright ve absorbed rhythm, put obstacle kyaks krieg kern wurst subject enmity equity coquet quorum pique tzetse hepzibah sulfhydryl briefcase ajax ehler kafka fjord elfship halfdressed jugful eggcup hummingbirds swingdevil bagpipe legwork reproachful hunchback archknave baghdad wejh rijswijk rajbansi rajput ajdir okay weekday obfuscate subpoena liebknecht marcgravia ecbolic arcticward dickcissel pincpinc boldface maidkin adjective adcraft adman dwarfness applejack darkbrown kiln palzy always farmland flimflam unbossy nonlineal stepbrother lapdog stopgap sx countdown basketball beaujolais vb. flowchart aztec lazy bozo syrup tarzan annoying dyke yucky hawg gagzhukz cuzco squire when hiho mayhem nietzsche szasz gumdrop milk emplotment ambidextrously lacquer byway ecclesiastes stubchen hobgoblins crabmill aqua hawaii blvd. subquality byzantine empire debt obvious cervantes jekabzeel anecdote flicflac mechanicville bedbug couldn/quoteright t i/quoteright ve it/quoteright s they/quoteright ll they/quoteright d dpt. headquarter burkhardt xerxes atkins govt. ebenezer lg. lhama amtrak amway fixity axmen quumbabda upjohn hrumpf",
/eng,
"\U00FE"
);

glyphs = (
{
glyphname = A;
lastChange = "2018-04-19 23:59:19 +0000";
layers = (
{
anchors = (
{
name = bottom;
position = "{287, 0}";
},
{
name = ogonek;
position = "{542, 10}";
},
{
name = top;
position = "{385, 700}";
}
);
layerId = "D890DE10-725C-4894-AB83-5F7B73FFD58A";
paths = (
{
closed = 1;
nodes = (
"80 0 LINE",
"161 179 LINE",
"461 179 LINE",
"493 0 LINE",
"566 0 LINE",
"427 700 LINE",
"330 700 LINE",
"5 0 LINE"
);
},
{
closed = 1;
nodes = (
"374 640 LINE",
"451 241 LINE",
"187 241 LINE"
);
}
);
width = 641;
}
);
leftKerningGroup = "upper-A";
note = A;
unicode = 0041;
},
{
glyphname = AE;
lastChange = "2018-04-20 00:00:20 +0000";
layers = (
{
layerId = "D890DE10-725C-4894-AB83-5F7B73FFD58A";
paths = (
{
closed = 1;
nodes = (
"797 57 LINE",
"539 57 LINE",
"496 311 LINE",
"775 311 LINE",
"783 368 LINE",
"486 368 LINE",
"440 642 LINE",
"879 644 LINE",
"887 700 LINE",
"337 700 LINE",
"5 0 LINE",
"79 0 LINE",
"159 181 LINE",
"455 181 LINE",
"487 -5 LINE",
"485 -13 LINE",
"475 0 LINE",
"789 0 LINE"
);
},
{
closed = 1;
nodes = (
"185 241 LINE",
"379 645 LINE",
"446 241 LINE"
);
}
);
width = 869;
}
);
leftKerningGroup = "upper-A";
note = AE;
unicode = 00C6;
},
{
glyphname = B;
lastChange = "2018-04-19 23:52:37 +0000";
layers = (
{
layerId = "D890DE10-725C-4894-AB83-5F7B73FFD58A";
paths = (
{
closed = 1;
nodes = (
"366 0 OFFCURVE",
"413 25 OFFCURVE",
"452 61 CURVE SMOOTH",
"489 100 OFFCURVE",
"516 149 OFFCURVE",
"522 196 CURVE SMOOTH",
"532 266 OFFCURVE",
"506 326 OFFCURVE",
"447 367 CURVE",
"467 383 LINE SMOOTH",
"503 420 OFFCURVE",
"525 470 OFFCURVE",
"531 512 CURVE SMOOTH",
"538 563 OFFCURVE",
"526 611 OFFCURVE",
"499 642 CURVE SMOOTH",
"474 677 OFFCURVE",
"434 700 OFFCURVE",
"382 700 CURVE SMOOTH",
"113 700 LINE",
"15 0 LINE",
"318 0 LINE SMOOTH"
);
},
{
closed = 1;
nodes = (
"410 631 OFFCURVE",
"433 618 OFFCURVE",
"448 597 CURVE SMOOTH",
"460 574 OFFCURVE",
"464 545 OFFCURVE",
"461 520 CURVE SMOOTH",
"456 487 OFFCURVE",
"440 455 OFFCURVE",
"416 430 CURVE SMOOTH",
"393 403 OFFCURVE",
"364 382 OFFCURVE",
"333 382 CURVE SMOOTH",
"139 382 LINE",
"174 631 LINE",
"375 631 LINE SMOOTH"
);
},
{
closed = 1;
nodes = (
"401 318 OFFCURVE",
"424 304 OFFCURVE",
"439 282 CURVE SMOOTH",
"452 257 OFFCURVE",
"456 227 OFFCURVE",
"452 204 CURVE SMOOTH",
"448 170 OFFCURVE",
"430 138 OFFCURVE",
"407 114 CURVE SMOOTH",
"385 88 OFFCURVE",
"354 69 OFFCURVE",
"325 69 CURVE SMOOTH",
"95 69 LINE",
"130 318 LINE",
"366 318 LINE SMOOTH"
);
}
);
width = 570;
}
);
note = B;
unicode = 0042;
},
{
glyphname = C;
lastChange = "2018-04-19 23:52:43 +0000";
layers = (
{
anchors = (
{
name = bottom;
position = "{331, 0}";
},
{
name = top;
position = "{429, 700}";
}
);
layerId = "D890DE10-725C-4894-AB83-5F7B73FFD58A";
paths = (
{
closed = 1;
nodes = (
"452 -5 OFFCURVE",
"547 35 OFFCURVE",
"624 110 CURVE",
"573 157 LINE",
"514 100 OFFCURVE",
"436 63 OFFCURVE",
"357 63 CURVE SMOOTH",
"283 63 OFFCURVE",
"220 95 OFFCURVE",
"176 145 CURVE SMOOTH",
"135 199 OFFCURVE",
"115 269 OFFCURVE",
"125 346 CURVE SMOOTH",
"136 425 OFFCURVE",
"179 499 OFFCURVE",
"237 549 CURVE SMOOTH",
"293 603 OFFCURVE",
"367 637 OFFCURVE",
"444 637 CURVE SMOOTH",
"520 637 OFFCURVE",
"586 602 OFFCURVE",
"630 545 CURVE",
"690 588 LINE",
"633 663 OFFCURVE",
"548 705 OFFCURVE",
"448 705 CURVE SMOOTH",
"353 705 OFFCURVE",
"262 666 OFFCURVE",
"189 604 CURVE SMOOTH",
"118 538 OFFCURVE",
"69 449 OFFCURVE",
"55 354 CURVE SMOOTH",
"41 253 OFFCURVE",
"68 164 OFFCURVE",
"123 102 CURVE SMOOTH",
"176 36 OFFCURVE",
"257 -5 OFFCURVE",
"354 -5 CURVE SMOOTH"
);
}
);
width = 684;
}
);
leftKerningGroup = "upper-rounds";
note = C;
unicode = 0043;
},
{
glyphname = D;
lastChange = "2018-04-20 00:00:42 +0000";
layers = (
{
anchors = (
{
name = bottom;
position = "{264, 0}";
},
{
name = center;
position = "{194, 350}";
},
{
name = top;
position = "{362, 700}";
}
);
layerId = "D890DE10-725C-4894-AB83-5F7B73FFD58A";
paths = (
{
closed = 1;
nodes = (
"311 0 OFFCURVE",
"401 38 OFFCURVE",
"474 100 CURVE SMOOTH",
"545 166 OFFCURVE",
"594 253 OFFCURVE",
"608 348 CURVE SMOOTH",
"621 446 OFFCURVE",
"595 535 OFFCURVE",
"539 597 CURVE SMOOTH",
"487 663 OFFCURVE",
"407 703 OFFCURVE",
"312 703 CURVE SMOOTH",
"114 703 LINE",
"15 0 LINE",
"216 0 LINE SMOOTH"
);
},
{
closed = 1;
nodes = (
"382 637 OFFCURVE",
"445 607 OFFCURVE",
"488 558 CURVE SMOOTH",
"529 504 OFFCURVE",
"549 434 OFFCURVE",
"538 356 CURVE SMOOTH",
"526 274 OFFCURVE",
"484 202 OFFCURVE",
"427 153 CURVE SMOOTH",
"372 99 OFFCURVE",
"299 67 OFFCURVE",
"223 67 CURVE SMOOTH",
"92 67 LINE",
"172 637 LINE",
"306 637 LINE SMOOTH"
);
}
);
width = 634;
}
);
note = D;
unicode = 0044;
},
{
glyphname = E;
lastChange = "2018-04-20 00:00:56 +0000";
layers = (
{
anchors = (
{
name = bottom;
position = "{196, 0}";
},
{
name = ogonek;
position = "{383, 10}";
},
{
name = top;
position = "{294, 700}";
},
{
name = topleft;
position = "{80, 700}";
}
);
layerId = "D890DE10-725C-4894-AB83-5F7B73FFD58A";
paths = (
{
closed = 1;
nodes = (
"398 65 LINE",
"93 65 LINE",
"127 311 LINE",
"373 311 LINE",
"381 368 LINE",
"135 368 LINE",
"173 635 LINE",
"478 635 LINE",
"487 700 LINE",
"113 700 LINE",
"15 0 LINE",
"389 0 LINE"
);
}
);
width = 464;
}
);
note = E;
unicode = 0045;
},
{
glyphname = F;
lastChange = "2018-04-19 23:53:31 +0000";
layers = (
{
layerId = "D890DE10-725C-4894-AB83-5F7B73FFD58A";
paths = (
{
closed = 1;
nodes = (
"490 700 LINE",
"113 700 LINE",
"15 0 LINE",
"87 0 LINE",
"131 312 LINE",
"377 312 LINE",
"385 369 LINE",
"139 369 LINE",
"176 635 LINE",
"481 635 LINE"
);
}
);
width = 467;
}
);
note = F;
unicode = 0046;
},
{
glyphname = G;
lastChange = "2018-04-19 23:53:37 +0000";
layers = (
{
anchors = (
{
name = bottom;
position = "{351, 0}";
},
{
name = top;
position = "{449, 700}";
}
);
layerId = "D890DE10-725C-4894-AB83-5F7B73FFD58A";
paths = (
{
closed = 1;
nodes = (
"495 -5 OFFCURVE",
"595 44 OFFCURVE",
"665 152 CURVE",
"689 327 LINE",
"491 327 LINE",
"482 266 LINE",
"608 266 LINE",
"594 173 LINE",
"532 94 OFFCURVE",
"462 65 OFFCURVE",
"357 65 CURVE SMOOTH",
"282 65 OFFCURVE",
"219 96 OFFCURVE",
"176 146 CURVE SMOOTH",
"136 200 OFFCURVE",
"116 269 OFFCURVE",
"126 346 CURVE SMOOTH",
"137 425 OFFCURVE",
"180 498 OFFCURVE",
"237 547 CURVE SMOOTH",
"292 600 OFFCURVE",
"365 633 OFFCURVE",
"443 633 CURVE SMOOTH",
"529 633 OFFCURVE",
"603 594 OFFCURVE",
"645 522 CURVE",
"709 557 LINE",
"656 649 OFFCURVE",
"560 705 OFFCURVE",
"447 705 CURVE SMOOTH",
"353 705 OFFCURVE",
"263 666 OFFCURVE",
"190 604 CURVE SMOOTH",
"119 538 OFFCURVE",
"69 449 OFFCURVE",
"55 354 CURVE SMOOTH",
"41 253 OFFCURVE",
"69 164 OFFCURVE",
"124 102 CURVE SMOOTH",
"177 36 OFFCURVE",
"257 -5 OFFCURVE",
"353 -5 CURVE SMOOTH"
);
}
);
width = 719;
}
);
leftKerningGroup = "upper-rounds";
note = G;
unicode = 0047;
},
{
glyphname = H;
lastChange = "2018-04-20 00:01:35 +0000";
layers = (
{
anchors = (
{
name = bottom;
position = "{265, 0}";
},
{
name = center;
position = "{347, 587}";
},
{
name = top;
position = "{363, 700}";
},
{
name = topleft;
position = "{80, 700}";
}
);
layerId = "D890DE10-725C-4894-AB83-5F7B73FFD58A";
paths = (
{
closed = 1;
nodes = (
"612 700 LINE",
"546 700 LINE",
"499 368 LINE",
"135 368 LINE",
"182 700 LINE",
"115 700 LINE",
"15 0 LINE",
"84 0 LINE",
"127 311 LINE",
"491 311 LINE",
"448 0 LINE",
"516 0 LINE"
);
}
);
width = 601;
}
);
note = H;
unicode = 0048;
},
{
glyphname = I;
lastChange = "2018-04-19 23:54:11 +0000";
layers = (
{
anchors = (
{
name = bottom;
position = "{50, 0}";
},
{
name = ogonek;
position = "{119, 10}";
},
{
name = top;
position = "{148, 700}";
},
{
name = topleft;
position = "{83, 700}";
}
);
layerId = "D890DE10-725C-4894-AB83-5F7B73FFD58A";
paths = (
{
closed = 1;
nodes = (
"183 700 LINE",
"113 700 LINE",
"15 0 LINE",
"85 0 LINE"
);
}
);
width = 170;
}
);
note = I;
unicode = 0049;
},
{
glyphname = J;
lastChange = "2018-04-19 23:55:33 +0000";
layers = (
{
layerId = "D890DE10-725C-4894-AB83-5F7B73FFD58A";
paths = (
{
closed = 1;
nodes = (
"191 -9 OFFCURVE",
"244 7 OFFCURVE",
"282 49 CURVE SMOOTH",
"320 93 OFFCURVE",
"342 161 OFFCURVE",
"357 264 CURVE SMOOTH",
"418 700 LINE",
"344 700 LINE",
"283 268 LINE SMOOTH",
"270 172 OFFCURVE",
"252 121 OFFCURVE",
"224 94 CURVE SMOOTH",
"197 64 OFFCURVE",
"163 61 OFFCURVE",
"126 60 CURVE SMOOTH",
"103 60 OFFCURVE",
"68 66 OFFCURVE",
"35 75 CURVE",
"7 12 LINE",
"49 0 OFFCURVE",
"87 -10 OFFCURVE",
"120 -10 CURVE SMOOTH"
);
}
);
width = 405;
}
);
note = J;
unicode = 004A;
},
{
glyphname = K;
lastChange = "2018-04-19 23:55:39 +0000";
layers = (
{
anchors = (
{
name = bottom;
position = "{261, 0}";
},
{
name = top;
position = "{359, 700}";
}
);
layerId = "D890DE10-725C-4894-AB83-5F7B73FFD58A";
paths = (
{
closed = 1;
nodes = (
"311 448 LINE",
"567 702 LINE",
"472 702 LINE",
"137 369 LINE",
"184 701 LINE",
"113 701 LINE",
"15 0 LINE",
"86 0 LINE",
"123 260 LINE",
"255 391 LINE",
"425 0 LINE",
"506 0 LINE"
);
}
);
width = 581;
}
);
note = K;
unicode = 004B;
},
{
glyphname = L;
lastChange = "2018-04-19 23:55:46 +0000";
layers = (
{
anchors = (
{
name = bottom;
position = "{173, 0}";
},
{
name = center;
position = "{112, 366}";
},
{
name = top;
position = "{271, 700}";
},
{
name = topright;
position = "{458, 700}";
}
);
layerId = "D890DE10-725C-4894-AB83-5F7B73FFD58A";
paths = (
{
closed = 1;
nodes = (
"349 65 LINE",
"94 65 LINE",
"183 700 LINE",
"113 700 LINE",
"15 0 LINE",
"340 0 LINE"
);
}
);
width = 415;
}
);
note = L;
unicode = 004C;
},
{
glyphname = M;
lastChange = "2018-04-19 23:56:00 +0000";
layers = (
{
layerId = "D890DE10-725C-4894-AB83-5F7B73FFD58A";
paths = (
{
closed = 1;
nodes = (
"846 700 LINE",
"683 700 LINE",
"407 194 LINE",
"275 700 LINE",
"113 700 LINE",
"15 0 LINE",
"85 0 LINE",
"173 629 LINE",
"218 629 LINE",
"354 112 LINE",
"441 112 LINE",
"722 629 LINE",
"765 629 LINE",
"677 0 LINE",
"748 0 LINE"
);
}
);
width = 833;
}
);
note = M;
unicode = 004D;
},
{
glyphname = N;
lastChange = "2018-04-19 23:56:07 +0000";
layers = (
{
anchors = (
{
name = bottom;
position = "{280, 0}";
},
{
name = top;
position = "{378, 700}";
}
);
layerId = "D890DE10-725C-4894-AB83-5F7B73FFD58A";
paths = (
{
closed = 1;
nodes = (
"641 702 LINE",
"571 702 LINE",
"482 68 LINE",
"233 702 LINE",
"114 702 LINE",
"16 1 LINE",
"87 1 LINE",
"177 640 LINE",
"425 0 LINE",
"543 0 LINE"
);
}
);
width = 628;
}
);
note = N;
unicode = 004E;
},
{
glyphname = Eng;
lastChange = "2018-04-19 23:56:13 +0000";
layers = (
{
components = (
{
name = N;
}
);
layerId = "D890DE10-725C-4894-AB83-5F7B73FFD58A";
paths = (
{
closed = 1;
nodes = (
"508 2 LINE",
"500 -56 OFFCURVE",
"478 -69 OFFCURVE",
"378 -69 CURVE",
"372 -140 LINE",
"529 -140 OFFCURVE",
"562 -106 OFFCURVE",
"576 -2 CURVE",
"593 118 LINE",
"524 118 LINE"
);
}
);
width = 662;
}
);
unicode = 014A;
},
{
glyphname = O;
lastChange = "2018-04-20 00:02:11 +0000";
layers = (
{
anchors = (
{
name = bottom;
position = "{349, 0}";
},
{
name = center;
position = "{398, 350}";
},
{
name = ogonek;
position = "{655, 10}";
},
{
name = top;
position = "{447, 700}";
},
{
name = topleft;
position = "{84, 700}";
},
{
name = topright;
position = "{809, 700}";
}
);
layerId = "D890DE10-725C-4894-AB83-5F7B73FFD58A";
paths = (
{
closed = 1;
nodes = (
"544 -10 OFFCURVE",
"712 145 OFFCURVE",
"738 339 CURVE SMOOTH",
"765 533 OFFCURVE",
"636 703 OFFCURVE",
"444 703 CURVE SMOOTH",
"257 703 OFFCURVE",
"83 544 OFFCURVE",
"54 347 CURVE SMOOTH",
"29 154 OFFCURVE",
"158 -10 OFFCURVE",
"351 -10 CURVE SMOOTH"
);
},
{
closed = 1;
nodes = (
"592 639 OFFCURVE",
"691 509 OFFCURVE",
"668 347 CURVE SMOOTH",
"647 192 OFFCURVE",
"507 54 OFFCURVE",
"353 54 CURVE SMOOTH",
"198 54 OFFCURVE",
"102 186 OFFCURVE",
"124 339 CURVE SMOOTH",
"148 499 OFFCURVE",
"289 639 OFFCURVE",
"442 639 CURVE SMOOTH"
);
}
);
width = 765;
}
);
leftKerningGroup = "upper-rounds";
note = O;
unicode = 004F;
},
{
glyphname = OE;
lastChange = "2018-04-19 23:56:26 +0000";
layers = (
{
layerId = "D890DE10-725C-4894-AB83-5F7B73FFD58A";
paths = (
{
closed = 1;
nodes = (
"984 66 LINE",
"691 66 LINE",
"725 311 LINE",
"962 311 LINE",
"970 368 LINE",
"733 368 LINE",
"771 635 LINE",
"1064 635 LINE",
"1073 700 LINE",
"712 700 LINE",
"692 562 LINE",
"621 658 OFFCURVE",
"539 703 OFFCURVE",
"440 703 CURVE SMOOTH",
"349 703 OFFCURVE",
"259 662 OFFCURVE",
"188 599 CURVE SMOOTH",
"118 532 OFFCURVE",
"68 442 OFFCURVE",
"54 347 CURVE SMOOTH",
"41 248 OFFCURVE",
"68 158 OFFCURVE",
"121 96 CURVE SMOOTH",
"172 30 OFFCURVE",
"252 -10 OFFCURVE",
"347 -10 CURVE SMOOTH",
"442 -10 OFFCURVE",
"535 32 OFFCURVE",
"632 125 CURVE",
"614 0 LINE",
"975 0 LINE"
);
},
{
closed = 1;
nodes = (
"511 639 OFFCURVE",
"573 606 OFFCURVE",
"616 554 CURVE SMOOTH",
"655 498 OFFCURVE",
"673 424 OFFCURVE",
"662 347 CURVE SMOOTH",
"651 265 OFFCURVE",
"610 192 OFFCURVE",
"554 142 CURVE SMOOTH",
"498 87 OFFCURVE",
"426 54 OFFCURVE",
"349 54 CURVE SMOOTH",
"276 54 OFFCURVE",
"214 85 OFFCURVE",
"172 136 CURVE SMOOTH",
"131 190 OFFCURVE",
"112 261 OFFCURVE",
"123 339 CURVE SMOOTH",
"135 420 OFFCURVE",
"176 496 OFFCURVE",
"234 548 CURVE SMOOTH",
"289 604 OFFCURVE",
"361 639 OFFCURVE",
"438 639 CURVE SMOOTH"
);
}
);
width = 1055;
}
);
leftKerningGroup = "upper-rounds";
note = OE;
unicode = 0152;
},
{
glyphname = P;
lastChange = "2018-04-19 23:56:32 +0000";
layers = (
{
layerId = "D890DE10-725C-4894-AB83-5F7B73FFD58A";
paths = (
{
closed = 1;
nodes = (
"373 300 OFFCURVE",
"420 325 OFFCURVE",
"459 361 CURVE SMOOTH",
"496 400 OFFCURVE",
"523 450 OFFCURVE",
"529 496 CURVE SMOOTH",
"537 549 OFFCURVE",
"525 600 OFFCURVE",
"498 635 CURVE SMOOTH",
"472 673 OFFCURVE",
"433 700 OFFCURVE",
"382 700 CURVE SMOOTH",
"114 700 LINE",
"15 0 LINE",
"85 0 LINE",
"127 300 LINE",
"325 300 LINE SMOOTH"
);
},
{
closed = 1;
nodes = (
"410 629 OFFCURVE",
"433 614 OFFCURVE",
"449 591 CURVE SMOOTH",
"462 565 OFFCURVE",
"466 533 OFFCURVE",
"462 504 CURVE SMOOTH",
"457 475 OFFCURVE",
"441 443 OFFCURVE",
"418 418 CURVE SMOOTH",
"395 391 OFFCURVE",
"364 370 OFFCURVE",
"332 370 CURVE SMOOTH",
"137 370 LINE",
"173 629 LINE",
"375 629 LINE SMOOTH"
);
}
);
width = 534;
}
);
note = P;
unicode = 0050;
},
{
glyphname = Thorn;
lastChange = "2018-04-19 23:56:40 +0000";
layers = (
{
layerId = "D890DE10-725C-4894-AB83-5F7B73FFD58A";
paths = (
{
closed = 1;
nodes = (
"354 150 OFFCURVE",
"401 175 OFFCURVE",
"440 211 CURVE SMOOTH",
"477 250 OFFCURVE",
"504 300 OFFCURVE",
"511 347 CURVE SMOOTH",
"518 400 OFFCURVE",
"506 451 OFFCURVE",
"479 486 CURVE SMOOTH",
"453 524 OFFCURVE",
"414 551 OFFCURVE",
"363 551 CURVE SMOOTH",
"164 551 LINE",
"185 700 LINE",
"114 700 LINE",
"15 0 LINE",
"87 0 LINE",
"108 150 LINE",
"306 150 LINE SMOOTH"
);
},
{
closed = 1;
nodes = (
"391 480 OFFCURVE",
"414 465 OFFCURVE",
"430 442 CURVE SMOOTH",
"443 416 OFFCURVE",
"447 384 OFFCURVE",
"443 355 CURVE SMOOTH",
"439 326 OFFCURVE",
"422 294 OFFCURVE",
"399 269 CURVE SMOOTH",
"376 242 OFFCURVE",
"345 221 OFFCURVE",
"313 221 CURVE SMOOTH",
"118 221 LINE",
"154 480 LINE",
"356 480 LINE SMOOTH"
);
}
);
width = 537;
}
);
note = Thorn;
unicode = 00DE;
},
{
glyphname = Q;
lastChange = "2018-04-19 23:56:47 +0000";
layers = (
{
layerId = "D890DE10-725C-4894-AB83-5F7B73FFD58A";
paths = (
{
closed = 1;
nodes = (
"675 160 OFFCURVE",
"724 247 OFFCURVE",
"738 344 CURVE SMOOTH",
"752 443 OFFCURVE",
"726 534 OFFCURVE",
"671 596 CURVE SMOOTH",
"620 662 OFFCURVE",
"540 703 OFFCURVE",
"443 703 CURVE SMOOTH",
"350 703 OFFCURVE",
"260 664 OFFCURVE",
"188 602 CURVE SMOOTH",
"118 535 OFFCURVE",
"68 447 OFFCURVE",
"54 352 CURVE SMOOTH",
"40 253 OFFCURVE",
"68 163 OFFCURVE",
"122 101 CURVE SMOOTH",
"174 35 OFFCURVE",
"254 -5 OFFCURVE",
"350 -5 CURVE SMOOTH",
"408 -5 OFFCURVE",
"467 10 OFFCURVE",
"529 45 CURVE",
"545 22 OFFCURVE",
"557 10 OFFCURVE",
"572 3 CURVE SMOOTH",
"593 -10 OFFCURVE",
"628 -19 OFFCURVE",
"663 -18 CURVE SMOOTH",
"683 -17 LINE",
"691 51 LINE",
"646 52 OFFCURVE",
"617 55 OFFCURVE",
"592 85 CURVE"
);
},
{
closed = 1;
nodes = (
"514 639 OFFCURVE",
"577 607 OFFCURVE",
"620 556 CURVE SMOOTH",
"659 501 OFFCURVE",
"679 430 OFFCURVE",
"668 352 CURVE SMOOTH",
"658 282 OFFCURVE",
"629 221 OFFCURVE",
"567 152 CURVE",
"554 187 OFFCURVE",
"547 205 OFFCURVE",
"535 218 CURVE",
"502 264 OFFCURVE",
"448 285 OFFCURVE",
"402 294 CURVE",
"395 219 LINE",
"425 211 OFFCURVE",
"457 198 OFFCURVE",
"476 177 CURVE SMOOTH",
"484 164 OFFCURVE",
"494 137 OFFCURVE",
"503 105 CURVE",
"451 75 OFFCURVE",
"402 60 OFFCURVE",
"353 60 CURVE SMOOTH",
"279 60 OFFCURVE",
"215 91 OFFCURVE",
"173 141 CURVE SMOOTH",
"133 195 OFFCURVE",
"113 266 OFFCURVE",
"124 344 CURVE SMOOTH",
"136 426 OFFCURVE",
"178 499 OFFCURVE",
"235 550 CURVE SMOOTH",
"290 605 OFFCURVE",
"363 639 OFFCURVE",
"441 639 CURVE SMOOTH"
);
}
);
width = 765;
}
);
leftKerningGroup = "upper-rounds";
note = Q;
unicode = 0051;
},
{
glyphname = R;
lastChange = "2018-04-19 23:56:54 +0000";
layers = (
{
anchors = (
{
name = bottom;
position = "{246, 0}";
},
{
name = top;
position = "{344, 700}";
}
);
layerId = "D890DE10-725C-4894-AB83-5F7B73FFD58A";
paths = (
{
closed = 1;
nodes = (
"336 299 LINE",
"387 310 OFFCURVE",
"433 337 OFFCURVE",
"468 373 CURVE SMOOTH",
"501 410 OFFCURVE",
"524 454 OFFCURVE",
"529 496 CURVE SMOOTH",
"537 549 OFFCURVE",
"525 600 OFFCURVE",
"498 635 CURVE SMOOTH",
"472 673 OFFCURVE",
"433 700 OFFCURVE",
"382 700 CURVE SMOOTH",
"114 700 LINE",
"15 0 LINE",
"86 0 LINE",
"128 300 LINE",
"252 300 LINE",
"394 0 LINE",
"476 0 LINE"
);
},
{
closed = 1;
nodes = (
"407 629 OFFCURVE",
"430 614 OFFCURVE",
"446 591 CURVE SMOOTH",
"459 565 OFFCURVE",
"464 533 OFFCURVE",
"460 504 CURVE SMOOTH",
"455 475 OFFCURVE",
"438 443 OFFCURVE",
"415 418 CURVE SMOOTH",
"393 391 OFFCURVE",
"361 370 OFFCURVE",
"332 370 CURVE SMOOTH",
"138 370 LINE",
"174 629 LINE",
"375 629 LINE SMOOTH"
);
}
);
width = 551;
}
);
note = R;
unicode = 0052;
},
{
glyphname = S;
lastChange = "2018-04-19 23:57:01 +0000";
layers = (
{
anchors = (
{
name = bottom;
position = "{241, 0}";
},
{
name = top;
position = "{339, 700}";
}
);
layerId = "D890DE10-725C-4894-AB83-5F7B73FFD58A";
paths = (
{
closed = 1;
nodes = (
"466 94 OFFCURVE",
"495 144 OFFCURVE",
"502 194 CURVE SMOOTH",
"515 283 OFFCURVE",
"460 354 OFFCURVE",
"359 382 CURVE",
"352 385 OFFCURVE",
"340 389 OFFCURVE",
"326 391 CURVE SMOOTH",
"315 394 OFFCURVE",
"300 397 OFFCURVE",
"285 401 CURVE SMOOTH",
"209 421 OFFCURVE",
"144 452 OFFCURVE",
"155 526 CURVE SMOOTH",
"160 565 OFFCURVE",
"182 594 OFFCURVE",
"220 611 CURVE SMOOTH",
"248 626 OFFCURVE",
"281 633 OFFCURVE",
"324 633 CURVE SMOOTH",
"366 633 OFFCURVE",
"432 622 OFFCURVE",
"473 602 CURVE",
"530 651 LINE",
"477 684 OFFCURVE",
"399 704 OFFCURVE",
"328 704 CURVE SMOOTH",
"194 704 OFFCURVE",
"104 644 OFFCURVE",
"81 539 CURVE SMOOTH",
"64 453 OFFCURVE",
"120 373 OFFCURVE",
"215 346 CURVE SMOOTH",
"242 337 OFFCURVE",
"269 329 OFFCURVE",
"297 325 CURVE",
"308 322 OFFCURVE",
"320 319 OFFCURVE",
"334 315 CURVE SMOOTH",
"360 306 OFFCURVE",
"386 292 OFFCURVE",
"406 276 CURVE SMOOTH",
"427 254 OFFCURVE",
"433 229 OFFCURVE",
"429 202 CURVE SMOOTH",
"424 163 OFFCURVE",
"402 128 OFFCURVE",
"366 104 CURVE SMOOTH",
"333 78 OFFCURVE",
"290 63 OFFCURVE",
"246 63 CURVE SMOOTH",
"215 63 OFFCURVE",
"182 70 OFFCURVE",
"149 83 CURVE SMOOTH",
"120 96 OFFCURVE",
"97 112 OFFCURVE",
"82 126 CURVE",
"22 78 LINE",
"48 54 OFFCURVE",
"82 33 OFFCURVE",
"124 17 CURVE SMOOTH",
"162 2 OFFCURVE",
"204 -8 OFFCURVE",
"245 -8 CURVE SMOOTH",
"308 -8 OFFCURVE",
"368 12 OFFCURVE",
"422 54 CURVE SMOOTH"
);
}
);
width = 550;
}
);
note = S;
unicode = 0053;
},
{
glyphname = T;
lastChange = "2018-04-19 23:57:08 +0000";
layers = (
{
anchors = (
{
name = bottom;
position = "{263, 0}";
},
{
name = center;
position = "{312, 350}";
},
{
name = top;
position = "{361, 700}";
}
);
layerId = "D890DE10-725C-4894-AB83-5F7B73FFD58A";
paths = (
{
closed = 1;
nodes = (
"619 700 LINE",
"103 700 LINE",
"94 635 LINE",
"317 635 LINE",
"228 0 LINE",
"298 0 LINE",
"387 635 LINE",
"610 635 LINE"
);
}
);
width = 596;
}
);
note = T;
unicode = 0054;
},
{
glyphname = U;
lastChange = "2018-04-19 23:57:15 +0000";
layers = (
{
anchors = (
{
name = bottom;
position = "{268, 0}";
},
{
name = ogonek;
position = "{514, 10}";
},
{
name = top;
position = "{366, 700}";
},
{
name = topright;
position = "{653, 700}";
}
);
layerId = "D890DE10-725C-4894-AB83-5F7B73FFD58A";
paths = (
{
closed = 1;
nodes = (
"339 -12 OFFCURVE",
"406 15 OFFCURVE",
"460 58 CURVE SMOOTH",
"512 104 OFFCURVE",
"548 164 OFFCURVE",
"557 232 CURVE SMOOTH",
"623 700 LINE",
"552 700 LINE",
"487 238 LINE SMOOTH",
"480 189 OFFCURVE",
"453 143 OFFCURVE",
"414 113 CURVE SMOOTH",
"378 78 OFFCURVE",
"326 57 OFFCURVE",
"272 57 CURVE SMOOTH",
"220 57 OFFCURVE",
"176 76 OFFCURVE",
"148 107 CURVE SMOOTH",
"120 141 OFFCURVE",
"107 185 OFFCURVE",
"114 234 CURVE",
"178 700 LINE",
"108 700 LINE",
"43 238 LINE SMOOTH",
"33 169 OFFCURVE",
"55 106 OFFCURVE",
"96 64 CURVE SMOOTH",
"134 17 OFFCURVE",
"195 -12 OFFCURVE",
"268 -12 CURVE SMOOTH"
);
}
);
width = 605;
}
);
note = U;
unicode = 0055;
},
{
glyphname = V;
lastChange = "2018-04-19 23:57:30 +0000";
layers = (
{
layerId = "D890DE10-725C-4894-AB83-5F7B73FFD58A";
paths = (
{
closed = 1;
nodes = (
"547 700 LINE",
"273 87 LINE",
"173 700 LINE",
"103 700 LINE",
"223 0 LINE",
"301 0 LINE",
"619 700 LINE"
);
}
);
width = 596;
}
);
leftKerningGroup = "upper-angled";
note = V;
unicode = 0056;
},
{
glyphname = W;
lastChange = "2018-04-19 23:57:38 +0000";
layers = (
{
anchors = (
{
name = bottom;
position = "{503, 0}";
},
{
name = top;
position = "{601, 700}";
}
);
layerId = "D890DE10-725C-4894-AB83-5F7B73FFD58A";
paths = (
{
closed = 1;
nodes = (
"317 0 LINE",
"573 496 LINE",
"691 0 LINE",
"780 0 LINE",
"1100 702 LINE",
"1028 702 LINE",
"744 79 LINE",
"626 579 LINE",
"543 579 LINE",
"283 80 LINE",
"173 702 LINE",
"104 702 LINE",
"228 0 LINE"
);
}
);
width = 1076;
}
);
leftKerningGroup = "upper-angled";
note = W;
unicode = 0057;
},
{
glyphname = X;
lastChange = "2018-04-19 23:57:45 +0000";
layers = (
{
layerId = "D890DE10-725C-4894-AB83-5F7B73FFD58A";
paths = (
{
closed = 1;
nodes = (
"545 701 LINE",
"326 410 LINE",
"191 701 LINE",
"111 701 LINE",
"278 355 LINE",
"5 0 LINE",
"88 0 LINE",
"313 298 LINE",
"452 0 LINE",
"532 0 LINE",
"361 355 LINE",
"627 701 LINE"
);
}
);
width = 607;
}
);
note = X;
unicode = 0058;
},
{
glyphname = Y;
lastChange = "2018-04-19 23:57:52 +0000";
layers = (
{
anchors = (
{
name = bottom;
position = "{282, 0}";
},
{
name = top;
position = "{380, 700}";
},
{
name = topleft;
position = "{67, 700}";
}
);
layerId = "D890DE10-725C-4894-AB83-5F7B73FFD58A";
paths = (
{
closed = 1;
nodes = (
"578 701 LINE",
"324 310 LINE",
"182 701 LINE",
"103 701 LINE",
"280 236 LINE",
"247 0 LINE",
"318 0 LINE",
"351 236 LINE",
"659 701 LINE"
);
}
);
width = 636;
}
);
note = Y;
unicode = 0059;
},
{
glyphname = Z;
lastChange = "2018-04-19 23:58:23 +0000";
layers = (
{
anchors = (
{
name = bottom;
position = "{247, 0}";
},
{
name = top;
position = "{345, 700}";
}
);
layerId = "D890DE10-725C-4894-AB83-5F7B73FFD58A";
paths = (
{
closed = 1;
nodes = (
"494 66 LINE",
"104 66 LINE",
"572 636 LINE",
"580 700 LINE",
"109 700 LINE",
"99 631 LINE",
"479 631 LINE",
"14 66 LINE",
"6 0 LINE",
"487 0 LINE"
);
}
);
width = 562;
}
);
note = Z;
unicode = 005A;
},
{
glyphname = a;
lastChange = "2018-04-19 23:39:23 +0000";
layers = (
{
anchors = (
{
name = bottom;
position = "{219, 0}";
},
{
name = ogonek;
position = "{404, 10}";
},
{
name = top;
position = "{292, 520}";
}
);
layerId = "D890DE10-725C-4894-AB83-5F7B73FFD58A";
paths = (
{
closed = 1;
nodes = (
"461 269 LINE SMOOTH",
"472 354 OFFCURVE",
"473 414 OFFCURVE",
"450 451 CURVE SMOOTH",
"429 490 OFFCURVE",
"384 508 OFFCURVE",
"305 508 CURVE SMOOTH",
"270 508 OFFCURVE",
"226 500 OFFCURVE",
"184 485 CURVE SMOOTH",
"143 469 OFFCURVE",
"105 449 OFFCURVE",
"74 426 CURVE",
"120 372 LINE",
"137 387 OFFCURVE",
"175 412 OFFCURVE",
"222 427 CURVE SMOOTH",
"249 439 OFFCURVE",
"279 446 OFFCURVE",
"310 446 CURVE SMOOTH",
"333 446 OFFCURVE",
"359 442 OFFCURVE",
"379 429 CURVE SMOOTH",
"395 414 OFFCURVE",
"405 394 OFFCURVE",
"401 362 CURVE SMOOTH",
"392 302 LINE",
"349 302 LINE SMOOTH",
"303 302 OFFCURVE",
"258 300 OFFCURVE",
"215 295 CURVE SMOOTH",
"132 285 OFFCURVE",
"37 232 OFFCURVE",
"24 138 CURVE SMOOTH",
"21 117 OFFCURVE",
"20 93 OFFCURVE",
"29 71 CURVE SMOOTH",
"36 45 OFFCURVE",
"50 20 OFFCURVE",
"82 8 CURVE",
"99 -4 OFFCURVE",
"123 -8 OFFCURVE",
"150 -8 CURVE SMOOTH",
"187 -8 OFFCURVE",
"227 -1 OFFCURVE",
"261 10 CURVE SMOOTH",
"288 19 OFFCURVE",
"313 32 OFFCURVE",
"361 63 CURVE",
"351 0 LINE",
"423 0 LINE"
);
},
{
closed = 1;
nodes = (
"308 78 OFFCURVE",
"238 55 OFFCURVE",
"180 55 CURVE SMOOTH",
"157 55 OFFCURVE",
"133 59 OFFCURVE",
"114 71 CURVE",
"98 84 OFFCURVE",
"90 103 OFFCURVE",
"94 130 CURVE SMOOTH",
"100 173 OFFCURVE",
"132 202 OFFCURVE",
"183 221 CURVE SMOOTH",
"231 242 OFFCURVE",
"286 250 OFFCURVE",
"388 253 CURVE",
"367 121 LINE"
);
}
);
width = 498;
}
);
leftKerningGroup = "rounded-low";
note = a;
unicode = 0061;
},
{
glyphname = ae;
lastChange = "2018-04-19 23:36:51 +0000";
layers = (
{
layerId = "D890DE10-725C-4894-AB83-5F7B73FFD58A";
paths = (
{
closed = 1;
nodes = (
"864 260 LINE SMOOTH",
"874 332 OFFCURVE",
"861 393 OFFCURVE",
"825 433 CURVE SMOOTH",
"793 477 OFFCURVE",
"737 502 OFFCURVE",
"660 502 CURVE SMOOTH",
"590 502 OFFCURVE",
"526 478 OFFCURVE",
"468 427 CURVE",
"445 484 OFFCURVE",
"404 508 OFFCURVE",
"315 508 CURVE SMOOTH",
"281 508 OFFCURVE",
"239 500 OFFCURVE",
"198 486 CURVE SMOOTH",
"159 469 OFFCURVE",
"120 449 OFFCURVE",
"91 426 CURVE",
"135 372 LINE",
"152 387 OFFCURVE",
"190 412 OFFCURVE",
"235 427 CURVE",
"260 439 OFFCURVE",
"290 446 OFFCURVE",
"320 446 CURVE SMOOTH",
"343 446 OFFCURVE",
"368 442 OFFCURVE",
"387 429 CURVE SMOOTH",
"402 414 OFFCURVE",
"411 394 OFFCURVE",
"407 362 CURVE SMOOTH",
"398 302 LINE",
"357 302 LINE SMOOTH",
"313 302 OFFCURVE",
"270 300 OFFCURVE",
"228 295 CURVE SMOOTH",
"147 285 OFFCURVE",
"54 233 OFFCURVE",
"41 138 CURVE SMOOTH",
"40 127 OFFCURVE",
"39 116 OFFCURVE",
"40 107 CURVE",
"39 81 OFFCURVE",
"46 56 OFFCURVE",
"63 36 CURVE SMOOTH",
"77 13 OFFCURVE",
"108 -8 OFFCURVE",
"163 -8 CURVE SMOOTH",
"198 -8 OFFCURVE",
"236 -1 OFFCURVE",
"270 10 CURVE SMOOTH",
"294 19 OFFCURVE",
"318 31 OFFCURVE",
"366 62 CURVE",
"356 1 LINE",
"428 1 LINE",
"436 49 LINE",
"496 2 OFFCURVE",
"549 -13 OFFCURVE",
"607 -10 CURVE SMOOTH",
"677 -7 OFFCURVE",
"749 18 OFFCURVE",
"816 65 CURVE",
"785 119 LINE",
"741 84 OFFCURVE",
"679 64 OFFCURVE",
"618 63 CURVE",
"563 60 OFFCURVE",
"523 77 OFFCURVE",
"496 105 CURVE SMOOTH",
"472 137 OFFCURVE",
"460 177 OFFCURVE",
"460 228 CURVE",
"860 230 LINE"
);
},
{
closed = 1;
nodes = (
"751 430 OFFCURVE",
"798 382 OFFCURVE",
"798 283 CURVE",
"469 279 LINE",
"498 379 OFFCURVE",
"556 430 OFFCURVE",
"656 430 CURVE SMOOTH"
);
},
{
closed = 1;
nodes = (
"316 79 OFFCURVE",
"247 55 OFFCURVE",
"192 55 CURVE SMOOTH",
"170 55 OFFCURVE",
"147 59 OFFCURVE",
"129 71 CURVE",
"114 84 OFFCURVE",
"105 103 OFFCURVE",
"109 130 CURVE SMOOTH",
"115 173 OFFCURVE",
"146 202 OFFCURVE",
"195 221 CURVE SMOOTH",
"241 242 OFFCURVE",
"309 246 OFFCURVE",
"393 253 CURVE",
"372 120 LINE"
);
}
);
width = 907;
}
);
leftKerningGroup = "rounded-low";
note = ae;
unicode = 00E6;
},
{
glyphname = b;
lastChange = "2018-04-19 23:39:30 +0000";
layers = (
{
layerId = "D890DE10-725C-4894-AB83-5F7B73FFD58A";
paths = (
{
closed = 1;
nodes = (
"296 -9 OFFCURVE",
"355 15 OFFCURVE",
"400 60 CURVE SMOOTH",
"444 107 OFFCURVE",
"472 170 OFFCURVE",
"482 247 CURVE SMOOTH",
"493 325 OFFCURVE",
"476 389 OFFCURVE",
"441 430 CURVE SMOOTH",
"407 475 OFFCURVE",
"352 500 OFFCURVE",
"284 500 CURVE SMOOTH",
"242 500 OFFCURVE",
"203 489 OFFCURVE",
"151 468 CURVE",
"185 700 LINE",
"113 700 LINE",
"15 1 LINE",
"87 1 LINE",
"94 45 LINE",
"145 8 OFFCURVE",
"181 -9 OFFCURVE",
"226 -9 CURVE SMOOTH"
);
},
{
closed = 1;
nodes = (
"376 432 OFFCURVE",
"428 366 OFFCURVE",
"413 255 CURVE SMOOTH",
"396 136 OFFCURVE",
"323 61 OFFCURVE",
"224 61 CURVE SMOOTH",
"173 61 OFFCURVE",
"126 85 OFFCURVE",
"100 104 CURVE",
"145 405 LINE",
"174 416 OFFCURVE",
"214 432 OFFCURVE",
"265 432 CURVE SMOOTH"
);
}
);
width = 522;
}
);
note = b;
unicode = 0062;
},
{
glyphname = c;
lastChange = "2018-04-19 23:39:36 +0000";
layers = (
{
anchors = (
{
name = bottom;
position = "{250, 0}";
},
{
name = top;
position = "{317, 520}";
}
);
layerId = "D890DE10-725C-4894-AB83-5F7B73FFD58A";
paths = (
{
closed = 1;
nodes = (
"304 -22 OFFCURVE",
"380 4 OFFCURVE",
"434 52 CURVE",
"401 105 LINE",
"387 93 OFFCURVE",
"361 79 OFFCURVE",
"328 72 CURVE SMOOTH",
"296 64 OFFCURVE",
"257 59 OFFCURVE",
"212 66 CURVE SMOOTH",
"132 82 OFFCURVE",
"98 148 OFFCURVE",
"111 246 CURVE SMOOTH",
"126 348 OFFCURVE",
"182 417 OFFCURVE",
"269 431 CURVE SMOOTH",
"314 440 OFFCURVE",
"352 436 OFFCURVE",
"384 429 CURVE SMOOTH",
"412 421 OFFCURVE",
"433 408 OFFCURVE",
"445 396 CURVE",
"488 445 LINE",
"447 493 OFFCURVE",
"377 521 OFFCURVE",
"253 502 CURVE SMOOTH",
"141 482 OFFCURVE",
"61 392 OFFCURVE",
"41 254 CURVE SMOOTH",
"21 111 OFFCURVE",
"79 17 OFFCURVE",
"189 -1 CURVE SMOOTH"
);
}
);
width = 502;
}
);
leftKerningGroup = "rounded-low";
note = c;
unicode = 0063;
},
{
glyphname = d;
lastChange = "2018-04-19 23:39:59 +0000";
layers = (
{
anchors = (
{
name = bottom;
position = "{217, 0}";
},
{
name = center;
position = "{346, 600}";
},
{
name = top;
position = "{308, 649}";
},
{
name = topright;
position = "{528, 500}";
}
);
layerId = "D890DE10-725C-4894-AB83-5F7B73FFD58A";
paths = (
{
closed = 1;
nodes = (
"272 -9 OFFCURVE",
"312 6 OFFCURVE",
"373 43 CURVE",
"366 1 LINE",
"438 1 LINE",
"536 700 LINE",
"464 700 LINE",
"430 466 LINE",
"384 487 OFFCURVE",
"347 500 OFFCURVE",
"303 500 CURVE SMOOTH",
"237 500 OFFCURVE",
"177 477 OFFCURVE",
"129 436 CURVE SMOOTH",
"84 391 OFFCURVE",
"51 329 OFFCURVE",
"41 255 CURVE SMOOTH",
"29 174 OFFCURVE",
"41 111 OFFCURVE",
"74 66 CURVE SMOOTH",
"104 19 OFFCURVE",
"157 -9 OFFCURVE",
"231 -9 CURVE SMOOTH"
);
},
{
closed = 1;
nodes = (
"363 432 OFFCURVE",
"399 418 OFFCURVE",
"424 407 CURVE",
"379 106 LINE",
"348 87 OFFCURVE",
"294 61 OFFCURVE",
"239 61 CURVE SMOOTH",
"144 61 OFFCURVE",
"94 132 OFFCURVE",
"110 247 CURVE SMOOTH",
"127 362 OFFCURVE",
"201 432 OFFCURVE",
"316 432 CURVE SMOOTH"
);
}
);
width = 523;
}
);
leftKerningGroup = "rounded-low";
note = d;
unicode = 0064;
},
{
glyphname = eth;
lastChange = "2018-04-19 23:40:06 +0000";
layers = (
{
layerId = "D890DE10-725C-4894-AB83-5F7B73FFD58A";
paths = (
{
closed = 1;
nodes = (
"278 -10 OFFCURVE",
"342 8 OFFCURVE",
"396 44 CURVE SMOOTH",
"447 81 OFFCURVE",
"487 134 OFFCURVE",
"504 195 CURVE SMOOTH",
"534 309 OFFCURVE",
"507 434 OFFCURVE",
"426 602 CURVE SMOOTH",
"418 620 OFFCURVE",
"409 637 OFFCURVE",
"400 652 CURVE SMOOTH",
"392 668 OFFCURVE",
"384 683 OFFCURVE",
"377 697 CURVE",
"291 702 LINE",
"301 686 OFFCURVE",
"313 668 OFFCURVE",
"326 649 CURVE SMOOTH",
"337 628 OFFCURVE",
"349 607 OFFCURVE",
"362 586 CURVE SMOOTH",
"377 557 OFFCURVE",
"392 529 OFFCURVE",
"410 495 CURVE SMOOTH",
"426 458 OFFCURVE",
"442 416 OFFCURVE",
"461 359 CURVE",
"395 455 OFFCURVE",
"289 456 OFFCURVE",
"209 435 CURVE SMOOTH",
"131 414 OFFCURVE",
"68 351 OFFCURVE",
"43 260 CURVE SMOOTH",
"26 195 OFFCURVE",
"39 135 OFFCURVE",
"70 89 CURVE SMOOTH",
"99 41 OFFCURVE",
"151 6 OFFCURVE",
"217 -2 CURVE SMOOTH"
);
},
{
closed = 1;
nodes = (
"185 73 OFFCURVE",
"151 94 OFFCURVE",
"128 126 CURVE SMOOTH",
"108 159 OFFCURVE",
"101 202 OFFCURVE",
"112 244 CURVE SMOOTH",
"124 290 OFFCURVE",
"154 329 OFFCURVE",
"192 353 CURVE SMOOTH",
"227 379 OFFCURVE",
"274 393 OFFCURVE",
"319 388 CURVE SMOOTH",
"361 383 OFFCURVE",
"397 362 OFFCURVE",
"419 331 CURVE SMOOTH",
"439 297 OFFCURVE",
"445 254 OFFCURVE",
"434 212 CURVE",
"421 166 OFFCURVE",
"391 126 OFFCURVE",
"354 103 CURVE SMOOTH",
"318 77 OFFCURVE",
"273 63 OFFCURVE",
"227 68 CURVE SMOOTH"
);
},
{
closed = 1;
nodes = (
"528 629 LINE",
"515 685 LINE",
"220 583 LINE",
"232 527 LINE"
);
}
);
width = 554;
}
);
leftKerningGroup = "rounded-low";
unicode = 00F0;
},
{
glyphname = e;
lastChange = "2018-04-19 23:40:14 +0000";
layers = (
{
anchors = (
{
name = bottom;
position = "{246, 0}";
},
{
name = ogonek;
position = "{385, 10}";
},
{
name = top;
position = "{319, 520}";
}
);
layerId = "D890DE10-725C-4894-AB83-5F7B73FFD58A";
paths = (
{
closed = 1;
nodes = (
"523 260 LINE SMOOTH",
"533 332 OFFCURVE",
"519 393 OFFCURVE",
"483 433 CURVE SMOOTH",
"450 477 OFFCURVE",
"392 502 OFFCURVE",
"314 502 CURVE SMOOTH",
"163 502 OFFCURVE",
"63 412 OFFCURVE",
"42 266 CURVE SMOOTH",
"27 157 OFFCURVE",
"47 81 OFFCURVE",
"102 39 CURVE SMOOTH",
"143 3 OFFCURVE",
"199 -13 OFFCURVE",
"261 -10 CURVE SMOOTH",
"332 -7 OFFCURVE",
"407 18 OFFCURVE",
"474 66 CURVE",
"443 119 LINE",
"399 84 OFFCURVE",
"334 64 OFFCURVE",
"272 63 CURVE SMOOTH",
"169 58 OFFCURVE",
"95 116 OFFCURVE",
"111 228 CURVE",
"519 230 LINE"
);
},
{
closed = 1;
nodes = (
"408 431 OFFCURVE",
"469 389 OFFCURVE",
"455 289 CURVE",
"120 285 LINE",
"140 385 OFFCURVE",
"209 431 OFFCURVE",
"310 431 CURVE SMOOTH"
);
}
);
width = 562;
}
);
leftKerningGroup = "rounded-low";
note = e;
unicode = 0065;
},
{
glyphname = f;
lastChange = "2018-04-19 23:40:23 +0000";
layers = (
{
layerId = "D890DE10-725C-4894-AB83-5F7B73FFD58A";
paths = (
{
closed = 1;
nodes = (
"248 546 OFFCURVE",
"266 584 OFFCURVE",
"294 605 CURVE SMOOTH",
"319 630 OFFCURVE",
"355 640 OFFCURVE",
"401 643 CURVE",
"406 707 LINE",
"275 708 OFFCURVE",
"191 643 OFFCURVE",
"163 494 CURVE",
"94 0 LINE",
"168 0 LINE",
"237 490 LINE"
);
},
{
closed = 1;
nodes = (
"66 435 LINE",
"363 435 LINE",
"372 500 LINE",
"75 500 LINE"
);
}
);
width = 376;
}
);
note = f;
unicode = 0066;
},
{
glyphname = g;
lastChange = "2018-04-19 23:40:29 +0000";
layers = (
{
anchors = (
{
name = bottom;
position = "{233, 0}";
},
{
name = top;
position = "{303, 500}";
}
);
layerId = "D890DE10-725C-4894-AB83-5F7B73FFD58A";
paths = (
{
closed = 1;
nodes = (
"354 -204 OFFCURVE",
"427 -124 OFFCURVE",
"445 3 CURVE SMOOTH",
"515 499 LINE",
"444 499 LINE",
"436 451 LINE",
"373 499 OFFCURVE",
"305 510 OFFCURVE",
"246 495 CURVE SMOOTH",
"132 466 OFFCURVE",
"63 381 OFFCURVE",
"43 239 CURVE SMOOTH",
"26 118 OFFCURVE",
"82 31 OFFCURVE",
"184 5 CURVE SMOOTH",
"252 -13 OFFCURVE",
"320 -1 OFFCURVE",
"380 37 CURVE",
"365 -57 OFFCURVE",
"336 -120 OFFCURVE",
"259 -138 CURVE SMOOTH",
"223 -147 OFFCURVE",
"190 -144 OFFCURVE",
"163 -134 CURVE SMOOTH",
"138 -122 OFFCURVE",
"118 -108 OFFCURVE",
"108 -99 CURVE",
"53 -147 LINE",
"63 -155 OFFCURVE",
"82 -169 OFFCURVE",
"111 -180 CURVE SMOOTH",
"137 -193 OFFCURVE",
"172 -204 OFFCURVE",
"214 -204 CURVE SMOOTH"
);
},
{
closed = 1;
nodes = (
"365 84 OFFCURVE",
"343 74 OFFCURVE",
"311 70 CURVE",
"281 62 OFFCURVE",
"246 59 OFFCURVE",
"204 70 CURVE SMOOTH",
"133 89 OFFCURVE",
"102 149 OFFCURVE",
"113 231 CURVE SMOOTH",
"128 334 OFFCURVE",
"171 406 OFFCURVE",
"261 425 CURVE SMOOTH",
"296 434 OFFCURVE",
"331 430 OFFCURVE",
"363 421 CURVE SMOOTH",
"391 412 OFFCURVE",
"415 397 OFFCURVE",
"430 388 CURVE",
"385 92 LINE"
);
}
);
width = 530;
}
);
leftKerningGroup = "rounded-low";
note = g;
unicode = 0067;
},
{
glyphname = h;
lastChange = "2018-04-19 23:40:36 +0000";
layers = (
{
anchors = (
{
name = bottom;
position = "{226, 0}";
},
{
name = center;
position = "{261, 586}";
},
{
name = top;
position = "{320, 668}";
}
);
layerId = "D890DE10-725C-4894-AB83-5F7B73FFD58A";
paths = (
{
closed = 1;
nodes = (
"488 292 LINE SMOOTH",
"497 360 OFFCURVE",
"481 413 OFFCURVE",
"444 445 CURVE SMOOTH",
"410 481 OFFCURVE",
"356 499 OFFCURVE",
"290 499 CURVE SMOOTH",
"244 499 OFFCURVE",
"202 480 OFFCURVE",
"145 437 CURVE",
"183 700 LINE",
"113 700 LINE",
"15 0 LINE",
"85 0 LINE",
"137 362 LINE",
"151 374 OFFCURVE",
"174 392 OFFCURVE",
"203 407 CURVE SMOOTH",
"228 423 OFFCURVE",
"259 435 OFFCURVE",
"292 435 CURVE SMOOTH",
"378 435 OFFCURVE",
"430 392 OFFCURVE",
"416 296 CURVE SMOOTH",
"375 0 LINE",
"447 0 LINE"
);
}
);
width = 522;
}
);
leftKerningGroup = "angleds-low";
note = h;
unicode = 0068;
},
{
glyphname = i;
lastChange = "2018-04-19 23:38:28 +0000";
layers = (
{
components = (
{
name = idotless;
transform = "{1, 0, 0, 1, -7, 0}";
}
);
layerId = "D890DE10-725C-4894-AB83-5F7B73FFD58A";
paths = (
{
closed = 1;
nodes = (
"174 576 OFFCURVE",
"195 597 OFFCURVE",
"195 622 CURVE SMOOTH",
"195 647 OFFCURVE",
"174 668 OFFCURVE",
"149 668 CURVE SMOOTH",
"124 668 OFFCURVE",
"103 647 OFFCURVE",
"103 622 CURVE SMOOTH",
"103 597 OFFCURVE",
"124 576 OFFCURVE",
"149 576 CURVE SMOOTH"
);
}
);
width = 198;
}
);
leftKerningGroup = "angleds-low";
note = i;
unicode = 0069;
},
{
glyphname = idotless;
lastChange = "2018-04-19 23:40:50 +0000";
layers = (
{
anchors = (
{
name = bottom;
position = "{53, 0}";
},
{
name = ogonek;
position = "{137, 10}";
},
{
name = top;
position = "{123, 500}";
}
);
layerId = "D890DE10-725C-4894-AB83-5F7B73FFD58A";
paths = (
{
closed = 1;
nodes = (
"155 500 LINE",
"85 500 LINE",
"15 0 LINE",
"85 0 LINE"
);
}
);
width = 170;
}
);
unicode = 0131;
},
{
glyphname = j;
lastChange = "2018-04-19 23:42:58 +0000";
layers = (
{
components = (
{
name = jdotless;
transform = "{1, 0, 0, 1, -7, 0}";
}
);
layerId = "D890DE10-725C-4894-AB83-5F7B73FFD58A";
paths = (
{
closed = 1;
nodes = (
"283 576 OFFCURVE",
"304 597 OFFCURVE",
"304 622 CURVE SMOOTH",
"304 647 OFFCURVE",
"283 668 OFFCURVE",
"258 668 CURVE SMOOTH",
"233 668 OFFCURVE",
"212 647 OFFCURVE",
"212 622 CURVE SMOOTH",
"212 597 OFFCURVE",
"233 576 OFFCURVE",
"258 576 CURVE SMOOTH"
);
}
);
width = 302;
}
);
note = j;
unicode = 006A;
},
{
glyphname = jdotless;
lastChange = "2018-04-19 23:33:36 +0000";
layers = (
{
anchors = (
{
name = bottom;
position = "{149, 0}";
},
{
name = top;
position = "{223, 500}";
}
);
layerId = "D890DE10-725C-4894-AB83-5F7B73FFD58A";
paths = (
{
closed = 1;
nodes = (
"111 -177 OFFCURVE",
"199 -110 OFFCURVE",
"220 37 CURVE SMOOTH",
"285 500 LINE",
"218 500 LINE",
"153 41 LINE SMOOTH",
"139 -70 OFFCURVE",
"83 -109 OFFCURVE",
"-24 -114 CURVE",
"-30 -177 LINE"
);
}
);
width = 343;
}
);
unicode = 0237;
},
{
glyphname = k;
lastChange = "2018-04-19 23:43:06 +0000";
layers = (
{
anchors = (
{
name = bottom;
position = "{214, 0}";
},
{
name = top;
position = "{284, 500}";
}
);
layerId = "D890DE10-725C-4894-AB83-5F7B73FFD58A";
paths = (
{
closed = 1;
nodes = (
"241 346 LINE",
"434 493 LINE",
"327 493 LINE",
"133 349 LINE",
"183 700 LINE",
"113 700 LINE",
"15 0 LINE",
"85 0 LINE",
"121 255 LINE",
"182 300 LINE",
"342 0 LINE",
"422 0 LINE"
);
}
);
width = 502;
}
);
leftKerningGroup = "angleds-low";
note = k;
unicode = 006B;
},
{
glyphname = l;
lastChange = "2018-04-19 23:43:13 +0000";
layers = (
{
anchors = (
{
name = bottom;
position = "{51, 0}";
},
{
name = center;
position = "{97, 338}";
},
{
name = top;
position = "{148, 700}";
},
{
name = topright;
position = "{185, 500}";
}
);
layerId = "D890DE10-725C-4894-AB83-5F7B73FFD58A";
paths = (
{
closed = 1;
nodes = (
"183 700 LINE",
"113 700 LINE",
"15 0 LINE",
"85 0 LINE"
);
}
);
width = 170;
}
);
note = l;
unicode = 006C;
},
{
glyphname = m;
lastChange = "2018-04-19 23:44:01 +0000";
layers = (
{
layerId = "D890DE10-725C-4894-AB83-5F7B73FFD58A";
paths = (
{
closed = 1;
nodes = (
"814 296 LINE SMOOTH",
"830 407 OFFCURVE",
"780 471 OFFCURVE",
"697 494 CURVE",
"684 502 OFFCURVE",
"659 506 OFFCURVE",
"634 506 CURVE",
"610 505 OFFCURVE",
"583 502 OFFCURVE",
"559 494 CURVE SMOOTH",
"524 481 OFFCURVE",
"495 464 OFFCURVE",
"458 427 CURVE",
"419 487 OFFCURVE",
"362 515 OFFCURVE",
"284 506 CURVE SMOOTH",
"244 501 OFFCURVE",
"197 485 OFFCURVE",
"145 438 CURVE",
"155 500 LINE",
"85 500 LINE",
"15 0 LINE",
"85 0 LINE",
"138 371 LINE",
"153 384 OFFCURVE",
"176 402 OFFCURVE",
"203 415 CURVE SMOOTH",
"226 430 OFFCURVE",
"254 441 OFFCURVE",
"284 441 CURVE SMOOTH",
"367 441 OFFCURVE",
"419 397 OFFCURVE",
"405 300 CURVE SMOOTH",
"363 0 LINE",
"432 0 LINE",
"473 296 LINE SMOOTH",
"486 389 OFFCURVE",
"550 441 OFFCURVE",
"633 441 CURVE SMOOTH",
"711 441 OFFCURVE",
"758 393 OFFCURVE",
"745 300 CURVE SMOOTH",
"703 0 LINE",
"773 0 LINE"
);
}
);
width = 848;
}
);
leftKerningGroup = "angleds-low";
note = m;
unicode = 006D;
},
{
glyphname = n;
lastChange = "2018-04-19 23:44:08 +0000";
layers = (
{
anchors = (
{
name = bottom;
position = "{225, 0}";
},
{
name = top;
position = "{298, 520}";
}
);
layerId = "D890DE10-725C-4894-AB83-5F7B73FFD58A";
paths = (
{
closed = 1;
nodes = (
"486 296 LINE SMOOTH",
"496 365 OFFCURVE",
"480 417 OFFCURVE",
"444 450 CURVE SMOOTH",
"410 487 OFFCURVE",
"357 506 OFFCURVE",
"291 506 CURVE SMOOTH",
"247 506 OFFCURVE",
"205 487 OFFCURVE",
"146 446 CURVE",
"155 500 LINE",
"85 500 LINE",
"15 0 LINE",
"85 0 LINE",
"137 367 LINE",
"152 380 OFFCURVE",
"175 398 OFFCURVE",
"203 412 CURVE SMOOTH",
"229 428 OFFCURVE",
"260 441 OFFCURVE",
"293 441 CURVE SMOOTH",
"379 441 OFFCURVE",
"431 397 OFFCURVE",
"417 300 CURVE SMOOTH",
"375 0 LINE",
"445 0 LINE"
);
}
);
width = 520;
}
);
leftKerningGroup = "angleds-low";
note = n;
unicode = 006E;
},
{
glyphname = eng;
lastChange = "2018-04-19 23:44:16 +0000";
layers = (
{
layerId = "D890DE10-725C-4894-AB83-5F7B73FFD58A";
paths = (
{
closed = 1;
nodes = (
"365 -135 OFFCURVE",
"429 -112 OFFCURVE",
"445 -1 CURVE",
"486 296 LINE SMOOTH",
"496 365 OFFCURVE",
"480 417 OFFCURVE",
"444 450 CURVE SMOOTH",
"410 487 OFFCURVE",
"357 506 OFFCURVE",
"291 506 CURVE SMOOTH",
"247 506 OFFCURVE",
"205 487 OFFCURVE",
"146 446 CURVE",
"155 500 LINE",
"85 500 LINE",
"15 0 LINE",
"85 0 LINE",
"137 367 LINE",
"152 380 OFFCURVE",
"175 398 OFFCURVE",
"203 412 CURVE SMOOTH",
"229 428 OFFCURVE",
"260 441 OFFCURVE",
"293 441 CURVE SMOOTH",
"379 441 OFFCURVE",
"431 397 OFFCURVE",
"417 300 CURVE SMOOTH",
"375 3 LINE",
"365 -56 OFFCURVE",
"332 -65 OFFCURVE",
"256 -65 CURVE",
"249 -135 LINE"
);
}
);
width = 520;
}
);
unicode = 014B;
},
{
glyphname = o;
lastChange = "2018-04-19 23:44:24 +0000";
layers = (
{
anchors = (
{
name = bottom;
position = "{247, 0}";
},
{
name = center;
position = "{282, 250}";
},
{
name = ogonek;
position = "{335, 10}";
},
{
name = top;
position = "{320, 520}";
},
{
name = topright;
position = "{579, 500}";
}
);
layerId = "D890DE10-725C-4894-AB83-5F7B73FFD58A";
paths = (
{
closed = 1;
nodes = (
"320 -11 OFFCURVE",
"385 14 OFFCURVE",
"434 56 CURVE SMOOTH",
"481 102 OFFCURVE",
"512 163 OFFCURVE",
"522 234 CURVE SMOOTH",
"534 325 OFFCURVE",
"521 398 OFFCURVE",
"483 440 CURVE SMOOTH",
"449 485 OFFCURVE",
"389 507 OFFCURVE",
"315 507 CURVE SMOOTH",
"165 507 OFFCURVE",
"64 419 OFFCURVE",
"39 242 CURVE SMOOTH",
"28 167 OFFCURVE",
"44 104 OFFCURVE",
"81 62 CURVE SMOOTH",
"115 16 OFFCURVE",
"171 -11 OFFCURVE",
"248 -11 CURVE SMOOTH"
);
},
{
closed = 1;
nodes = (
"368 441 OFFCURVE",
"409 421 OFFCURVE",
"434 386 CURVE SMOOTH",
"457 349 OFFCURVE",
"461 293 OFFCURVE",
"454 242 CURVE SMOOTH",
"447 196 OFFCURVE",
"427 153 OFFCURVE",
"392 119 CURVE SMOOTH",
"359 83 OFFCURVE",
"311 58 OFFCURVE",
"252 58 CURVE SMOOTH",
"196 58 OFFCURVE",
"157 79 OFFCURVE",
"131 111 CURVE SMOOTH",
"108 146 OFFCURVE",
"101 191 OFFCURVE",
"107 234 CURVE SMOOTH",
"114 290 OFFCURVE",
"137 345 OFFCURVE",
"172 381 CURVE SMOOTH",
"205 418 OFFCURVE",
"253 441 OFFCURVE",
"312 441 CURVE SMOOTH"
);
}
);
width = 564;
}
);
leftKerningGroup = "rounded-low";
note = o;
unicode = 006F;
},
{
glyphname = oe;
lastChange = "2018-04-19 23:44:41 +0000";
layers = (
{
layerId = "D890DE10-725C-4894-AB83-5F7B73FFD58A";
paths = (
{
closed = 1;
nodes = (
"913 260 LINE SMOOTH",
"923 332 OFFCURVE",
"910 393 OFFCURVE",
"874 433 CURVE SMOOTH",
"842 477 OFFCURVE",
"787 502 OFFCURVE",
"710 502 CURVE SMOOTH",
"625 502 OFFCURVE",
"559 473 OFFCURVE",
"498 404 CURVE",
"458 477 OFFCURVE",
"397 507 OFFCURVE",
"309 507 CURVE SMOOTH",
"162 507 OFFCURVE",
"64 425 OFFCURVE",
"40 248 CURVE SMOOTH",
"29 173 OFFCURVE",
"43 110 OFFCURVE",
"79 68 CURVE SMOOTH",
"112 22 OFFCURVE",
"169 -5 OFFCURVE",
"243 -5 CURVE SMOOTH",
"323 -5 OFFCURVE",
"393 27 OFFCURVE",
"454 98 CURVE",
"472 67 OFFCURVE",
"485 50 OFFCURVE",
"502 39 CURVE SMOOTH",
"542 3 OFFCURVE",
"595 -13 OFFCURVE",
"657 -10 CURVE SMOOTH",
"725 -7 OFFCURVE",
"798 18 OFFCURVE",
"865 65 CURVE",
"834 119 LINE",
"790 84 OFFCURVE",
"727 64 OFFCURVE",
"668 63 CURVE",
"565 58 OFFCURVE",
"499 119 OFFCURVE",
"510 228 CURVE",
"909 230 LINE"
);
},
{
closed = 1;
nodes = (
"802 430 OFFCURVE",
"861 387 OFFCURVE",
"847 288 CURVE",
"520 284 LINE",
"534 384 OFFCURVE",
"606 430 OFFCURVE",
"706 430 CURVE SMOOTH"
);
},
{
closed = 1;
nodes = (
"361 441 OFFCURVE",
"401 420 OFFCURVE",
"426 386 CURVE SMOOTH",
"447 349 OFFCURVE",
"452 299 OFFCURVE",
"445 248 CURVE SMOOTH",
"438 202 OFFCURVE",
"418 159 OFFCURVE",
"384 125 CURVE SMOOTH",
"351 90 OFFCURVE",
"305 64 OFFCURVE",
"247 64 CURVE SMOOTH",
"192 64 OFFCURVE",
"154 86 OFFCURVE",
"130 118 CURVE SMOOTH",
"107 152 OFFCURVE",
"100 197 OFFCURVE",
"106 240 CURVE SMOOTH",
"114 296 OFFCURVE",
"136 345 OFFCURVE",
"171 381 CURVE SMOOTH",
"202 417 OFFCURVE",
"248 441 OFFCURVE",
"306 441 CURVE SMOOTH"
);
}
);
width = 952;
}
);
leftKerningGroup = "rounded-low";
note = oe;
unicode = 0153;
},
{
glyphname = p;
lastChange = "2018-04-19 23:38:43 +0000";
layers = (
{
guideLines = (
{
angle = 180;
position = "{-36, -170}";
}
);
layerId = "D890DE10-725C-4894-AB83-5F7B73FFD58A";
paths = (
{
closed = 1;
nodes = (
"250 505 OFFCURVE",
"211 494 OFFCURVE",
"149 453 CURVE",
"156 495 LINE",
"84 495 LINE",
"-9 -170 LINE",
"63 -170 LINE",
"92 30 LINE",
"138 9 OFFCURVE",
"175 -4 OFFCURVE",
"219 -4 CURVE SMOOTH",
"285 -4 OFFCURVE",
"345 19 OFFCURVE",
"393 60 CURVE SMOOTH",
"439 105 OFFCURVE",
"471 167 OFFCURVE",
"482 241 CURVE SMOOTH",
"493 322 OFFCURVE",
"481 385 OFFCURVE",
"448 430 CURVE SMOOTH",
"418 477 OFFCURVE",
"365 505 OFFCURVE",
"292 505 CURVE SMOOTH"
);
},
{
closed = 1;
nodes = (
"159 64 OFFCURVE",
"123 78 OFFCURVE",
"98 89 CURVE",
"143 390 LINE",
"175 409 OFFCURVE",
"228 435 OFFCURVE",
"283 435 CURVE SMOOTH",
"378 435 OFFCURVE",
"428 364 OFFCURVE",
"412 249 CURVE SMOOTH",
"396 134 OFFCURVE",
"321 64 OFFCURVE",
"207 64 CURVE SMOOTH"
);
}
);
width = 526;
}
);
leftKerningGroup = "angleds-low";
note = p;
unicode = 0070;
},
{
glyphname = thorn;
lastChange = "2018-04-19 23:44:53 +0000";
layers = (
{
layerId = "D890DE10-725C-4894-AB83-5F7B73FFD58A";
paths = (
{
closed = 1;
nodes = (
"391 51 OFFCURVE",
"467 134 OFFCURVE",
"483 251 CURVE SMOOTH",
"503 396 OFFCURVE",
"455 479 OFFCURVE",
"346 505 CURVE SMOOTH",
"289 521 OFFCURVE",
"229 508 OFFCURVE",
"151 471 CURVE",
"185 700 LINE",
"113 700 LINE",
"-9 -170 LINE",
"63 -170 LINE",
"95 51 LINE",
"153 24 OFFCURVE",
"211 8 OFFCURVE",
"284 24 CURVE SMOOTH"
);
},
{
closed = 1;
nodes = (
"404 418 OFFCURVE",
"427 357 OFFCURVE",
"413 259 CURVE SMOOTH",
"401 173 OFFCURVE",
"350 111 OFFCURVE",
"270 93 CURVE SMOOTH",
"252 88 OFFCURVE",
"232 85 OFFCURVE",
"213 85 CURVE SMOOTH",
"198 85 OFFCURVE",
"182 86 OFFCURVE",
"166 88 CURVE SMOOTH",
"138 94 OFFCURVE",
"116 102 OFFCURVE",
"101 110 CURVE",
"144 399 LINE",
"163 410 OFFCURVE",
"192 423 OFFCURVE",
"224 432 CURVE SMOOTH",
"254 441 OFFCURVE",
"289 446 OFFCURVE",
"325 439 CURVE SMOOTH"
);
}
);
width = 523;
}
);
note = thorn;
unicode = 00FE;
},
{
glyphname = q;
lastChange = "2018-04-19 23:44:59 +0000";
layers = (
{
layerId = "D890DE10-725C-4894-AB83-5F7B73FFD58A";
paths = (
{
closed = 1;
nodes = (
"229 505 OFFCURVE",
"170 481 OFFCURVE",
"125 436 CURVE SMOOTH",
"81 389 OFFCURVE",
"54 326 OFFCURVE",
"43 249 CURVE SMOOTH",
"32 171 OFFCURVE",
"48 107 OFFCURVE",
"84 66 CURVE SMOOTH",
"118 21 OFFCURVE",
"173 -4 OFFCURVE",
"241 -4 CURVE SMOOTH",
"283 -4 OFFCURVE",
"322 7 OFFCURVE",
"374 28 CURVE",
"345 -170 LINE",
"417 -170 LINE",
"510 495 LINE",
"438 495 LINE",
"431 451 LINE",
"384 495 OFFCURVE",
"344 505 OFFCURVE",
"300 505 CURVE SMOOTH"
);
},
{
closed = 1;
nodes = (
"149 64 OFFCURVE",
"97 130 OFFCURVE",
"113 241 CURVE SMOOTH",
"129 360 OFFCURVE",
"202 435 OFFCURVE",
"301 435 CURVE SMOOTH",
"352 435 OFFCURVE",
"399 411 OFFCURVE",
"425 392 CURVE",
"380 91 LINE",
"351 80 OFFCURVE",
"311 64 OFFCURVE",
"261 64 CURVE SMOOTH"
);
}
);
width = 526;
}
);
leftKerningGroup = "rounded-low";
note = q;
unicode = 0071;
},
{
glyphname = r;
lastChange = "2018-04-19 23:45:07 +0000";
layers = (
{
anchors = (
{
name = bottom;
position = "{164, 0}";
},
{
name = top;
position = "{234, 500}";
}
);
layerId = "D890DE10-725C-4894-AB83-5F7B73FFD58A";
paths = (
{
closed = 1;
nodes = (
"367 505 OFFCURVE",
"327 508 OFFCURVE",
"280 503 CURVE SMOOTH",
"241 498 OFFCURVE",
"204 478 OFFCURVE",
"148 431 CURVE",
"159 500 LINE",
"85 500 LINE",
"15 0 LINE",
"89 0 LINE",
"138 347 LINE",
"147 357 OFFCURVE",
"158 368 OFFCURVE",
"170 376 CURVE SMOOTH",
"191 398 OFFCURVE",
"216 416 OFFCURVE",
"247 427 CURVE SMOOTH",
"275 439 OFFCURVE",
"305 440 OFFCURVE",
"329 440 CURVE SMOOTH",
"338 440 OFFCURVE",
"349 440 OFFCURVE",
"360 437 CURVE",
"401 494 LINE"
);
}
);
width = 407;
}
);
leftKerningGroup = "angleds-low";
note = r;
unicode = 0072;
},
{
glyphname = s;
lastChange = "2018-04-19 23:45:14 +0000";
layers = (
{
anchors = (
{
name = bottom;
position = "{173, 0}";
},
{
name = top;
position = "{246, 520}";
}
);
layerId = "D890DE10-725C-4894-AB83-5F7B73FFD58A";
paths = (
{
closed = 1;
nodes = (
"321 52 OFFCURVE",
"340 75 OFFCURVE",
"352 101 CURVE SMOOTH",
"374 159 OFFCURVE",
"367 234 OFFCURVE",
"262 274 CURVE",
"211 291 OFFCURVE",
"179 302 OFFCURVE",
"160 310 CURVE SMOOTH",
"139 324 OFFCURVE",
"126 352 OFFCURVE",
"133 373 CURVE SMOOTH",
"139 396 OFFCURVE",
"154 427 OFFCURVE",
"201 434 CURVE SMOOTH",
"225 440 OFFCURVE",
"254 439 OFFCURVE",
"280 434 CURVE SMOOTH",
"302 427 OFFCURVE",
"324 418 OFFCURVE",
"336 409 CURVE",
"387 450 LINE",
"369 470 OFFCURVE",
"340 484 OFFCURVE",
"306 493 CURVE SMOOTH",
"275 502 OFFCURVE",
"237 506 OFFCURVE",
"203 502 CURVE SMOOTH",
"132 493 OFFCURVE",
"83 451 OFFCURVE",
"66 388 CURVE SMOOTH",
"58 359 OFFCURVE",
"63 333 OFFCURVE",
"76 311 CURVE SMOOTH",
"98 264 OFFCURVE",
"139 241 OFFCURVE",
"199 227 CURVE SMOOTH",
"212 223 OFFCURVE",
"224 219 OFFCURVE",
"237 216 CURVE",
"244 211 OFFCURVE",
"257 205 OFFCURVE",
"270 197 CURVE",
"279 187 OFFCURVE",
"291 176 OFFCURVE",
"297 163 CURVE SMOOTH",
"304 137 OFFCURVE",
"284 104 OFFCURVE",
"257 87 CURVE SMOOTH",
"231 65 OFFCURVE",
"190 58 OFFCURVE",
"153 63 CURVE SMOOTH",
"120 67 OFFCURVE",
"86 80 OFFCURVE",
"64 99 CURVE",
"13 61 LINE",
"31 42 OFFCURVE",
"58 26 OFFCURVE",
"88 15 CURVE SMOOTH",
"114 2 OFFCURVE",
"145 -7 OFFCURVE",
"175 -7 CURVE SMOOTH",
"218 -7 OFFCURVE",
"259 6 OFFCURVE",
"297 31 CURVE SMOOTH"
);
}
);
width = 417;
}
);
leftKerningGroup = "rounded-low";
note = s;
unicode = 0073;
},
{
glyphname = germandbls;
lastChange = "2018-04-19 23:45:20 +0000";
layers = (
{
layerId = "D890DE10-725C-4894-AB83-5F7B73FFD58A";
paths = (
{
closed = 1;
nodes = (
"366 0 OFFCURVE",
"413 25 OFFCURVE",
"452 61 CURVE SMOOTH",
"489 100 OFFCURVE",
"516 149 OFFCURVE",
"522 196 CURVE SMOOTH",
"532 266 OFFCURVE",
"506 326 OFFCURVE",
"447 367 CURVE",
"467 383 LINE SMOOTH",
"503 420 OFFCURVE",
"525 470 OFFCURVE",
"531 512 CURVE SMOOTH",
"538 563 OFFCURVE",
"526 611 OFFCURVE",
"499 642 CURVE SMOOTH",
"474 677 OFFCURVE",
"434 700 OFFCURVE",
"382 700 CURVE SMOOTH",
"113 700 LINE",
"15 0 LINE",
"86 0 LINE",
"130 318 LINE",
"366 318 LINE SMOOTH",
"401 318 OFFCURVE",
"424 304 OFFCURVE",
"439 282 CURVE SMOOTH",
"452 257 OFFCURVE",
"456 227 OFFCURVE",
"452 204 CURVE SMOOTH",
"448 170 OFFCURVE",
"430 138 OFFCURVE",
"407 114 CURVE SMOOTH",
"385 88 OFFCURVE",
"354 69 OFFCURVE",
"325 69 CURVE SMOOTH",
"177 69 LINE",
"168 0 LINE",
"318 0 LINE SMOOTH"
);
},
{
closed = 1;
nodes = (
"410 631 OFFCURVE",
"433 618 OFFCURVE",
"448 597 CURVE SMOOTH",
"460 574 OFFCURVE",
"464 545 OFFCURVE",
"461 520 CURVE SMOOTH",
"456 487 OFFCURVE",
"440 455 OFFCURVE",
"416 430 CURVE SMOOTH",
"393 403 OFFCURVE",
"364 382 OFFCURVE",
"333 382 CURVE SMOOTH",
"139 382 LINE",
"174 631 LINE",
"375 631 LINE SMOOTH"
);
}
);
width = 570;
}
);
note = germandbls;
unicode = 00DF;
},
{
glyphname = t;
lastChange = "2018-04-19 23:45:27 +0000";
layers = (
{
anchors = (
{
name = bottom;
position = "{197, 0}";
},
{
name = center;
position = "{249, 613}";
},
{
name = top;
position = "{261, 700}";
},
{
name = topright;
position = "{405, 500}";
}
);
layerId = "D890DE10-725C-4894-AB83-5F7B73FFD58A";
paths = (
{
closed = 1;
nodes = (
"109 67 OFFCURVE",
"179 -5 OFFCURVE",
"315 -5 CURVE",
"320 59 LINE",
"223 64 OFFCURVE",
"188 99 OFFCURVE",
"203 210 CURVE SMOOTH",
"235 434 LINE",
"369 434 LINE",
"378 500 LINE",
"244 500 LINE",
"272 700 LINE",
"198 700 LINE",
"170 500 LINE",
"80 500 LINE",
"71 434 LINE",
"161 434 LINE",
"130 214 LINE SMOOTH"
);
}
);
width = 396;
}
);
note = t;
unicode = 0074;
},
{
glyphname = u;
lastChange = "2018-04-19 23:45:50 +0000";
layers = (
{
anchors = (
{
name = bottom;
position = "{228, 0}";
},
{
name = ogonek;
position = "{439, 10}";
},
{
name = top;
position = "{298, 500}";
},
{
name = topright;
position = "{540, 500}";
}
);
layerId = "D890DE10-725C-4894-AB83-5F7B73FFD58A";
paths = (
{
closed = 1;
nodes = (
"510 500 LINE",
"438 500 LINE",
"386 134 LINE",
"352 93 OFFCURVE",
"290 59 OFFCURVE",
"230 59 CURVE SMOOTH",
"143 59 OFFCURVE",
"92 103 OFFCURVE",
"106 200 CURVE SMOOTH",
"148 500 LINE",
"76 500 LINE",
"34 204 LINE SMOOTH",
"25 135 OFFCURVE",
"41 82 OFFCURVE",
"78 49 CURVE SMOOTH",
"112 12 OFFCURVE",
"165 -6 OFFCURVE",
"232 -6 CURVE SMOOTH",
"277 -6 OFFCURVE",
"337 7 OFFCURVE",
"375 43 CURVE",
"368 0 LINE",
"440 0 LINE"
);
}
);
width = 525;
}
);
leftKerningGroup = "rounded-low";
note = u;
unicode = 0075;
},
{
glyphname = v;
lastChange = "2018-04-19 23:46:03 +0000";
layers = (
{
layerId = "D890DE10-725C-4894-AB83-5F7B73FFD58A";
paths = (
{
closed = 1;
nodes = (
"469 500 LINE",
"247 63 LINE",
"149 500 LINE",
"75 500 LINE",
"192 0 LINE",
"287 0 LINE",
"545 500 LINE"
);
}
);
width = 550;
}
);
leftKerningGroup = "angled-low";
note = v;
unicode = 0076;
},
{
glyphname = w;
lastChange = "2018-04-19 23:46:10 +0000";
layers = (
{
anchors = (
{
name = bottom;
position = "{410, 0}";
},
{
name = top;
position = "{483, 520}";
}
);
layerId = "D890DE10-725C-4894-AB83-5F7B73FFD58A";
paths = (
{
closed = 1;
nodes = (
"273 0 LINE",
"471 427 LINE",
"548 0 LINE",
"650 0 LINE",
"885 500 LINE",
"816 500 LINE",
"609 70 LINE",
"529 500 LINE",
"432 500 LINE",
"231 70 LINE",
"145 500 LINE",
"75 500 LINE",
"171 0 LINE"
);
}
);
width = 890;
}
);
leftKerningGroup = "angled-low";
note = w;
unicode = 0077;
},
{
glyphname = x;
lastChange = "2018-04-19 23:46:17 +0000";
layers = (
{
layerId = "D890DE10-725C-4894-AB83-5F7B73FFD58A";
paths = (
{
closed = 1;
nodes = (
"393 500 LINE",
"250 307 LINE",
"160 500 LINE",
"80 500 LINE",
"201 254 LINE",
"5 0 LINE",
"87 0 LINE",
"237 201 LINE",
"331 0 LINE",
"411 0 LINE",
"285 254 LINE",
"476 500 LINE"
);
}
);
width = 486;
}
);
leftKerningGroup = "angled-low";
note = x;
unicode = 0078;
},
{
glyphname = y;
lastChange = "2018-04-19 23:46:22 +0000";
layers = (
{
anchors = (
{
name = bottom;
position = "{236, 0}";
},
{
name = top;
position = "{309, 520}";
}
);
layerId = "D890DE10-725C-4894-AB83-5F7B73FFD58A";
paths = (
{
closed = 1;
nodes = (
"458 500 LINE",
"252 79 LINE",
"151 500 LINE",
"75 500 LINE",
"196 -6 LINE",
"189 -19 LINE",
"162 -68 OFFCURVE",
"115 -96 OFFCURVE",
"62 -104 CURVE",
"55 -175 LINE",
"67 -174 OFFCURVE",
"78 -173 OFFCURVE",
"90 -170 CURVE",
"174 -149 OFFCURVE",
"232 -96 OFFCURVE",
"280 -2 CURVE SMOOTH",
"536 500 LINE"
);
}
);
width = 541;
}
);
leftKerningGroup = "angled-low";
note = y;
unicode = 0079;
},
{
glyphname = z;
lastChange = "2018-04-19 23:46:29 +0000";
layers = (
{
anchors = (
{
name = bottom;
position = "{201, 0}";
},
{
name = top;
position = "{274, 520}";
}
);
layerId = "D890DE10-725C-4894-AB83-5F7B73FFD58A";
paths = (
{
closed = 1;
nodes = (
"406 73 LINE",
"114 73 LINE",
"458 437 LINE",
"466 500 LINE",
"83 500 LINE",
"73 427 LINE",
"358 427 LINE",
"13 59 LINE",
"6 0 LINE",
"396 0 LINE"
);
}
);
width = 472;
}
);
note = z;
unicode = 007A;
},
{
glyphname = zero;
lastChange = "2018-04-19 23:46:40 +0000";
layers = (
{
layerId = "D890DE10-725C-4894-AB83-5F7B73FFD58A";
paths = (
{
closed = 1;
nodes = (
"408 -5 OFFCURVE",
"487 34 OFFCURVE",
"545 98 CURVE SMOOTH",
"603 164 OFFCURVE",
"638 253 OFFCURVE",
"651 346 CURVE SMOOTH",
"665 441 OFFCURVE",
"652 531 OFFCURVE",
"611 595 CURVE SMOOTH",
"573 661 OFFCURVE",
"504 705 OFFCURVE",
"403 705 CURVE SMOOTH",
"304 705 OFFCURVE",
"225 666 OFFCURVE",
"167 603 CURVE SMOOTH",
"109 537 OFFCURVE",
"74 448 OFFCURVE",
"60 354 CURVE SMOOTH",
"47 257 OFFCURVE",
"59 168 OFFCURVE",
"100 104 CURVE SMOOTH",
"138 38 OFFCURVE",
"207 -5 OFFCURVE",
"309 -5 CURVE SMOOTH"
);
},
{
closed = 1;
nodes = (
"475 633 OFFCURVE",
"527 602 OFFCURVE",
"558 552 CURVE SMOOTH",
"586 499 OFFCURVE",
"592 428 OFFCURVE",
"580 354 CURVE SMOOTH",
"570 277 OFFCURVE",
"543 205 OFFCURVE",
"499 154 CURVE SMOOTH",
"455 101 OFFCURVE",
"392 66 OFFCURVE",
"313 66 CURVE SMOOTH",
"235 66 OFFCURVE",
"183 97 OFFCURVE",
"153 148 CURVE SMOOTH",
"125 201 OFFCURVE",
"120 273 OFFCURVE",
"130 346 CURVE SMOOTH",
"141 423 OFFCURVE",
"168 495 OFFCURVE",
"212 546 CURVE SMOOTH",
"256 598 OFFCURVE",
"318 633 OFFCURVE",
"399 633 CURVE SMOOTH"
);
}
);
width = 683;
}
);
note = zero;
unicode = 0030;
},
{
glyphname = one;
lastChange = "2018-04-19 23:46:40 +0000";
layers = (
{
layerId = "D890DE10-725C-4894-AB83-5F7B73FFD58A";
paths = (
{
closed = 1;
nodes = (
"374 60 LINE",
"279 60 LINE",
"369 700 LINE",
"256 700 LINE",
"87 547 LINE",
"129 497 LINE",
"291 639 LINE",
"209 60 LINE",
"91 60 LINE",
"83 0 LINE",
"366 0 LINE"
);
}
);
width = 446;
}
);
note = one;
unicode = 0031;
},
{
glyphname = two;
lastChange = "2018-04-19 23:46:40 +0000";
layers = (
{
layerId = "D890DE10-725C-4894-AB83-5F7B73FFD58A";
paths = (
{
closed = 1;
nodes = (
"499 70 LINE",
"109 68 LINE",
"115 107 OFFCURVE",
"138 116 OFFCURVE",
"214 161 CURVE",
"233 174 OFFCURVE",
"254 187 OFFCURVE",
"277 199 CURVE SMOOTH",
"341 239 OFFCURVE",
"406 278 OFFCURVE",
"458 321 CURVE SMOOTH",
"508 367 OFFCURVE",
"544 415 OFFCURVE",
"552 469 CURVE",
"560 534 OFFCURVE",
"542 591 OFFCURVE",
"504 633 CURVE SMOOTH",
"468 678 OFFCURVE",
"415 704 OFFCURVE",
"351 707 CURVE SMOOTH",
"270 710 OFFCURVE",
"205 692 OFFCURVE",
"155 655 CURVE SMOOTH",
"120 622 OFFCURVE",
"95 580 OFFCURVE",
"85 532 CURVE",
"156 528 LINE",
"163 557 OFFCURVE",
"179 582 OFFCURVE",
"201 598 CURVE",
"235 627 OFFCURVE",
"283 639 OFFCURVE",
"344 636 CURVE SMOOTH",
"387 633 OFFCURVE",
"425 616 OFFCURVE",
"452 589 CURVE SMOOTH",
"474 558 OFFCURVE",
"486 518 OFFCURVE",
"481 475 CURVE SMOOTH",
"471 390 OFFCURVE",
"342 315 OFFCURVE",
"241 256 CURVE SMOOTH",
"171 212 OFFCURVE",
"125 187 OFFCURVE",
"92 162 CURVE SMOOTH",
"61 132 OFFCURVE",
"47 111 OFFCURVE",
"39 84 CURVE",
"28 0 LINE",
"489 0 LINE"
);
}
);
width = 569;
}
);
note = two;
unicode = 0032;
},
{
glyphname = three;
lastChange = "2018-04-19 23:46:40 +0000";
layers = (
{
layerId = "D890DE10-725C-4894-AB83-5F7B73FFD58A";
paths = (
{
closed = 1;
nodes = (
"301 0 OFFCURVE",
"361 22 OFFCURVE",
"408 57 CURVE SMOOTH",
"452 95 OFFCURVE",
"484 145 OFFCURVE",
"492 198 CURVE SMOOTH",
"501 263 OFFCURVE",
"471 319 OFFCURVE",
"414 366 CURVE",
"479 414 OFFCURVE",
"516 463 OFFCURVE",
"523 517 CURVE SMOOTH",
"531 571 OFFCURVE",
"515 620 OFFCURVE",
"480 652 CURVE SMOOTH",
"448 688 OFFCURVE",
"398 710 OFFCURVE",
"339 710 CURVE SMOOTH",
"314 710 OFFCURVE",
"288 706 OFFCURVE",
"261 697 CURVE SMOOTH",
"211 678 OFFCURVE",
"168 644 OFFCURVE",
"139 605 CURVE",
"133 592 OFFCURVE",
"125 576 OFFCURVE",
"118 560 CURVE",
"185 535 LINE",
"196 563 OFFCURVE",
"205 580 OFFCURVE",
"235 601 CURVE SMOOTH",
"262 627 OFFCURVE",
"299 640 OFFCURVE",
"336 640 CURVE SMOOTH",
"371 640 OFFCURVE",
"403 627 OFFCURVE",
"426 608 CURVE SMOOTH",
"446 585 OFFCURVE",
"456 556 OFFCURVE",
"452 525 CURVE SMOOTH",
"447 490 OFFCURVE",
"426 459 OFFCURVE",
"398 438 CURVE SMOOTH",
"371 413 OFFCURVE",
"334 398 OFFCURVE",
"297 398 CURVE SMOOTH",
"228 398 LINE",
"219 337 LINE",
"286 337 LINE SMOOTH",
"327 337 OFFCURVE",
"364 322 OFFCURVE",
"390 300 CURVE SMOOTH",
"413 273 OFFCURVE",
"425 240 OFFCURVE",
"421 206 CURVE SMOOTH",
"415 167 OFFCURVE",
"391 133 OFFCURVE",
"359 111 CURVE SMOOTH",
"329 85 OFFCURVE",
"286 70 OFFCURVE",
"243 70 CURVE SMOOTH",
"210 70 OFFCURVE",
"180 81 OFFCURVE",
"154 97 CURVE SMOOTH",
"131 115 OFFCURVE",
"112 138 OFFCURVE",
"103 165 CURVE",
"31 149 LINE",
"35 140 OFFCURVE",
"48 112 OFFCURVE",
"53 108 CURVE",
"83 43 OFFCURVE",
"153 0 OFFCURVE",
"240 0 CURVE SMOOTH"
);
}
);
width = 544;
}
);
note = three;
unicode = 0033;
},
{
glyphname = four;
lastChange = "2018-04-19 23:46:40 +0000";
layers = (
{
layerId = "D890DE10-725C-4894-AB83-5F7B73FFD58A";
paths = (
{
closed = 1;
nodes = (
"555 254 LINE",
"448 254 LINE",
"511 702 LINE",
"384 702 LINE",
"47 262 LINE",
"38 194 LINE",
"369 194 LINE",
"342 0 LINE",
"413 0 LINE",
"440 194 LINE",
"547 194 LINE"
);
},
{
closed = 1;
nodes = (
"119 254 LINE",
"409 631 LINE",
"430 631 LINE",
"377 254 LINE"
);
}
);
width = 600;
}
);
note = four;
unicode = 0034;
},
{
glyphname = five;
lastChange = "2018-04-19 23:46:40 +0000";
layers = (
{
layerId = "D890DE10-725C-4894-AB83-5F7B73FFD58A";
paths = (
{
closed = 1;
nodes = (
"286 -6 OFFCURVE",
"348 20 OFFCURVE",
"396 60 CURVE SMOOTH",
"443 104 OFFCURVE",
"475 161 OFFCURVE",
"484 223 CURVE SMOOTH",
"493 288 OFFCURVE",
"479 345 OFFCURVE",
"447 386 CURVE SMOOTH",
"415 434 OFFCURVE",
"363 460 OFFCURVE",
"300 460 CURVE SMOOTH",
"270 460 OFFCURVE",
"239 455 OFFCURVE",
"189 434 CURVE",
"234 633 LINE",
"523 633 LINE",
"532 700 LINE",
"176 700 LINE",
"105 367 LINE",
"172 340 LINE",
"207 371 OFFCURVE",
"250 391 OFFCURVE",
"297 391 CURVE SMOOTH",
"339 391 OFFCURVE",
"374 375 OFFCURVE",
"397 347 CURVE SMOOTH",
"417 316 OFFCURVE",
"424 274 OFFCURVE",
"418 231 CURVE SMOOTH",
"412 184 OFFCURVE",
"387 143 OFFCURVE",
"352 115 CURVE SMOOTH",
"318 83 OFFCURVE",
"273 63 OFFCURVE",
"227 63 CURVE SMOOTH",
"158 63 OFFCURVE",
"119 83 OFFCURVE",
"77 134 CURVE",
"22 86 LINE",
"74 23 OFFCURVE",
"130 -6 OFFCURVE",
"224 -6 CURVE SMOOTH"
);
}
);
width = 533;
}
);
note = five;
unicode = 0035;
},
{
glyphname = six;
lastChange = "2018-04-19 23:46:40 +0000";
layers = (
{
layerId = "D890DE10-725C-4894-AB83-5F7B73FFD58A";
paths = (
{
closed = 1;
nodes = (
"311 -5 OFFCURVE",
"373 20 OFFCURVE",
"423 60 CURVE SMOOTH",
"471 104 OFFCURVE",
"504 161 OFFCURVE",
"513 223 CURVE SMOOTH",
"522 289 OFFCURVE",
"503 348 OFFCURVE",
"465 388 CURVE SMOOTH",
"429 432 OFFCURVE",
"374 458 OFFCURVE",
"307 458 CURVE SMOOTH",
"274 458 OFFCURVE",
"235 449 OFFCURVE",
"189 418 CURVE",
"297 547 OFFCURVE",
"394 638 OFFCURVE",
"463 699 CURVE",
"364 701 LINE",
"351 688 OFFCURVE",
"337 674 OFFCURVE",
"322 662 CURVE SMOOTH",
"308 646 OFFCURVE",
"292 631 OFFCURVE",
"276 616 CURVE SMOOTH",
"131 459 OFFCURVE",
"58 340 OFFCURVE",
"42 231 CURVE SMOOTH",
"33 165 OFFCURVE",
"52 106 OFFCURVE",
"90 66 CURVE SMOOTH",
"126 22 OFFCURVE",
"181 -5 OFFCURVE",
"247 -5 CURVE SMOOTH"
);
},
{
closed = 1;
nodes = (
"349 388 OFFCURVE",
"388 371 OFFCURVE",
"414 344 CURVE SMOOTH",
"438 313 OFFCURVE",
"450 273 OFFCURVE",
"444 231 CURVE SMOOTH",
"438 185 OFFCURVE",
"412 143 OFFCURVE",
"378 116 CURVE SMOOTH",
"346 85 OFFCURVE",
"300 65 OFFCURVE",
"254 65 CURVE SMOOTH",
"210 65 OFFCURVE",
"172 83 OFFCURVE",
"145 110 CURVE SMOOTH",
"120 141 OFFCURVE",
"108 181 OFFCURVE",
"114 223 CURVE SMOOTH",
"121 269 OFFCURVE",
"147 311 OFFCURVE",
"182 338 CURVE SMOOTH",
"215 369 OFFCURVE",
"259 388 OFFCURVE",
"305 388 CURVE SMOOTH"
);
}
);
width = 562;
}
);
note = six;
unicode = 0036;
},
{
glyphname = seven;
lastChange = "2018-04-19 23:46:40 +0000";
layers = (
{
layerId = "D890DE10-725C-4894-AB83-5F7B73FFD58A";
paths = (
{
closed = 1;
nodes = (
"109 702 LINE",
"99 631 LINE",
"400 631 LINE",
"110 0 LINE",
"188 0 LINE",
"481 640 LINE",
"490 702 LINE"
);
}
);
width = 471;
}
);
note = seven;
unicode = 0037;
},
{
glyphname = eight;
lastChange = "2018-04-19 23:46:40 +0000";
layers = (
{
layerId = "D890DE10-725C-4894-AB83-5F7B73FFD58A";
paths = (
{
closed = 1;
nodes = (
"310 -5 OFFCURVE",
"370 18 OFFCURVE",
"418 53 CURVE SMOOTH",
"463 92 OFFCURVE",
"494 143 OFFCURVE",
"501 197 CURVE SMOOTH",
"511 266 OFFCURVE",
"477 325 OFFCURVE",
"413 373 CURVE",
"476 420 OFFCURVE",
"510 468 OFFCURVE",
"516 517 CURVE SMOOTH",
"524 570 OFFCURVE",
"507 617 OFFCURVE",
"475 648 CURVE SMOOTH",
"444 683 OFFCURVE",
"395 705 OFFCURVE",
"338 705 CURVE SMOOTH",
"283 705 OFFCURVE",
"231 685 OFFCURVE",
"189 654 CURVE SMOOTH",
"149 619 OFFCURVE",
"121 574 OFFCURVE",
"115 525 CURVE SMOOTH",
"107 471 OFFCURVE",
"131 421 OFFCURVE",
"177 377 CURVE",
"97 328 OFFCURVE",
"48 270 OFFCURVE",
"39 205 CURVE SMOOTH",
"30 147 OFFCURVE",
"48 94 OFFCURVE",
"85 59 CURVE SMOOTH",
"120 20 OFFCURVE",
"175 -5 OFFCURVE",
"244 -5 CURVE SMOOTH"
);
},
{
closed = 1;
nodes = (
"368 636 OFFCURVE",
"399 629 OFFCURVE",
"422 612 CURVE SMOOTH",
"442 590 OFFCURVE",
"453 563 OFFCURVE",
"448 525 CURVE SMOOTH",
"442 483 OFFCURVE",
"420 453 OFFCURVE",
"392 435 CURVE SMOOTH",
"367 415 OFFCURVE",
"332 405 OFFCURVE",
"295 405 CURVE SMOOTH",
"262 405 OFFCURVE",
"231 413 OFFCURVE",
"209 431 CURVE SMOOTH",
"189 451 OFFCURVE",
"178 479 OFFCURVE",
"183 517 CURVE SMOOTH",
"189 559 OFFCURVE",
"211 588 OFFCURVE",
"238 606 CURVE SMOOTH",
"264 627 OFFCURVE",
"298 636 OFFCURVE",
"334 636 CURVE SMOOTH"
);
},
{
closed = 1;
nodes = (
"334 336 OFFCURVE",
"372 326 OFFCURVE",
"400 305 CURVE SMOOTH",
"426 282 OFFCURVE",
"438 248 OFFCURVE",
"432 205 CURVE SMOOTH",
"425 156 OFFCURVE",
"401 122 OFFCURVE",
"366 100 CURVE SMOOTH",
"334 76 OFFCURVE",
"292 64 OFFCURVE",
"248 64 CURVE SMOOTH",
"206 64 OFFCURVE",
"168 74 OFFCURVE",
"141 96 CURVE SMOOTH",
"116 120 OFFCURVE",
"103 152 OFFCURVE",
"109 197 CURVE SMOOTH",
"116 244 OFFCURVE",
"141 278 OFFCURVE",
"174 300 CURVE SMOOTH",
"205 324 OFFCURVE",
"248 336 OFFCURVE",
"292 336 CURVE SMOOTH"
);
}
);
width = 553;
}
);
note = eight;
unicode = 0038;
},
{
glyphname = fraction;
lastChange = "2018-04-19 23:46:45 +0000";
layers = (
{
layerId = "D890DE10-725C-4894-AB83-5F7B73FFD58A";
paths = (
{
closed = 1;
nodes = (
"509 700 LINE",
"9 -6 LINE",
"76 -6 LINE",
"577 700 LINE"
);
}
);
width = 559;
}
);
note = fraction;
unicode = 2044;
},
{
glyphname = asterisk;
lastChange = "2018-04-19 23:47:26 +0000";
layers = (
{
layerId = "D890DE10-725C-4894-AB83-5F7B73FFD58A";
paths = (
{
closed = 1;
nodes = (
"266 548 LINE",
"378 606 LINE",
"362 640 LINE",
"252 581 LINE",
"269 700 LINE",
"229 700 LINE",
"212 578 LINE",
"111 634 LINE",
"89 598 LINE",
"186 545 LINE",
"77 488 LINE",
"93 455 LINE",
"203 515 LINE",
"186 395 LINE",
"226 395 LINE",
"244 516 LINE",
"343 461 LINE",
"366 496 LINE"
);
}
);
width = 371;
}
);
note = asterisk;
unicode = 002A;
},
{
glyphname = backslash;
lastChange = "2018-04-19 23:47:26 +0000";
layers = (
{
layerId = "D890DE10-725C-4894-AB83-5F7B73FFD58A";
paths = (
{
closed = 1;
nodes = (
"167 700 LINE",
"103 700 LINE",
"355 -104 LINE",
"418 -104 LINE"
);
}
);
width = 508;
}
);
note = backslash;
unicode = 005C;
},
{
glyphname = periodcentered;
lastChange = "2018-04-19 23:47:26 +0000";
layers = (
{
layerId = "D890DE10-725C-4894-AB83-5F7B73FFD58A";
paths = (
{
closed = 1;
nodes = (
"115 267 OFFCURVE",
"137 286 OFFCURVE",
"140 309 CURVE SMOOTH",
"144 336 OFFCURVE",
"125 359 OFFCURVE",
"98 359 CURVE SMOOTH",
"75 359 OFFCURVE",
"53 340 OFFCURVE",
"49 317 CURVE SMOOTH",
"45 290 OFFCURVE",
"65 267 OFFCURVE",
"91 267 CURVE SMOOTH"
);
}
);
width = 172;
}
);
note = periodcentered;
unicode = 00B7;
},
{
glyphname = bullet;
lastChange = "2018-04-19 23:47:26 +0000";
layers = (
{
layerId = "D890DE10-725C-4894-AB83-5F7B73FFD58A";
paths = (
{
closed = 1;
nodes = (
"136 222 OFFCURVE",
"156 230 OFFCURVE",
"173 242 CURVE SMOOTH",
"187 257 OFFCURVE",
"197 275 OFFCURVE",
"200 295 CURVE SMOOTH",
"203 318 OFFCURVE",
"196 339 OFFCURVE",
"184 351 CURVE",
"173 366 OFFCURVE",
"154 376 OFFCURVE",
"131 376 CURVE SMOOTH",
"111 376 OFFCURVE",
"91 368 OFFCURVE",
"76 357 CURVE SMOOTH",
"61 341 OFFCURVE",
"50 322 OFFCURVE",
"47 303 CURVE SMOOTH",
"44 279 OFFCURVE",
"51 259 OFFCURVE",
"65 248 CURVE",
"74 233 OFFCURVE",
"93 222 OFFCURVE",
"116 222 CURVE SMOOTH"
);
}
);
width = 234;
}
);
note = bullet;
unicode = 2022;
},
{
glyphname = colon;
lastChange = "2018-04-19 23:47:26 +0000";
layers = (
{
layerId = "D890DE10-725C-4894-AB83-5F7B73FFD58A";
paths = (
{
closed = 1;
nodes = (
"130 365 OFFCURVE",
"152 384 OFFCURVE",
"155 407 CURVE SMOOTH",
"159 434 OFFCURVE",
"139 457 OFFCURVE",
"113 457 CURVE SMOOTH",
"89 457 OFFCURVE",
"67 438 OFFCURVE",
"64 415 CURVE SMOOTH",
"60 388 OFFCURVE",
"80 365 OFFCURVE",
"106 365 CURVE SMOOTH"
);
},
{
closed = 1;
nodes = (
"77 -1 OFFCURVE",
"99 18 OFFCURVE",
"103 41 CURVE SMOOTH",
"106 68 OFFCURVE",
"87 91 OFFCURVE",
"60 91 CURVE SMOOTH",
"37 91 OFFCURVE",
"15 72 OFFCURVE",
"12 49 CURVE SMOOTH",
"8 22 OFFCURVE",
"27 -1 OFFCURVE",
"54 -1 CURVE SMOOTH"
);
}
);
width = 173;
}
);
note = colon;
unicode = 003A;
},
{
glyphname = comma;
lastChange = "2018-04-19 23:47:34 +0000";
layers = (
{
layerId = "D890DE10-725C-4894-AB83-5F7B73FFD58A";
paths = (
{
closed = 1;
nodes = (
"-12 22 OFFCURVE",
"11 -5 OFFCURVE",
"44 -2 CURVE",
"26 -50 OFFCURVE",
"6 -90 OFFCURVE",
"-2 -104 CURVE",
"21 -118 LINE",
"34 -95 OFFCURVE",
"98 13 OFFCURVE",
"103 44 CURVE",
"110 75 OFFCURVE",
"86 108 OFFCURVE",
"54 108 CURVE SMOOTH",
"23 108 OFFCURVE",
"-3 84 OFFCURVE",
"-7 56 CURVE SMOOTH"
);
}
);
width = 182;
}
);
note = comma;
unicode = 002C;
},
{
glyphname = ellipsis;
lastChange = "2018-04-19 23:47:39 +0000";
layers = (
{
layerId = "D890DE10-725C-4894-AB83-5F7B73FFD58A";
paths = (
{
closed = 1;
nodes = (
"77 -4 OFFCURVE",
"99 15 OFFCURVE",
"102 38 CURVE SMOOTH",
"106 65 OFFCURVE",
"87 88 OFFCURVE",
"60 88 CURVE SMOOTH",
"37 88 OFFCURVE",
"14 69 OFFCURVE",
"11 46 CURVE SMOOTH",
"7 19 OFFCURVE",
"27 -4 OFFCURVE",
"53 -4 CURVE SMOOTH"
);
},
{
closed = 1;
nodes = (
"282 -4 OFFCURVE",
"304 15 OFFCURVE",
"307 38 CURVE SMOOTH",
"311 65 OFFCURVE",
"292 88 OFFCURVE",
"265 88 CURVE SMOOTH",
"242 88 OFFCURVE",
"219 69 OFFCURVE",
"216 46 CURVE SMOOTH",
"212 19 OFFCURVE",
"232 -4 OFFCURVE",
"258 -4 CURVE SMOOTH"
);
},
{
closed = 1;
nodes = (
"481 -4 OFFCURVE",
"503 15 OFFCURVE",
"506 38 CURVE SMOOTH",
"510 65 OFFCURVE",
"491 88 OFFCURVE",
"464 88 CURVE SMOOTH",
"441 88 OFFCURVE",
"418 69 OFFCURVE",
"415 46 CURVE SMOOTH",
"411 19 OFFCURVE",
"431 -4 OFFCURVE",
"457 -4 CURVE SMOOTH"
);
}
);
width = 576;
}
);
note = ellipsis;
unicode = 2026;
},
{
glyphname = exclam;
lastChange = "2018-04-19 23:47:46 +0000";
layers = (
{
layerId = "D890DE10-725C-4894-AB83-5F7B73FFD58A";
paths = (
{
closed = 1;
nodes = (
"126 700 LINE",
"57 174 LINE",
"117 174 LINE",
"196 700 LINE"
);
},
{
closed = 1;
nodes = (
"88 -2 OFFCURVE",
"110 17 OFFCURVE",
"113 40 CURVE SMOOTH",
"117 67 OFFCURVE",
"98 90 OFFCURVE",
"71 90 CURVE SMOOTH",
"48 90 OFFCURVE",
"26 71 OFFCURVE",
"22 48 CURVE SMOOTH",
"19 21 OFFCURVE",
"38 -2 OFFCURVE",
"65 -2 CURVE SMOOTH"
);
}
);
width = 193;
}
);
note = exclam;
unicode = 0021;
},
{
glyphname = exclamdown;
lastChange = "2018-04-19 23:47:52 +0000";
layers = (
{
layerId = "D890DE10-725C-4894-AB83-5F7B73FFD58A";
paths = (
{
closed = 1;
nodes = (
"74 -148 LINE",
"143 378 LINE",
"83 378 LINE",
"4 -148 LINE"
);
},
{
closed = 1;
nodes = (
"112 554 OFFCURVE",
"90 535 OFFCURVE",
"87 512 CURVE SMOOTH",
"83 485 OFFCURVE",
"102 462 OFFCURVE",
"129 462 CURVE SMOOTH",
"152 462 OFFCURVE",
"174 481 OFFCURVE",
"178 504 CURVE SMOOTH",
"183 531 OFFCURVE",
"162 554 OFFCURVE",
"135 554 CURVE SMOOTH"
);
}
);
width = 192;
}
);
note = exclamdown;
unicode = 00A1;
},
{
glyphname = numbersign;
lastChange = "2018-04-19 23:47:59 +0000";
layers = (
{
layerId = "D890DE10-725C-4894-AB83-5F7B73FFD58A";
paths = (
{
closed = 1;
nodes = (
"631 506 LINE",
"709 697 LINE",
"640 697 LINE",
"561 507 LINE",
"368 507 LINE",
"445 697 LINE",
"378 697 LINE",
"301 507 LINE",
"136 508 LINE",
"127 443 LINE",
"274 443 LINE",
"199 259 LINE",
"41 259 LINE",
"32 195 LINE",
"172 195 LINE",
"92 1 LINE",
"160 1 LINE",
"240 195 LINE",
"431 194 LINE",
"349 1 LINE",
"424 1 LINE",
"503 194 LINE",
"671 194 LINE",
"680 257 LINE",
"529 257 LINE",
"604 442 LINE",
"765 442 LINE",
"775 506 LINE"
);
},
{
closed = 1;
nodes = (
"458 258 LINE",
"265 258 LINE",
"341 443 LINE",
"534 442 LINE"
);
}
);
width = 779;
}
);
note = numbersign;
unicode = 0023;
},
{
glyphname = period;
lastChange = "2018-04-19 23:48:05 +0000";
layers = (
{
layerId = "D890DE10-725C-4894-AB83-5F7B73FFD58A";
paths = (
{
closed = 1;
nodes = (
"57 -5 OFFCURVE",
"79 14 OFFCURVE",
"82 37 CURVE SMOOTH",
"86 64 OFFCURVE",
"66 87 OFFCURVE",
"40 87 CURVE SMOOTH",
"16 87 OFFCURVE",
"-6 68 OFFCURVE",
"-9 45 CURVE SMOOTH",
"-13 18 OFFCURVE",
"7 -5 OFFCURVE",
"33 -5 CURVE SMOOTH"
);
}
);
width = 162;
}
);
note = period;
unicode = 002E;
},
{
glyphname = question;
lastChange = "2018-04-19 23:48:11 +0000";
layers = (
{
layerId = "D890DE10-725C-4894-AB83-5F7B73FFD58A";
paths = (
{
closed = 1;
nodes = (
"503 374 OFFCURVE",
"537 421 OFFCURVE",
"549 487 CURVE SMOOTH",
"559 550 OFFCURVE",
"542 604 OFFCURVE",
"507 641 CURVE SMOOTH",
"472 682 OFFCURVE",
"417 705 OFFCURVE",
"348 708 CURVE SMOOTH",
"205 713 OFFCURVE",
"108 651 OFFCURVE",
"84 530 CURVE",
"151 526 LINE",
"156 548 OFFCURVE",
"165 567 OFFCURVE",
"179 582 CURVE SMOOTH",
"204 614 OFFCURVE",
"241 636 OFFCURVE",
"283 644 CURVE SMOOTH",
"322 653 OFFCURVE",
"362 652 OFFCURVE",
"402 639 CURVE SMOOTH",
"438 626 OFFCURVE",
"467 601 OFFCURVE",
"482 565 CURVE SMOOTH",
"495 525 OFFCURVE",
"483 471 OFFCURVE",
"468 442 CURVE SMOOTH",
"453 408 OFFCURVE",
"432 385 OFFCURVE",
"405 371 CURVE SMOOTH",
"370 348 OFFCURVE",
"326 337 OFFCURVE",
"293 322 CURVE SMOOTH",
"273 310 OFFCURVE",
"255 298 OFFCURVE",
"241 279 CURVE SMOOTH",
"227 256 OFFCURVE",
"220 234 OFFCURVE",
"212 187 CURVE",
"277 183 LINE",
"280 204 OFFCURVE",
"284 220 OFFCURVE",
"289 230 CURVE",
"296 256 OFFCURVE",
"317 268 OFFCURVE",
"377 291 CURVE",
"401 303 OFFCURVE",
"427 316 OFFCURVE",
"454 333 CURVE SMOOTH"
);
},
{
closed = 1;
nodes = (
"244 -8 OFFCURVE",
"266 11 OFFCURVE",
"270 34 CURVE SMOOTH",
"273 61 OFFCURVE",
"254 84 OFFCURVE",
"227 84 CURVE SMOOTH",
"204 84 OFFCURVE",
"182 65 OFFCURVE",
"179 42 CURVE SMOOTH",
"175 15 OFFCURVE",
"194 -8 OFFCURVE",
"221 -8 CURVE SMOOTH"
);
}
);
width = 561;
}
);
note = question;
unicode = 003F;
},
{
glyphname = quotedbl;
lastChange = "2018-04-19 23:48:29 +0000";
layers = (
{
layerId = "D890DE10-725C-4894-AB83-5F7B73FFD58A";
paths = (
{
closed = 1;
nodes = (
"236 700 LINE",
"208 463 LINE",
"263 463 LINE",
"301 700 LINE"
);
},
{
closed = 1;
nodes = (
"83 700 LINE",
"55 463 LINE",
"110 463 LINE",
"148 700 LINE"
);
}
);
width = 278;
}
);
note = quotedbl;
unicode = 0022;
},
{
glyphname = quotesingle;
lastChange = "2018-04-19 23:48:34 +0000";
layers = (
{
layerId = "D890DE10-725C-4894-AB83-5F7B73FFD58A";
paths = (
{
closed = 1;
nodes = (
"83 700 LINE",
"55 463 LINE",
"110 463 LINE",
"148 700 LINE"
);
}
);
width = 125;
}
);
note = quotesingle;
unicode = 0027;
},
{
glyphname = semicolon;
lastChange = "2018-04-19 23:48:41 +0000";
layers = (
{
layerId = "D890DE10-725C-4894-AB83-5F7B73FFD58A";
paths = (
{
closed = 1;
nodes = (
"110 365 OFFCURVE",
"132 384 OFFCURVE",
"135 407 CURVE SMOOTH",
"139 434 OFFCURVE",
"119 457 OFFCURVE",
"93 457 CURVE SMOOTH",
"69 457 OFFCURVE",
"47 438 OFFCURVE",
"44 415 CURVE SMOOTH",
"40 388 OFFCURVE",
"60 365 OFFCURVE",
"86 365 CURVE SMOOTH"
);
},
{
closed = 1;
nodes = (
"-11 20 OFFCURVE",
"8 -3 OFFCURVE",
"35 0 CURVE",
"20 -39 OFFCURVE",
"4 -72 OFFCURVE",
"-3 -84 CURVE",
"16 -96 LINE",
"27 -77 OFFCURVE",
"78 12 OFFCURVE",
"83 37 CURVE",
"90 63 OFFCURVE",
"69 90 OFFCURVE",
"42 90 CURVE SMOOTH",
"18 90 OFFCURVE",
"-4 71 OFFCURVE",
"-8 48 CURVE SMOOTH"
);
}
);
width = 163;
}
);
note = semicolon;
unicode = 003B;
},
{
glyphname = slash;
lastChange = "2018-04-19 23:48:48 +0000";
layers = (
{
layerId = "D890DE10-725C-4894-AB83-5F7B73FFD58A";
paths = (
{
closed = 1;
nodes = (
"467 700 LINE",
"-10 -104 LINE",
"55 -104 LINE",
"533 700 LINE"
);
}
);
width = 510;
}
);
note = slash;
unicode = 002F;
},
{
glyphname = underscore;
lastChange = "2018-04-19 23:48:54 +0000";
layers = (
{
layerId = "D890DE10-725C-4894-AB83-5F7B73FFD58A";
paths = (
{
closed = 1;
nodes = (
"490 -73 LINE",
"-5 -73 LINE",
"-12 -123 LINE",
"483 -123 LINE"
);
}
);
width = 575;
}
);
note = underscore;
unicode = 005F;
},
{
glyphname = braceleft;
lastChange = "2018-04-19 23:49:01 +0000";
layers = (
{
layerId = "D890DE10-725C-4894-AB83-5F7B73FFD58A";
paths = (
{
closed = 1;
nodes = (
"223 -141 LINE",
"230 -93 LINE",
"160 -93 LINE",
"120 -88 OFFCURVE",
"133 -37 OFFCURVE",
"140 13 CURVE SMOOTH",
"163 179 OFFCURVE",
"202 249 OFFCURVE",
"115 284 CURVE",
"214 323 OFFCURVE",
"191 381 OFFCURVE",
"215 550 CURVE SMOOTH",
"223 604 OFFCURVE",
"228 659 OFFCURVE",
"269 664 CURVE",
"336 664 LINE",
"343 712 LINE",
"272 712 LINE SMOOTH",
"246 712 OFFCURVE",
"236 709 OFFCURVE",
"209 690 CURVE",
"178 659 OFFCURVE",
"158 616 OFFCURVE",
"150 558 CURVE SMOOTH",
"118 331 OFFCURVE",
"126 309 OFFCURVE",
"58 308 CURVE",
"55 263 LINE",
"121 262 OFFCURVE",
"106 244 OFFCURVE",
"75 21 CURVE SMOOTH",
"66 -41 OFFCURVE",
"76 -86 OFFCURVE",
"101 -113 CURVE",
"120 -136 OFFCURVE",
"130 -141 OFFCURVE",
"156 -141 CURVE SMOOTH"
);
}
);
width = 298;
}
);
note = braceleft;
unicode = 007B;
},
{
glyphname = bracketleft;
lastChange = "2018-04-19 23:49:13 +0000";
layers = (
{
layerId = "D890DE10-725C-4894-AB83-5F7B73FFD58A";
paths = (
{
closed = 1;
nodes = (
"190 -85 LINE",
"66 -85 LINE",
"167 634 LINE",
"291 634 LINE",
"300 698 LINE",
"113 698 LINE",
"-6 -147 LINE",
"181 -147 LINE"
);
}
);
width = 277;
}
);
note = bracketleft;
unicode = 005B;
},
{
glyphname = bracketright;
lastChange = "2018-04-19 23:49:20 +0000";
layers = (
{
layerId = "D890DE10-725C-4894-AB83-5F7B73FFD58A";
paths = (
{
closed = 1;
nodes = (
"270 698 LINE",
"83 698 LINE",
"74 634 LINE",
"198 634 LINE",
"97 -85 LINE",
"-27 -85 LINE",
"-36 -147 LINE",
"151 -147 LINE"
);
}
);
width = 257;
}
);
note = bracketright;
unicode = 005D;
},
{
glyphname = parenleft;
lastChange = "2018-04-19 23:49:28 +0000";
layers = (
{
layerId = "D890DE10-725C-4894-AB83-5F7B73FFD58A";
paths = (
{
closed = 1;
nodes = (
"127 -2 OFFCURVE",
"97 142 OFFCURVE",
"120 311 CURVE SMOOTH",
"144 477 OFFCURVE",
"222 619 OFFCURVE",
"317 704 CURVE",
"245 706 LINE",
"151 614 OFFCURVE",
"84 492 OFFCURVE",
"60 319 CURVE SMOOTH",
"47 232 OFFCURVE",
"47 175 OFFCURVE",
"60 108 CURVE SMOOTH",
"70 41 OFFCURVE",
"94 -29 OFFCURVE",
"137 -89 CURVE",
"203 -91 LINE"
);
}
);
width = 273;
}
);
note = parenleft;
unicode = 0028;
},
{
glyphname = parenright;
lastChange = "2018-04-19 23:49:36 +0000";
layers = (
{
layerId = "D890DE10-725C-4894-AB83-5F7B73FFD58A";
paths = (
{
closed = 1;
nodes = (
"102 -31 OFFCURVE",
"144 37 OFFCURVE",
"175 100 CURVE SMOOTH",
"204 168 OFFCURVE",
"219 226 OFFCURVE",
"231 311 CURVE SMOOTH",
"256 488 OFFCURVE",
"222 612 OFFCURVE",
"154 704 CURVE",
"86 706 LINE",
"157 621 OFFCURVE",
"193 481 OFFCURVE",
"171 319 CURVE SMOOTH",
"146 146 OFFCURVE",
"73 0 OFFCURVE",
"-28 -89 CURVE",
"42 -91 LINE"
);
}
);
width = 272;
}
);
note = parenright;
unicode = 0029;
},
{
glyphname = emdash;
lastChange = "2018-04-19 23:50:10 +0000";
layers = (
{
layerId = "D890DE10-725C-4894-AB83-5F7B73FFD58A";
paths = (
{
closed = 1;
nodes = (
"958 335 LINE",
"52 335 LINE",
"42 265 LINE",
"948 265 LINE"
);
}
);
width = 986;
}
);
note = emdash;
unicode = 2014;
},
{
glyphname = endash;
lastChange = "2018-04-19 23:50:25 +0000";
layers = (
{
layerId = "D890DE10-725C-4894-AB83-5F7B73FFD58A";
paths = (
{
closed = 1;
nodes = (
"547 335 LINE",
"52 335 LINE",
"42 265 LINE",
"537 265 LINE"
);
}
);
width = 575;
}
);
note = endash;
unicode = 2013;
},
{
glyphname = hyphen;
lastChange = "2018-04-19 23:50:46 +0000";
layers = (
{
layerId = "D890DE10-725C-4894-AB83-5F7B73FFD58A";
paths = (
{
closed = 1;
nodes = (
"402 335 LINE",
"52 335 LINE",
"42 265 LINE",
"392 265 LINE"
);
}
);
width = 430;
}
);
note = hyphen;
unicode = 002D;
},
{
glyphname = guillemotleft;
lastChange = "2018-04-19 23:50:52 +0000";
layers = (
{
layerId = "D890DE10-725C-4894-AB83-5F7B73FFD58A";
paths = (
{
closed = 1;
nodes = (
"267 130 LINE",
"129 269 LINE",
"308 410 LINE",
"317 482 LINE",
"43 272 LINE",
"258 58 LINE"
);
},
{
closed = 1;
nodes = (
"486 130 LINE",
"348 269 LINE",
"527 410 LINE",
"536 482 LINE",
"262 272 LINE",
"477 58 LINE"
);
}
);
width = 525;
}
);
note = guillemotleft;
unicode = 00AB;
},
{
glyphname = guilsinglleft;
lastChange = "2018-04-19 23:51:05 +0000";
layers = (
{
layerId = "D890DE10-725C-4894-AB83-5F7B73FFD58A";
paths = (
{
closed = 1;
nodes = (
"280 131 LINE",
"129 269 LINE",
"320 410 LINE",
"329 482 LINE",
"43 272 LINE",
"270 58 LINE"
);
}
);
width = 318;
}
);
note = guilsinglleft;
unicode = 2039;
},
{
glyphname = quotedblbase;
lastChange = "2018-04-19 23:51:18 +0000";
layers = (
{
layerId = "D890DE10-725C-4894-AB83-5F7B73FFD58A";
paths = (
{
closed = 1;
nodes = (
"8 22 OFFCURVE",
"31 -5 OFFCURVE",
"64 -2 CURVE",
"46 -50 OFFCURVE",
"26 -90 OFFCURVE",
"18 -104 CURVE",
"41 -118 LINE",
"54 -95 OFFCURVE",
"118 13 OFFCURVE",
"123 44 CURVE",
"130 75 OFFCURVE",
"106 108 OFFCURVE",
"74 108 CURVE SMOOTH",
"43 108 OFFCURVE",
"17 84 OFFCURVE",
"13 56 CURVE SMOOTH"
);
},
{
closed = 1;
nodes = (
"171 22 OFFCURVE",
"194 -5 OFFCURVE",
"227 -2 CURVE",
"209 -50 OFFCURVE",
"189 -90 OFFCURVE",
"181 -104 CURVE",
"204 -118 LINE",
"217 -95 OFFCURVE",
"281 13 OFFCURVE",
"286 44 CURVE",
"293 75 OFFCURVE",
"269 108 OFFCURVE",
"237 108 CURVE SMOOTH",
"206 108 OFFCURVE",
"180 84 OFFCURVE",
"176 56 CURVE SMOOTH"
);
}
);
width = 355;
}
);
note = quotedblbase;
unicode = 201E;
},
{
glyphname = quotedblleft;
lastChange = "2018-04-19 23:51:32 +0000";
layers = (
{
layerId = "D890DE10-725C-4894-AB83-5F7B73FFD58A";
paths = (
{
closed = 1;
nodes = (
"370 562 OFFCURVE",
"347 589 OFFCURVE",
"314 586 CURVE",
"331 634 OFFCURVE",
"351 674 OFFCURVE",
"359 688 CURVE",
"336 702 LINE",
"323 679 OFFCURVE",
"260 571 OFFCURVE",
"254 540 CURVE",
"247 509 OFFCURVE",
"271 476 OFFCURVE",
"304 476 CURVE SMOOTH",
"334 476 OFFCURVE",
"361 500 OFFCURVE",
"365 528 CURVE SMOOTH"
);
},
{
closed = 1;
nodes = (
"207 562 OFFCURVE",
"184 589 OFFCURVE",
"151 586 CURVE",
"168 634 OFFCURVE",
"188 674 OFFCURVE",
"196 688 CURVE",
"173 702 LINE",
"160 679 OFFCURVE",
"97 571 OFFCURVE",
"91 540 CURVE",
"84 509 OFFCURVE",
"108 476 OFFCURVE",
"141 476 CURVE SMOOTH",
"171 476 OFFCURVE",
"198 500 OFFCURVE",
"202 528 CURVE SMOOTH"
);
}
);
width = 346;
}
);
note = quotedblleft;
unicode = 201C;
},
{
glyphname = quotedblright;
lastChange = "2018-04-19 23:51:39 +0000";
layers = (
{
layerId = "D890DE10-725C-4894-AB83-5F7B73FFD58A";
paths = (
{
closed = 1;
nodes = (
"71 614 OFFCURVE",
"94 587 OFFCURVE",
"127 590 CURVE",
"110 542 OFFCURVE",
"90 502 OFFCURVE",
"82 488 CURVE",
"104 474 LINE",
"117 497 OFFCURVE",
"181 605 OFFCURVE",
"186 636 CURVE",
"194 667 OFFCURVE",
"170 700 OFFCURVE",
"137 700 CURVE SMOOTH",
"107 700 OFFCURVE",
"80 676 OFFCURVE",
"76 648 CURVE SMOOTH"
);
},
{
closed = 1;
nodes = (
"234 614 OFFCURVE",
"257 587 OFFCURVE",
"290 590 CURVE",
"273 542 OFFCURVE",
"253 502 OFFCURVE",
"245 488 CURVE",
"267 474 LINE",
"280 497 OFFCURVE",
"344 605 OFFCURVE",
"349 636 CURVE",
"357 667 OFFCURVE",
"333 700 OFFCURVE",
"300 700 CURVE SMOOTH",
"270 700 OFFCURVE",
"243 676 OFFCURVE",
"239 648 CURVE SMOOTH"
);
}
);
width = 345;
}
);
note = quotedblright;
unicode = 201D;
},
{
glyphname = quoteleft;
lastChange = "2018-04-19 23:51:46 +0000";
layers = (
{
layerId = "D890DE10-725C-4894-AB83-5F7B73FFD58A";
paths = (
{
closed = 1;
nodes = (
"207 562 OFFCURVE",
"184 589 OFFCURVE",
"151 586 CURVE",
"168 634 OFFCURVE",
"188 674 OFFCURVE",
"196 688 CURVE",
"173 702 LINE",
"160 679 OFFCURVE",
"97 571 OFFCURVE",
"91 540 CURVE",
"84 509 OFFCURVE",
"108 476 OFFCURVE",
"141 476 CURVE SMOOTH",
"171 476 OFFCURVE",
"198 500 OFFCURVE",
"202 528 CURVE SMOOTH"
);
}
);
width = 183;
}
);
note = quoteleft;
unicode = 2018;
},
{
glyphname = quoteright;
lastChange = "2018-04-19 23:51:53 +0000";
layers = (
{
layerId = "D890DE10-725C-4894-AB83-5F7B73FFD58A";
paths = (
{
closed = 1;
nodes = (
"71 614 OFFCURVE",
"94 587 OFFCURVE",
"127 590 CURVE",
"110 542 OFFCURVE",
"90 502 OFFCURVE",
"82 488 CURVE",
"104 474 LINE",
"117 497 OFFCURVE",
"181 605 OFFCURVE",
"186 636 CURVE",
"194 667 OFFCURVE",
"170 700 OFFCURVE",
"137 700 CURVE SMOOTH",
"107 700 OFFCURVE",
"80 676 OFFCURVE",
"76 648 CURVE SMOOTH"
);
}
);
width = 182;
}
);
note = quoteright;
unicode = 2019;
},
{
glyphname = quotesinglbase;
lastChange = "2018-04-19 23:52:00 +0000";
layers = (
{
layerId = "D890DE10-725C-4894-AB83-5F7B73FFD58A";
paths = (
{
closed = 1;
nodes = (
"-11 27 OFFCURVE",
"11 0 OFFCURVE",
"44 3 CURVE",
"27 -45 OFFCURVE",
"7 -85 OFFCURVE",
"-1 -99 CURVE",
"22 -113 LINE",
"35 -90 OFFCURVE",
"98 18 OFFCURVE",
"104 49 CURVE",
"111 80 OFFCURVE",
"87 113 OFFCURVE",
"54 113 CURVE SMOOTH",
"24 113 OFFCURVE",
"-3 89 OFFCURVE",
"-7 61 CURVE SMOOTH"
);
}
);
width = 182;
}
);
note = quotesinglbase;
unicode = 201A;
},
{
glyphname = Euro;
lastChange = "2018-04-19 23:52:13 +0000";
layers = (
{
layerId = "D890DE10-725C-4894-AB83-5F7B73FFD58A";
paths = (
{
closed = 1;
nodes = (
"480 63 LINE",
"426 63 LINE SMOOTH",
"290 63 OFFCURVE",
"214 129 OFFCURVE",
"184 245 CURVE",
"427 247 LINE",
"434 294 LINE",
"181 292 LINE",
"180 319 OFFCURVE",
"182 333 OFFCURVE",
"183 346 CURVE SMOOTH",
"186 364 OFFCURVE",
"189 380 OFFCURVE",
"197 408 CURVE",
"450 410 LINE",
"457 456 LINE",
"214 454 LINE",
"278 569 OFFCURVE",
"377 637 OFFCURVE",
"510 637 CURVE SMOOTH",
"560 637 LINE",
"570 705 LINE",
"516 705 LINE SMOOTH",
"427 705 OFFCURVE",
"350 681 OFFCURVE",
"286 639 CURVE SMOOTH",
"224 594 OFFCURVE",
"176 533 OFFCURVE",
"145 458 CURVE",
"75 456 LINE",
"68 410 LINE",
"128 412 LINE",
"121 383 OFFCURVE",
"119 367 OFFCURVE",
"117 354 CURVE SMOOTH",
"115 337 OFFCURVE",
"113 324 OFFCURVE",
"112 296 CURVE",
"52 294 LINE",
"45 247 LINE",
"116 249 LINE",
"126 174 OFFCURVE",
"157 110 OFFCURVE",
"210 67 CURVE SMOOTH",
"259 22 OFFCURVE",
"329 -5 OFFCURVE",
"420 -5 CURVE SMOOTH",
"470 -5 LINE"
);
}
);
width = 551;
}
);
note = Euro;
unicode = 20AC;
},
{
glyphname = cent;
lastChange = "2018-04-19 23:52:13 +0000";
layers = (
{
layerId = "D890DE10-725C-4894-AB83-5F7B73FFD58A";
paths = (
{
closed = 1;
nodes = (
"364 93 OFFCURVE",
"414 114 OFFCURVE",
"452 149 CURVE",
"418 201 LINE",
"404 189 OFFCURVE",
"379 175 OFFCURVE",
"345 168 CURVE SMOOTH",
"314 160 OFFCURVE",
"275 155 OFFCURVE",
"229 162 CURVE SMOOTH",
"149 178 OFFCURVE",
"115 243 OFFCURVE",
"129 344 CURVE SMOOTH",
"144 447 OFFCURVE",
"200 516 OFFCURVE",
"287 530 CURVE SMOOTH",
"332 539 OFFCURVE",
"370 536 OFFCURVE",
"402 529 CURVE",
"430 520 OFFCURVE",
"451 507 OFFCURVE",
"463 495 CURVE",
"506 544 LINE",
"477 577 OFFCURVE",
"433 602 OFFCURVE",
"357 606 CURVE",
"368 672 LINE",
"314 672 LINE",
"305 604 LINE",
"272 599 LINE SMOOTH",
"159 580 OFFCURVE",
"79 491 OFFCURVE",
"59 352 CURVE SMOOTH",
"39 206 OFFCURVE",
"96 114 OFFCURVE",
"205 95 CURVE SMOOTH",
"232 90 LINE",
"224 30 LINE",
"278 30 LINE",
"288 89 LINE"
);
}
);
width = 511;
}
);
note = cent;
unicode = 00A2;
},
{
glyphname = currency;
lastChange = "2018-04-19 23:52:13 +0000";
layers = (
{
layerId = "D890DE10-725C-4894-AB83-5F7B73FFD58A";
paths = (
{
closed = 1;
nodes = (
"482 197 LINE",
"520 242 OFFCURVE",
"541 288 OFFCURVE",
"548 333 CURVE SMOOTH",
"555 383 OFFCURVE",
"544 428 OFFCURVE",
"519 475 CURVE",
"626 570 LINE",
"594 606 LINE",
"486 512 LINE",
"445 544 OFFCURVE",
"401 561 OFFCURVE",
"353 561 CURVE SMOOTH",
"309 561 OFFCURVE",
"261 546 OFFCURVE",
"211 514 CURVE",
"131 607 LINE",
"90 570 LINE",
"170 479 LINE",
"130 432 OFFCURVE",
"109 387 OFFCURVE",
"103 341 CURVE SMOOTH",
"96 292 OFFCURVE",
"106 246 OFFCURVE",
"131 201 CURVE",
"25 107 LINE",
"58 70 LINE",
"164 163 LINE",
"204 131 OFFCURVE",
"248 114 OFFCURVE",
"297 114 CURVE SMOOTH",
"342 114 OFFCURVE",
"391 129 OFFCURVE",
"441 162 CURVE",
"521 71 LINE",
"561 107 LINE"
);
},
{
closed = 1;
nodes = (
"395 500 OFFCURVE",
"433 484 OFFCURVE",
"460 456 CURVE SMOOTH",
"484 424 OFFCURVE",
"495 384 OFFCURVE",
"489 341 CURVE SMOOTH",
"482 294 OFFCURVE",
"458 253 OFFCURVE",
"423 225 CURVE SMOOTH",
"390 193 OFFCURVE",
"346 174 OFFCURVE",
"299 174 CURVE SMOOTH",
"256 174 OFFCURVE",
"218 191 OFFCURVE",
"191 219 CURVE SMOOTH",
"167 251 OFFCURVE",
"155 290 OFFCURVE",
"162 333 CURVE SMOOTH",
"168 380 OFFCURVE",
"193 422 OFFCURVE",
"228 450 CURVE SMOOTH",
"261 482 OFFCURVE",
"305 500 OFFCURVE",
"351 500 CURVE SMOOTH"
);
}
);
width = 626;
}
);
note = currency;
unicode = 00A4;
},
{
glyphname = dollar;
lastChange = "2018-04-19 23:52:13 +0000";
layers = (
{
components = (
{
name = S;
transform = "{1, 0, 0.1405, 1, -30, 3}";
}
);
layerId = "D890DE10-725C-4894-AB83-5F7B73FFD58A";
paths = (
{
closed = 1;
nodes = (
"435 744 LINE",
"370 744 LINE",
"259 -46 LINE",
"324 -46 LINE"
);
}
);
width = 598;
}
);
note = dollar;
unicode = 0024;
},
{
glyphname = sterling;
lastChange = "2018-04-19 23:52:13 +0000";
layers = (
{
layerId = "D890DE10-725C-4894-AB83-5F7B73FFD58A";
paths = (
{
closed = 1;
nodes = (
"311 622 OFFCURVE",
"343 631 OFFCURVE",
"381 634 CURVE SMOOTH",
"416 637 OFFCURVE",
"453 633 OFFCURVE",
"493 628 CURVE",
"498 693 LINE",
"453 700 OFFCURVE",
"407 701 OFFCURVE",
"364 697 CURVE SMOOTH",
"318 691 OFFCURVE",
"282 681 OFFCURVE",
"256 665 CURVE",
"211 635 OFFCURVE",
"180 595 OFFCURVE",
"166 547 CURVE",
"143 474 OFFCURVE",
"166 441 OFFCURVE",
"168 378 CURVE",
"86 376 LINE",
"78 322 LINE",
"161 324 LINE",
"142 245 OFFCURVE",
"102 161 OFFCURVE",
"19 66 CURVE",
"10 -2 LINE",
"397 -2 LINE",
"406 56 LINE",
"82 56 LINE",
"84 51 LINE",
"100 75 OFFCURVE",
"116 97 OFFCURVE",
"130 116 CURVE SMOOTH",
"144 136 OFFCURVE",
"157 156 OFFCURVE",
"171 175 CURVE SMOOTH",
"196 218 OFFCURVE",
"213 261 OFFCURVE",
"227 320 CURVE",
"366 322 LINE",
"374 376 LINE",
"235 374 LINE",
"234 397 OFFCURVE",
"232 411 OFFCURVE",
"229 422 CURVE",
"218 480 OFFCURVE",
"223 521 OFFCURVE",
"237 547 CURVE SMOOTH",
"248 576 OFFCURVE",
"267 596 OFFCURVE",
"291 608 CURVE SMOOTH"
);
}
);
width = 485;
}
);
note = sterling;
unicode = 00A3;
},
{
glyphname = yen;
lastChange = "2018-04-19 23:52:13 +0000";
layers = (
{
layerId = "D890DE10-725C-4894-AB83-5F7B73FFD58A";
paths = (
{
closed = 1;
nodes = (
"596 702 LINE",
"336 308 LINE",
"188 702 LINE",
"109 702 LINE",
"263 311 LINE",
"98 311 LINE",
"89 246 LINE",
"293 246 LINE",
"280 152 LINE",
"76 152 LINE",
"67 87 LINE",
"271 87 LINE",
"259 0 LINE",
"330 0 LINE",
"342 87 LINE",
"545 87 LINE",
"554 152 LINE",
"351 152 LINE",
"364 246 LINE",
"567 246 LINE",
"576 311 LINE",
"415 311 LINE",
"677 702 LINE"
);
}
);
width = 658;
}
);
note = yen;
unicode = 00A5;
},
{
glyphname = plus;
lastChange = "2018-04-19 23:52:13 +0000";
layers = (
{
layerId = "D890DE10-725C-4894-AB83-5F7B73FFD58A";
paths = (
{
closed = 1;
nodes = (
"551 326 LINE",
"334 326 LINE",
"364 544 LINE",
"304 544 LINE",
"274 326 LINE",
"56 326 LINE",
"47 266 LINE",
"265 266 LINE",
"235 49 LINE",
"295 49 LINE",
"325 266 LINE",
"542 266 LINE"
);
}
);
width = 585;
}
);
note = plus;
unicode = 002B;
},
{
glyphname = minus;
lastChange = "2018-04-19 23:52:13 +0000";
layers = (
{
layerId = "D890DE10-725C-4894-AB83-5F7B73FFD58A";
paths = (
{
closed = 1;
nodes = (
"525 323 LINE",
"55 323 LINE",
"47 263 LINE",
"517 263 LINE"
);
}
);
width = 560;
}
);
note = minus;
unicode = 2212;
},
{
glyphname = multiply;
lastChange = "2018-04-19 23:52:13 +0000";
layers = (
{
layerId = "D890DE10-725C-4894-AB83-5F7B73FFD58A";
paths = (
{
closed = 1;
nodes = (
"433 494 LINE",
"255 339 LINE",
"120 495 LINE",
"73 452 LINE",
"207 296 LINE",
"30 140 LINE",
"69 98 LINE",
"245 253 LINE",
"379 98 LINE",
"426 141 LINE",
"293 296 LINE",
"470 452 LINE"
);
}
);
width = 487;
}
);
note = multiply;
unicode = 00D7;
},
{
glyphname = divide;
lastChange = "2018-04-19 23:52:13 +0000";
layers = (
{
layerId = "D890DE10-725C-4894-AB83-5F7B73FFD58A";
paths = (
{
closed = 1;
nodes = (
"329 407 OFFCURVE",
"349 424 OFFCURVE",
"353 448 CURVE SMOOTH",
"356 475 OFFCURVE",
"338 497 OFFCURVE",
"311 497 CURVE SMOOTH",
"288 497 OFFCURVE",
"267 479 OFFCURVE",
"264 456 CURVE SMOOTH",
"260 428 OFFCURVE",
"279 407 OFFCURVE",
"305 407 CURVE SMOOTH"
);
},
{
closed = 1;
nodes = (
"524 323 LINE",
"55 323 LINE",
"47 263 LINE",
"516 263 LINE"
);
},
{
closed = 1;
nodes = (
"283 86 OFFCURVE",
"304 104 OFFCURVE",
"308 127 CURVE SMOOTH",
"312 155 OFFCURVE",
"293 176 OFFCURVE",
"266 176 CURVE SMOOTH",
"243 176 OFFCURVE",
"222 159 OFFCURVE",
"219 135 CURVE SMOOTH",
"215 108 OFFCURVE",
"233 86 OFFCURVE",
"260 86 CURVE SMOOTH"
);
}
);
width = 559;
}
);
note = divide;
unicode = 00F7;
},
{
glyphname = equal;
lastChange = "2018-04-19 23:52:13 +0000";
layers = (
{
layerId = "D890DE10-725C-4894-AB83-5F7B73FFD58A";
paths = (
{
closed = 1;
nodes = (
"539 424 LINE",
"69 424 LINE",
"61 364 LINE",
"531 364 LINE"
);
},
{
closed = 1;
nodes = (
"511 224 LINE",
"41 224 LINE",
"33 164 LINE",
"503 164 LINE"
);
}
);
width = 560;
}
);
note = equal;
unicode = 003D;
},
{
glyphname = notequal;
lastChange = "2018-04-19 23:52:13 +0000";
layers = (
{
layerId = "D890DE10-725C-4894-AB83-5F7B73FFD58A";
paths = (
{
closed = 1;
nodes = (
"550 429 LINE",
"393 429 LINE",
"455 544 LINE",
"395 544 LINE",
"333 429 LINE",
"74 429 LINE",
"65 368 LINE",
"298 368 LINE",
"221 226 LINE",
"42 226 LINE",
"34 165 LINE",
"187 165 LINE",
"125 49 LINE",
"185 49 LINE",
"247 165 LINE",
"510 165 LINE",
"518 226 LINE",
"281 226 LINE",
"358 368 LINE",
"541 368 LINE"
);
}
);
width = 570;
}
);
note = notequal;
unicode = 2260;
},
{
glyphname = greater;
lastChange = "2018-04-19 23:52:13 +0000";
layers = (
{
layerId = "D890DE10-725C-4894-AB83-5F7B73FFD58A";
paths = (
{
closed = 1;
nodes = (
"82 516 LINE",
"72 441 LINE",
"402 269 LINE",
"23 96 LINE",
"13 23 LINE",
"470 234 LINE",
"479 304 LINE"
);
}
);
width = 517;
}
);
note = greater;
unicode = 003E;
},
{
glyphname = less;
lastChange = "2018-04-19 23:52:13 +0000";
layers = (
{
layerId = "D890DE10-725C-4894-AB83-5F7B73FFD58A";
paths = (
{
closed = 1;
nodes = (
"44 234 LINE",
"441 23 LINE",
"451 96 LINE",
"122 269 LINE",
"500 441 LINE",
"510 516 LINE",
"53 304 LINE"
);
}
);
width = 518;
}
);
note = less;
unicode = 003C;
},
{
glyphname = greaterequal;
lastChange = "2018-04-19 23:52:13 +0000";
layers = (
{
layerId = "D890DE10-725C-4894-AB83-5F7B73FFD58A";
paths = (
{
closed = 1;
nodes = (
"80 500 LINE",
"71 429 LINE",
"420 323 LINE",
"42 221 LINE",
"32 151 LINE",
"477 283 LINE",
"487 362 LINE"
);
},
{
closed = 1;
nodes = (
"437 0 LINE",
"445 60 LINE",
"19 60 LINE",
"11 0 LINE"
);
}
);
width = 517;
}
);
note = greaterequal;
unicode = 2265;
},
{
glyphname = lessequal;
lastChange = "2018-04-19 23:52:13 +0000";
layers = (
{
layerId = "D890DE10-725C-4894-AB83-5F7B73FFD58A";
paths = (
{
closed = 1;
nodes = (
"51 283 LINE",
"458 151 LINE",
"468 221 LINE",
"118 323 LINE",
"497 429 LINE",
"508 500 LINE",
"61 362 LINE"
);
},
{
closed = 1;
nodes = (
"445 60 LINE",
"19 60 LINE",
"11 0 LINE",
"437 0 LINE"
);
}
);
width = 518;
}
);
note = lessequal;
unicode = 2264;
},
{
glyphname = plusminus;
lastChange = "2018-04-19 23:52:13 +0000";
layers = (
{
layerId = "D890DE10-725C-4894-AB83-5F7B73FFD58A";
paths = (
{
closed = 1;
nodes = (
"530 350 LINE",
"325 350 LINE",
"338 440 LINE",
"278 440 LINE",
"265 350 LINE",
"60 350 LINE",
"51 290 LINE",
"256 290 LINE",
"244 199 LINE",
"304 199 LINE",
"316 290 LINE",
"521 290 LINE"
);
},
{
closed = 1;
nodes = (
"495 102 LINE",
"25 102 LINE",
"16 41 LINE",
"486 41 LINE"
);
}
);
width = 561;
}
);
note = plusminus;
unicode = 00B1;
},
{
glyphname = approxequal;
lastChange = "2018-04-19 23:52:13 +0000";
layers = (
{
layerId = "D890DE10-725C-4894-AB83-5F7B73FFD58A";
paths = (
{
closed = 1;
nodes = (
"451 323 OFFCURVE",
"486 337 OFFCURVE",
"516 360 CURVE SMOOTH",
"543 386 OFFCURVE",
"565 419 OFFCURVE",
"574 456 CURVE",
"519 460 LINE",
"505 407 OFFCURVE",
"455 374 OFFCURVE",
"402 381 CURVE",
"371 386 OFFCURVE",
"295 443 OFFCURVE",
"252 447 CURVE",
"211 456 OFFCURVE",
"167 443 OFFCURVE",
"128 419 CURVE SMOOTH",
"92 393 OFFCURVE",
"63 355 OFFCURVE",
"54 314 CURVE",
"112 310 LINE",
"119 335 OFFCURVE",
"139 358 OFFCURVE",
"163 372 CURVE SMOOTH",
"185 388 OFFCURVE",
"215 397 OFFCURVE",
"243 394 CURVE SMOOTH",
"248 392 OFFCURVE",
"255 391 OFFCURVE",
"263 389 CURVE SMOOTH",
"275 382 OFFCURVE",
"291 373 OFFCURVE",
"314 362 CURVE",
"324 354 OFFCURVE",
"335 348 OFFCURVE",
"349 344 CURVE",
"370 332 OFFCURVE",
"394 323 OFFCURVE",
"419 323 CURVE SMOOTH"
);
},
{
closed = 1;
nodes = (
"429 119 OFFCURVE",
"467 133 OFFCURVE",
"498 156 CURVE SMOOTH",
"527 182 OFFCURVE",
"551 215 OFFCURVE",
"560 251 CURVE",
"509 255 LINE",
"501 227 OFFCURVE",
"481 205 OFFCURVE",
"456 194 CURVE SMOOTH",
"434 180 OFFCURVE",
"405 173 OFFCURVE",
"380 176 CURVE SMOOTH",
"368 180 OFFCURVE",
"360 181 OFFCURVE",
"308 208 CURVE",
"281 225 OFFCURVE",
"255 240 OFFCURVE",
"231 243 CURVE SMOOTH",
"187 252 OFFCURVE",
"144 241 OFFCURVE",
"109 218 CURVE SMOOTH",
"76 192 OFFCURVE",
"51 155 OFFCURVE",
"41 108 CURVE",
"100 104 LINE",
"106 129 OFFCURVE",
"122 153 OFFCURVE",
"146 167 CURVE SMOOTH",
"166 184 OFFCURVE",
"191 192 OFFCURVE",
"220 189 CURVE",
"247 181 OFFCURVE",
"268 169 OFFCURVE",
"292 158 CURVE",
"318 139 OFFCURVE",
"363 119 OFFCURVE",
"398 119 CURVE SMOOTH"
);
}
);
width = 605;
}
);
note = approxequal;
unicode = 2248;
},
{
glyphname = asciitilde;
lastChange = "2018-04-19 23:52:13 +0000";
layers = (
{
layerId = "D890DE10-725C-4894-AB83-5F7B73FFD58A";
paths = (
{
closed = 1;
nodes = (
"464 202 OFFCURVE",
"499 219 OFFCURVE",
"530 246 CURVE SMOOTH",
"561 277 OFFCURVE",
"586 317 OFFCURVE",
"600 364 CURVE",
"533 368 LINE",
"511 305 OFFCURVE",
"472 263 OFFCURVE",
"412 271 CURVE",
"390 277 OFFCURVE",
"364 296 OFFCURVE",
"334 312 CURVE SMOOTH",
"303 332 OFFCURVE",
"273 350 OFFCURVE",
"247 354 CURVE",
"183 366 OFFCURVE",
"136 340 OFFCURVE",
"108 315 CURVE SMOOTH",
"75 281 OFFCURVE",
"51 245 OFFCURVE",
"36 189 CURVE",
"103 185 LINE",
"114 213 OFFCURVE",
"132 247 OFFCURVE",
"155 264 CURVE SMOOTH",
"184 292 OFFCURVE",
"223 298 OFFCURVE",
"258 286 CURVE SMOOTH",
"270 279 OFFCURVE",
"288 263 OFFCURVE",
"313 249 CURVE SMOOTH",
"324 240 OFFCURVE",
"336 233 OFFCURVE",
"350 227 CURVE SMOOTH",
"374 213 OFFCURVE",
"400 202 OFFCURVE",
"428 202 CURVE SMOOTH"
);
}
);
width = 629;
}
);
note = asciitilde;
unicode = 007E;
},
{
glyphname = logicalnot;
lastChange = "2018-04-19 23:52:13 +0000";
layers = (
{
layerId = "D890DE10-725C-4894-AB83-5F7B73FFD58A";
paths = (
{
closed = 1;
nodes = (
"483 320 LINE",
"55 320 LINE",
"46 259 LINE",
"416 259 LINE",
"392 85 LINE",
"450 85 LINE"
);
}
);
width = 518;
}
);
note = logicalnot;
unicode = 00AC;
},
{
glyphname = emptyset;
lastChange = "2018-04-19 23:52:13 +0000";
layers = (
{
layerId = "D890DE10-725C-4894-AB83-5F7B73FFD58A";
paths = (
{
closed = 1;
nodes = (
"407 35 OFFCURVE",
"488 68 OFFCURVE",
"553 122 CURVE SMOOTH",
"616 180 OFFCURVE",
"660 256 OFFCURVE",
"671 338 CURVE SMOOTH",
"681 411 OFFCURVE",
"666 477 OFFCURVE",
"626 540 CURVE",
"694 602 LINE",
"666 635 LINE",
"596 574 LINE",
"542 624 OFFCURVE",
"478 650 OFFCURVE",
"405 650 CURVE SMOOTH",
"322 650 OFFCURVE",
"241 616 OFFCURVE",
"176 562 CURVE SMOOTH",
"114 504 OFFCURVE",
"70 428 OFFCURVE",
"58 346 CURVE SMOOTH",
"48 273 OFFCURVE",
"65 207 OFFCURVE",
"105 144 CURVE",
"35 82 LINE",
"65 50 LINE",
"134 110 LINE",
"190 61 OFFCURVE",
"252 35 OFFCURVE",
"325 35 CURVE SMOOTH"
);
},
{
closed = 1;
nodes = (
"459 602 OFFCURVE",
"511 583 OFFCURVE",
"561 543 CURVE",
"142 175 LINE",
"109 229 OFFCURVE",
"97 284 OFFCURVE",
"104 339 CURVE SMOOTH",
"115 413 OFFCURVE",
"154 479 OFFCURVE",
"209 524 CURVE SMOOTH",
"262 572 OFFCURVE",
"331 602 OFFCURVE",
"405 602 CURVE"
);
},
{
closed = 1;
nodes = (
"623 454 OFFCURVE",
"633 403 OFFCURVE",
"625 347 CURVE SMOOTH",
"615 273 OFFCURVE",
"576 208 OFFCURVE",
"521 162 CURVE SMOOTH",
"468 113 OFFCURVE",
"399 83 OFFCURVE",
"325 83 CURVE SMOOTH",
"269 83 OFFCURVE",
"220 102 OFFCURVE",
"169 142 CURVE",
"589 510 LINE"
);
}
);
width = 704;
}
);
note = emptyset;
unicode = 2205;
},
{
glyphname = infinity;
lastChange = "2018-04-19 23:52:13 +0000";
layers = (
{
layerId = "D890DE10-725C-4894-AB83-5F7B73FFD58A";
paths = (
{
closed = 1;
nodes = (
"637 0 OFFCURVE",
"688 21 OFFCURVE",
"728 55 CURVE SMOOTH",
"766 92 OFFCURVE",
"792 140 OFFCURVE",
"800 191 CURVE SMOOTH",
"807 246 OFFCURVE",
"792 297 OFFCURVE",
"762 331 CURVE SMOOTH",
"734 368 OFFCURVE",
"689 391 OFFCURVE",
"635 391 CURVE SMOOTH",
"569 391 OFFCURVE",
"493 355 OFFCURVE",
"429 284 CURVE",
"387 350 OFFCURVE",
"320 391 OFFCURVE",
"250 391 CURVE SMOOTH",
"200 391 OFFCURVE",
"151 370 OFFCURVE",
"111 337 CURVE SMOOTH",
"73 299 OFFCURVE",
"45 250 OFFCURVE",
"38 199 CURVE SMOOTH",
"30 144 OFFCURVE",
"46 94 OFFCURVE",
"76 61 CURVE SMOOTH",
"104 23 OFFCURVE",
"148 0 OFFCURVE",
"202 0 CURVE SMOOTH",
"268 0 OFFCURVE",
"344 36 OFFCURVE",
"408 106 CURVE",
"450 40 OFFCURVE",
"517 0 OFFCURVE",
"587 0 CURVE SMOOTH"
);
},
{
closed = 1;
nodes = (
"668 331 OFFCURVE",
"698 317 OFFCURVE",
"720 295 CURVE SMOOTH",
"740 268 OFFCURVE",
"749 234 OFFCURVE",
"744 199 CURVE SMOOTH",
"738 160 OFFCURVE",
"717 124 OFFCURVE",
"689 102 CURVE SMOOTH",
"662 75 OFFCURVE",
"626 59 OFFCURVE",
"589 59 CURVE SMOOTH",
"546 59 OFFCURVE",
"508 77 OFFCURVE",
"481 101 CURVE SMOOTH",
"456 129 OFFCURVE",
"443 162 OFFCURVE",
"447 191 CURVE SMOOTH",
"451 225 OFFCURVE",
"476 260 OFFCURVE",
"511 284 CURVE SMOOTH",
"544 312 OFFCURVE",
"588 331 OFFCURVE",
"633 331 CURVE SMOOTH"
);
},
{
closed = 1;
nodes = (
"292 331 OFFCURVE",
"331 314 OFFCURVE",
"358 290 CURVE SMOOTH",
"382 262 OFFCURVE",
"395 229 OFFCURVE",
"391 199 CURVE SMOOTH",
"386 166 OFFCURVE",
"361 132 OFFCURVE",
"327 107 CURVE SMOOTH",
"296 78 OFFCURVE",
"250 59 OFFCURVE",
"204 59 CURVE SMOOTH",
"169 59 OFFCURVE",
"139 73 OFFCURVE",
"117 96 CURVE SMOOTH",
"98 122 OFFCURVE",
"89 156 OFFCURVE",
"94 191 CURVE SMOOTH",
"99 230 OFFCURVE",
"120 266 OFFCURVE",
"149 289 CURVE SMOOTH",
"175 315 OFFCURVE",
"211 331 OFFCURVE",
"248 331 CURVE SMOOTH"
);
}
);
width = 853;
}
);
note = infinity;
unicode = 221E;
},
{
glyphname = integral;
lastChange = "2018-04-19 23:52:13 +0000";
layers = (
{
layerId = "D890DE10-725C-4894-AB83-5F7B73FFD58A";
paths = (
{
closed = 1;
nodes = (
"586 707 LINE",
"508 707 LINE SMOOTH",
"456 707 OFFCURVE",
"419 680 OFFCURVE",
"382 617 CURVE SMOOTH",
"345 550 OFFCURVE",
"310 448 OFFCURVE",
"265 306 CURVE SMOOTH",
"234 204 OFFCURVE",
"203 108 OFFCURVE",
"173 37 CURVE SMOOTH",
"139 -45 OFFCURVE",
"100 -96 OFFCURVE",
"65 -96 CURVE SMOOTH",
"-4 -96 LINE",
"-12 -158 LINE",
"66 -158 LINE SMOOTH",
"97 -158 OFFCURVE",
"124 -148 OFFCURVE",
"149 -128 CURVE SMOOTH",
"194 -83 OFFCURVE",
"224 -12 OFFCURVE",
"244 35 CURVE SMOOTH",
"263 85 OFFCURVE",
"282 142 OFFCURVE",
"302 201 CURVE SMOOTH",
"311 234 OFFCURVE",
"321 265 OFFCURVE",
"332 296 CURVE SMOOTH",
"372 418 OFFCURVE",
"398 501 OFFCURVE",
"422 554 CURVE SMOOTH",
"445 608 OFFCURVE",
"470 645 OFFCURVE",
"509 645 CURVE SMOOTH",
"577 645 LINE"
);
}
);
width = 567;
}
);
note = integral;
unicode = 222B;
},
{
glyphname = product;
lastChange = "2018-04-19 23:52:13 +0000";
layers = (
{
layerId = "D890DE10-725C-4894-AB83-5F7B73FFD58A";
paths = (
{
closed = 1;
nodes = (
"603 700 LINE",
"108 700 LINE",
"100 643 LINE",
"212 643 LINE",
"108 -101 LINE",
"160 -101 LINE",
"264 643 LINE",
"442 643 LINE",
"338 -101 LINE",
"391 -101 LINE",
"495 643 LINE",
"595 643 LINE"
);
}
);
width = 585;
}
);
note = product;
unicode = 220F;
},
{
glyphname = summation;
lastChange = "2018-04-19 23:52:13 +0000";
layers = (
{
layerId = "D890DE10-725C-4894-AB83-5F7B73FFD58A";
paths = (
{
closed = 1;
nodes = (
"477 -37 LINE",
"84 -37 LINE",
"364 299 LINE",
"177 635 LINE",
"571 635 LINE",
"580 700 LINE",
"109 700 LINE",
"101 636 LINE",
"285 299 LINE",
"5 -38 LINE",
"-4 -102 LINE",
"467 -102 LINE"
);
}
);
width = 562;
}
);
note = summation;
unicode = 2211;
},
{
glyphname = radical;
lastChange = "2018-04-19 23:52:13 +0000";
layers = (
{
layerId = "D890DE10-725C-4894-AB83-5F7B73FFD58A";
paths = (
{
closed = 1;
nodes = (
"651 700 LINE",
"427 700 LINE",
"163 -69 LINE",
"107 168 LINE",
"33 168 LINE",
"108 -148 LINE",
"203 -148 LINE",
"475 640 LINE",
"643 640 LINE"
);
}
);
width = 633;
}
);
note = radical;
unicode = 221A;
},
{
glyphname = partialdiff;
lastChange = "2018-04-19 23:52:13 +0000";
layers = (
{
layerId = "D890DE10-725C-4894-AB83-5F7B73FFD58A";
paths = (
{
closed = 1;
nodes = (
"283 -10 OFFCURVE",
"347 8 OFFCURVE",
"401 44 CURVE SMOOTH",
"452 81 OFFCURVE",
"492 134 OFFCURVE",
"509 195 CURVE SMOOTH",
"539 309 OFFCURVE",
"512 434 OFFCURVE",
"431 602 CURVE SMOOTH",
"423 620 OFFCURVE",
"414 637 OFFCURVE",
"405 652 CURVE SMOOTH",
"397 668 OFFCURVE",
"389 683 OFFCURVE",
"382 697 CURVE",
"296 702 LINE",
"306 686 OFFCURVE",
"318 668 OFFCURVE",
"331 649 CURVE SMOOTH",
"342 628 OFFCURVE",
"354 607 OFFCURVE",
"367 586 CURVE SMOOTH",
"382 557 OFFCURVE",
"397 529 OFFCURVE",
"415 495 CURVE SMOOTH",
"431 458 OFFCURVE",
"447 416 OFFCURVE",
"466 359 CURVE",
"400 455 OFFCURVE",
"294 456 OFFCURVE",
"214 435 CURVE SMOOTH",
"136 414 OFFCURVE",
"73 351 OFFCURVE",
"48 260 CURVE SMOOTH",
"31 195 OFFCURVE",
"44 135 OFFCURVE",
"75 89 CURVE SMOOTH",
"104 41 OFFCURVE",
"156 6 OFFCURVE",
"222 -2 CURVE SMOOTH"
);
},
{
closed = 1;
nodes = (
"366 383 OFFCURVE",
"402 362 OFFCURVE",
"424 331 CURVE SMOOTH",
"444 297 OFFCURVE",
"450 254 OFFCURVE",
"439 212 CURVE",
"426 166 OFFCURVE",
"396 126 OFFCURVE",
"359 103 CURVE SMOOTH",
"323 77 OFFCURVE",
"278 63 OFFCURVE",
"232 68 CURVE SMOOTH",
"190 73 OFFCURVE",
"156 94 OFFCURVE",
"133 126 CURVE SMOOTH",
"113 159 OFFCURVE",
"106 202 OFFCURVE",
"117 244 CURVE SMOOTH",
"129 290 OFFCURVE",
"159 329 OFFCURVE",
"197 353 CURVE SMOOTH",
"232 379 OFFCURVE",
"279 393 OFFCURVE",
"324 388 CURVE SMOOTH"
);
}
);
width = 564;
}
);
note = partialdiff;
unicode = 2202;
},
{
glyphname = percent;
lastChange = "2018-04-19 23:52:13 +0000";
layers = (
{
layerId = "D890DE10-725C-4894-AB83-5F7B73FFD58A";
paths = (
{
closed = 1;
nodes = (
"267 -1 LINE",
"675 701 LINE",
"611 701 LINE",
"203 -1 LINE"
);
},
{
closed = 1;
nodes = (
"254 414 OFFCURVE",
"291 429 OFFCURVE",
"322 453 CURVE SMOOTH",
"350 481 OFFCURVE",
"369 515 OFFCURVE",
"374 553 CURVE SMOOTH",
"380 595 OFFCURVE",
"369 632 OFFCURVE",
"346 656 CURVE SMOOTH",
"325 684 OFFCURVE",
"291 701 OFFCURVE",
"249 701 CURVE SMOOTH",
"211 701 OFFCURVE",
"173 686 OFFCURVE",
"143 662 CURVE SMOOTH",
"114 634 OFFCURVE",
"94 599 OFFCURVE",
"89 561 CURVE SMOOTH",
"83 519 OFFCURVE",
"95 483 OFFCURVE",
"118 459 CURVE SMOOTH",
"139 431 OFFCURVE",
"174 414 OFFCURVE",
"215 414 CURVE SMOOTH"
);
},
{
closed = 1;
nodes = (
"295 647 OFFCURVE",
"328 610 OFFCURVE",
"322 561 CURVE SMOOTH",
"314 510 OFFCURVE",
"267 468 OFFCURVE",
"216 468 CURVE SMOOTH",
"167 468 OFFCURVE",
"135 506 OFFCURVE",
"141 553 CURVE SMOOTH",
"149 606 OFFCURVE",
"195 647 OFFCURVE",
"248 647 CURVE SMOOTH"
);
},
{
closed = 1;
nodes = (
"673 -1 OFFCURVE",
"711 14 OFFCURVE",
"741 38 CURVE SMOOTH",
"770 66 OFFCURVE",
"789 100 OFFCURVE",
"794 138 CURVE SMOOTH",
"800 180 OFFCURVE",
"789 217 OFFCURVE",
"765 241 CURVE SMOOTH",
"744 269 OFFCURVE",
"710 286 OFFCURVE",
"669 286 CURVE SMOOTH",
"630 286 OFFCURVE",
"593 271 OFFCURVE",
"562 247 CURVE SMOOTH",
"533 219 OFFCURVE",
"514 184 OFFCURVE",
"508 146 CURVE SMOOTH",
"502 104 OFFCURVE",
"514 68 OFFCURVE",
"538 44 CURVE SMOOTH",
"559 16 OFFCURVE",
"593 -1 OFFCURVE",
"635 -1 CURVE SMOOTH"
);
},
{
closed = 1;
nodes = (
"715 232 OFFCURVE",
"748 195 OFFCURVE",
"741 146 CURVE SMOOTH",
"734 95 OFFCURVE",
"687 53 OFFCURVE",
"636 53 CURVE SMOOTH",
"587 53 OFFCURVE",
"555 91 OFFCURVE",
"561 138 CURVE SMOOTH",
"569 191 OFFCURVE",
"615 232 OFFCURVE",
"668 232 CURVE SMOOTH"
);
}
);
width = 855;
}
);
note = percent;
unicode = 0025;
},
{
glyphname = perthousand;
lastChange = "2018-04-19 23:52:13 +0000";
layers = (
{
layerId = "D890DE10-725C-4894-AB83-5F7B73FFD58A";
paths = (
{
closed = 1;
nodes = (
"267 -1 LINE",
"675 701 LINE",
"611 701 LINE",
"203 -1 LINE"
);
},
{
closed = 1;
nodes = (
"254 414 OFFCURVE",
"291 429 OFFCURVE",
"322 453 CURVE SMOOTH",
"350 481 OFFCURVE",
"369 515 OFFCURVE",
"374 553 CURVE SMOOTH",
"380 595 OFFCURVE",
"369 632 OFFCURVE",
"346 656 CURVE SMOOTH",
"325 684 OFFCURVE",
"291 701 OFFCURVE",
"249 701 CURVE SMOOTH",
"211 701 OFFCURVE",
"173 686 OFFCURVE",
"143 662 CURVE SMOOTH",
"114 634 OFFCURVE",
"94 599 OFFCURVE",
"89 561 CURVE SMOOTH",
"83 519 OFFCURVE",
"95 483 OFFCURVE",
"118 459 CURVE SMOOTH",
"139 431 OFFCURVE",
"174 414 OFFCURVE",
"215 414 CURVE SMOOTH"
);
},
{
closed = 1;
nodes = (
"295 647 OFFCURVE",
"328 610 OFFCURVE",
"322 561 CURVE SMOOTH",
"314 510 OFFCURVE",
"267 468 OFFCURVE",
"216 468 CURVE SMOOTH",
"167 468 OFFCURVE",
"135 506 OFFCURVE",
"141 553 CURVE SMOOTH",
"149 606 OFFCURVE",
"195 647 OFFCURVE",
"248 647 CURVE SMOOTH"
);
},
{
closed = 1;
nodes = (
"673 -1 OFFCURVE",
"711 14 OFFCURVE",
"741 38 CURVE SMOOTH",
"770 66 OFFCURVE",
"789 100 OFFCURVE",
"794 138 CURVE SMOOTH",
"800 180 OFFCURVE",
"789 217 OFFCURVE",
"765 241 CURVE SMOOTH",
"744 269 OFFCURVE",
"710 286 OFFCURVE",
"669 286 CURVE SMOOTH",
"630 286 OFFCURVE",
"593 271 OFFCURVE",
"562 247 CURVE SMOOTH",
"533 219 OFFCURVE",
"514 184 OFFCURVE",
"508 146 CURVE SMOOTH",
"502 104 OFFCURVE",
"514 68 OFFCURVE",
"538 44 CURVE SMOOTH",
"559 16 OFFCURVE",
"593 -1 OFFCURVE",
"635 -1 CURVE SMOOTH"
);
},
{
closed = 1;
nodes = (
"715 232 OFFCURVE",
"748 195 OFFCURVE",
"741 146 CURVE SMOOTH",
"734 95 OFFCURVE",
"687 53 OFFCURVE",
"636 53 CURVE SMOOTH",
"587 53 OFFCURVE",
"555 91 OFFCURVE",
"561 138 CURVE SMOOTH",
"569 191 OFFCURVE",
"615 232 OFFCURVE",
"668 232 CURVE SMOOTH"
);
},
{
closed = 1;
nodes = (
"1035 -1 OFFCURVE",
"1073 14 OFFCURVE",
"1103 38 CURVE SMOOTH",
"1132 66 OFFCURVE",
"1151 100 OFFCURVE",
"1156 138 CURVE SMOOTH",
"1162 180 OFFCURVE",
"1151 217 OFFCURVE",
"1127 241 CURVE SMOOTH",
"1106 269 OFFCURVE",
"1072 286 OFFCURVE",
"1031 286 CURVE SMOOTH",
"992 286 OFFCURVE",
"955 271 OFFCURVE",
"924 247 CURVE SMOOTH",
"895 219 OFFCURVE",
"876 184 OFFCURVE",
"870 146 CURVE SMOOTH",
"864 104 OFFCURVE",
"876 68 OFFCURVE",
"900 44 CURVE SMOOTH",
"921 16 OFFCURVE",
"955 -1 OFFCURVE",
"997 -1 CURVE SMOOTH"
);
},
{
closed = 1;
nodes = (
"1077 232 OFFCURVE",
"1110 195 OFFCURVE",
"1103 146 CURVE SMOOTH",
"1096 95 OFFCURVE",
"1049 53 OFFCURVE",
"998 53 CURVE SMOOTH",
"949 53 OFFCURVE",
"917 91 OFFCURVE",
"923 138 CURVE SMOOTH",
"931 191 OFFCURVE",
"977 232 OFFCURVE",
"1030 232 CURVE SMOOTH"
);
}
);
width = 1217;
}
);
note = perthousand;
unicode = 2030;
},
{
glyphname = lozenge;
lastChange = "2018-04-19 23:52:13 +0000";
layers = (
{
layerId = "D890DE10-725C-4894-AB83-5F7B73FFD58A";
paths = (
{
closed = 1;
nodes = (
"357 660 LINE",
"281 660 LINE",
"56 330 LINE",
"189 0 LINE",
"265 0 LINE",
"491 330 LINE"
);
},
{
closed = 1;
nodes = (
"234 56 LINE",
"126 330 LINE",
"314 604 LINE",
"421 330 LINE"
);
}
);
width = 525;
}
);
note = lozenge;
unicode = 25CA;
},
{
glyphname = at;
lastChange = "2018-04-19 23:52:13 +0000";
layers = (
{
layerId = "D890DE10-725C-4894-AB83-5F7B73FFD58A";
paths = (
{
closed = 1;
nodes = (
"770 56 OFFCURVE",
"811 145 OFFCURVE",
"827 287 CURVE SMOOTH",
"841 407 OFFCURVE",
"804 513 OFFCURVE",
"725 582 CURVE SMOOTH",
"655 649 OFFCURVE",
"556 678 OFFCURVE",
"451 664 CURVE SMOOTH",
"350 650 OFFCURVE",
"252 600 OFFCURVE",
"169 516 CURVE SMOOTH",
"93 434 OFFCURVE",
"48 331 OFFCURVE",
"44 229 CURVE SMOOTH",
"39 122 OFFCURVE",
"76 28 OFFCURVE",
"149 -34 CURVE SMOOTH",
"206 -87 OFFCURVE",
"285 -117 OFFCURVE",
"372 -117 CURVE SMOOTH",
"388 -117 OFFCURVE",
"403 -116 OFFCURVE",
"421 -115 CURVE",
"427 -54 LINE",
"335 -67 OFFCURVE",
"251 -44 OFFCURVE",
"187 11 CURVE SMOOTH",
"129 65 OFFCURVE",
"99 143 OFFCURVE",
"103 227 CURVE SMOOTH",
"108 317 OFFCURVE",
"149 405 OFFCURVE",
"215 473 CURVE SMOOTH",
"278 544 OFFCURVE",
"364 591 OFFCURVE",
"455 602 CURVE SMOOTH",
"545 613 OFFCURVE",
"627 591 OFFCURVE",
"687 539 CURVE SMOOTH",
"750 477 OFFCURVE",
"779 390 OFFCURVE",
"768 295 CURVE SMOOTH",
"754 174 OFFCURVE",
"717 99 OFFCURVE",
"674 71 CURVE SMOOTH",
"648 51 OFFCURVE",
"620 49 OFFCURVE",
"598 52 CURVE SMOOTH",
"580 57 OFFCURVE",
"570 70 OFFCURVE",
"572 98 CURVE",
"608 353 LINE SMOOTH",
"616 404 OFFCURVE",
"593 444 OFFCURVE",
"548 463 CURVE SMOOTH",
"507 480 OFFCURVE",
"451 480 OFFCURVE",
"393 460 CURVE SMOOTH",
"348 441 OFFCURVE",
"312 414 OFFCURVE",
"298 403 CURVE",
"333 360 LINE",
"347 371 OFFCURVE",
"379 389 OFFCURVE",
"416 401 CURVE SMOOTH",
"447 415 OFFCURVE",
"483 419 OFFCURVE",
"511 414 CURVE SMOOTH",
"540 406 OFFCURVE",
"553 386 OFFCURVE",
"548 353 CURVE SMOOTH",
"542 317 LINE",
"519 317 OFFCURVE",
"495 316 OFFCURVE",
"471 314 CURVE SMOOTH",
"447 312 OFFCURVE",
"424 310 OFFCURVE",
"408 308 CURVE",
"382 303 OFFCURVE",
"350 291 OFFCURVE",
"323 275 CURVE",
"284 247 OFFCURVE",
"265 217 OFFCURVE",
"260 181 CURVE SMOOTH",
"256 148 OFFCURVE",
"263 119 OFFCURVE",
"279 100 CURVE SMOOTH",
"292 77 OFFCURVE",
"320 64 OFFCURVE",
"359 64 CURVE SMOOTH",
"400 64 OFFCURVE",
"456 81 OFFCURVE",
"518 126 CURVE",
"515 117 LINE",
"508 67 LINE",
"507 0 OFFCURVE",
"630 -18 OFFCURVE",
"701 18 CURVE SMOOTH"
);
},
{
closed = 1;
nodes = (
"494 162 OFFCURVE",
"455 144 OFFCURVE",
"419 134 CURVE SMOOTH",
"373 120 OFFCURVE",
"339 114 OFFCURVE",
"319 138 CURVE SMOOTH",
"316 145 OFFCURVE",
"316 158 OFFCURVE",
"318 173 CURVE SMOOTH",
"323 211 OFFCURVE",
"353 229 OFFCURVE",
"392 243 CURVE",
"462 270 OFFCURVE",
"482 267 OFFCURVE",
"540 274 CURVE",
"524 181 LINE"
);
}
);
width = 867;
}
);
note = at;
unicode = 0040;
},
{
glyphname = ampersand;
lastChange = "2018-04-19 23:52:13 +0000";
layers = (
{
layerId = "D890DE10-725C-4894-AB83-5F7B73FFD58A";
paths = (
{
closed = 1;
nodes = (
"532 124 LINE",
"583 182 OFFCURVE",
"605 269 OFFCURVE",
"617 356 CURVE",
"549 360 LINE",
"542 289 OFFCURVE",
"529 237 OFFCURVE",
"489 177 CURVE",
"427 257 OFFCURVE",
"264 472 OFFCURVE",
"250 502 CURVE SMOOTH",
"218 573 OFFCURVE",
"272 645 OFFCURVE",
"351 651 CURVE",
"418 653 OFFCURVE",
"437 641 OFFCURVE",
"455 584 CURVE",
"517 597 LINE",
"512 618 OFFCURVE",
"502 648 OFFCURVE",
"476 669 CURVE SMOOTH",
"454 694 OFFCURVE",
"416 712 OFFCURVE",
"354 712 CURVE SMOOTH",
"294 712 OFFCURVE",
"243 681 OFFCURVE",
"209 636 CURVE SMOOTH",
"143 545 OFFCURVE",
"178 490 OFFCURVE",
"232 412 CURVE",
"111 363 OFFCURVE",
"31 259 OFFCURVE",
"35 159 CURVE SMOOTH",
"38 -26 OFFCURVE",
"304 -71 OFFCURVE",
"479 78 CURVE",
"544 0 LINE",
"628 0 LINE"
);
},
{
closed = 1;
nodes = (
"319 287 OFFCURVE",
"372 220 OFFCURVE",
"445 129 CURVE",
"372 69 OFFCURVE",
"298 47 OFFCURVE",
"241 48 CURVE SMOOTH",
"187 48 OFFCURVE",
"146 70 OFFCURVE",
"122 105 CURVE SMOOTH",
"100 142 OFFCURVE",
"97 190 OFFCURVE",
"116 237 CURVE SMOOTH",
"134 287 OFFCURVE",
"192 326 OFFCURVE",
"263 364 CURVE"
);
}
);
width = 708;
}
);
note = ampersand;
unicode = 0026;
},
{
glyphname = paragraph;
lastChange = "2018-04-19 23:52:13 +0000";
layers = (
{
layerId = "D890DE10-725C-4894-AB83-5F7B73FFD58A";
paths = (
{
closed = 1;
nodes = (
"554 698 LINE",
"494 698 LINE",
"388 -58 LINE",
"448 -58 LINE"
);
},
{
closed = 1;
nodes = (
"425 698 LINE",
"255 698 LINE SMOOTH",
"215 698 OFFCURVE",
"176 682 OFFCURVE",
"144 657 CURVE SMOOTH",
"114 627 OFFCURVE",
"93 592 OFFCURVE",
"88 555 CURVE SMOOTH",
"82 513 OFFCURVE",
"94 475 OFFCURVE",
"119 451 CURVE SMOOTH",
"141 423 OFFCURVE",
"176 405 OFFCURVE",
"219 405 CURVE SMOOTH",
"248 405 OFFCURVE",
"278 413 OFFCURVE",
"329 444 CURVE",
"258 -58 LINE",
"319 -58 LINE"
);
}
);
width = 536;
}
);
note = paragraph;
unicode = 00B6;
},
{
glyphname = section;
lastChange = "2018-04-19 23:52:13 +0000";
layers = (
{
layerId = "D890DE10-725C-4894-AB83-5F7B73FFD58A";
paths = (
{
closed = 1;
nodes = (
"381 272 OFFCURVE",
"404 307 OFFCURVE",
"410 348 CURVE SMOOTH",
"417 401 OFFCURVE",
"381 444 OFFCURVE",
"338 463 CURVE",
"314 475 OFFCURVE",
"290 482 OFFCURVE",
"264 485 CURVE SMOOTH",
"238 491 OFFCURVE",
"210 499 OFFCURVE",
"189 511 CURVE SMOOTH",
"170 525 OFFCURVE",
"158 541 OFFCURVE",
"160 559 CURVE SMOOTH",
"164 586 OFFCURVE",
"182 611 OFFCURVE",
"205 626 CURVE SMOOTH",
"226 644 OFFCURVE",
"256 655 OFFCURVE",
"289 655 CURVE SMOOTH",
"326 655 OFFCURVE",
"364 635 OFFCURVE",
"389 615 CURVE",
"437 655 LINE",
"398 687 OFFCURVE",
"336 711 OFFCURVE",
"282 711 CURVE SMOOTH",
"236 711 OFFCURVE",
"191 696 OFFCURVE",
"151 666 CURVE SMOOTH",
"119 637 OFFCURVE",
"99 602 OFFCURVE",
"95 568 CURVE SMOOTH",
"92 550 OFFCURVE",
"94 533 OFFCURVE",
"101 516 CURVE SMOOTH",
"106 498 OFFCURVE",
"117 482 OFFCURVE",
"140 460 CURVE",
"87 426 OFFCURVE",
"65 391 OFFCURVE",
"59 350 CURVE SMOOTH",
"51 297 OFFCURVE",
"88 254 OFFCURVE",
"131 235 CURVE",
"154 223 OFFCURVE",
"179 216 OFFCURVE",
"205 213 CURVE SMOOTH",
"230 207 OFFCURVE",
"259 198 OFFCURVE",
"281 187 CURVE SMOOTH",
"299 173 OFFCURVE",
"311 157 OFFCURVE",
"308 139 CURVE SMOOTH",
"304 112 OFFCURVE",
"287 87 OFFCURVE",
"264 73 CURVE SMOOTH",
"242 54 OFFCURVE",
"212 43 OFFCURVE",
"180 43 CURVE SMOOTH",
"142 43 OFFCURVE",
"104 63 OFFCURVE",
"79 83 CURVE",
"32 43 LINE",
"71 11 OFFCURVE",
"132 -13 OFFCURVE",
"186 -13 CURVE SMOOTH",
"232 -13 OFFCURVE",
"277 2 OFFCURVE",
"318 32 CURVE SMOOTH",
"349 61 OFFCURVE",
"369 96 OFFCURVE",
"374 130 CURVE SMOOTH",
"377 148 OFFCURVE",
"374 165 OFFCURVE",
"367 182 CURVE SMOOTH",
"362 200 OFFCURVE",
"352 216 OFFCURVE",
"328 238 CURVE"
);
},
{
closed = 1;
nodes = (
"362 320 OFFCURVE",
"321 280 OFFCURVE",
"247 273 CURVE SMOOTH",
"216 269 OFFCURVE",
"181 276 OFFCURVE",
"155 291 CURVE",
"131 307 OFFCURVE",
"116 330 OFFCURVE",
"120 356 CURVE SMOOTH",
"125 395 OFFCURVE",
"168 433 OFFCURVE",
"225 433 CURVE SMOOTH",
"296 433 OFFCURVE",
"343 404 OFFCURVE",
"353 366 CURVE SMOOTH"
);
}
);
width = 441;
}
);
note = section;
unicode = 00A7;
},
{
glyphname = copyright;
lastChange = "2018-04-19 23:52:13 +0000";
layers = (
{
layerId = "D890DE10-725C-4894-AB83-5F7B73FFD58A";
paths = (
{
closed = 1;
nodes = (
"450 -3 OFFCURVE",
"540 35 OFFCURVE",
"612 97 CURVE SMOOTH",
"682 163 OFFCURVE",
"731 251 OFFCURVE",
"744 346 CURVE SMOOTH",
"758 445 OFFCURVE",
"732 535 OFFCURVE",
"677 597 CURVE SMOOTH",
"626 663 OFFCURVE",
"546 703 OFFCURVE",
"449 703 CURVE SMOOTH",
"356 703 OFFCURVE",
"266 665 OFFCURVE",
"194 603 CURVE SMOOTH",
"124 537 OFFCURVE",
"74 449 OFFCURVE",
"60 354 CURVE SMOOTH",
"47 255 OFFCURVE",
"74 165 OFFCURVE",
"128 103 CURVE SMOOTH",
"180 37 OFFCURVE",
"260 -3 OFFCURVE",
"356 -3 CURVE SMOOTH"
);
},
{
closed = 1;
nodes = (
"523 648 OFFCURVE",
"590 616 OFFCURVE",
"636 564 CURVE SMOOTH",
"678 507 OFFCURVE",
"700 434 OFFCURVE",
"688 354 CURVE SMOOTH",
"677 270 OFFCURVE",
"632 194 OFFCURVE",
"572 142 CURVE SMOOTH",
"514 86 OFFCURVE",
"436 52 OFFCURVE",
"358 52 CURVE SMOOTH",
"281 52 OFFCURVE",
"214 84 OFFCURVE",
"170 136 CURVE SMOOTH",
"127 192 OFFCURVE",
"105 266 OFFCURVE",
"116 346 CURVE SMOOTH",
"128 430 OFFCURVE",
"173 505 OFFCURVE",
"233 558 CURVE SMOOTH",
"291 614 OFFCURVE",
"368 648 OFFCURVE",
"448 648 CURVE SMOOTH"
);
},
{
closed = 1;
nodes = (
"377 150 OFFCURVE",
"462 153 OFFCURVE",
"519 204 CURVE",
"493 244 LINE",
"469 224 OFFCURVE",
"420 203 OFFCURVE",
"354 215 CURVE SMOOTH",
"296 227 OFFCURVE",
"268 274 OFFCURVE",
"279 347 CURVE SMOOTH",
"289 424 OFFCURVE",
"334 474 OFFCURVE",
"398 484 CURVE SMOOTH",
"464 496 OFFCURVE",
"507 477 OFFCURVE",
"526 460 CURVE",
"558 494 LINE",
"522 536 OFFCURVE",
"467 550 OFFCURVE",
"386 537 CURVE SMOOTH",
"300 520 OFFCURVE",
"241 452 OFFCURVE",
"228 355 CURVE SMOOTH",
"214 261 OFFCURVE",
"249 192 OFFCURVE",
"320 171 CURVE"
);
}
);
width = 776;
}
);
note = copyright;
unicode = 00A9;
},
{
glyphname = registered;
lastChange = "2018-04-19 23:52:13 +0000";
layers = (
{
layerId = "D890DE10-725C-4894-AB83-5F7B73FFD58A";
paths = (
{
closed = 1;
nodes = (
"341 322 OFFCURVE",
"433 404 OFFCURVE",
"447 507 CURVE SMOOTH",
"462 614 OFFCURVE",
"391 700 OFFCURVE",
"289 700 CURVE SMOOTH",
"189 700 OFFCURVE",
"97 618 OFFCURVE",
"82 515 CURVE SMOOTH",
"67 408 OFFCURVE",
"139 322 OFFCURVE",
"242 322 CURVE SMOOTH"
);
},
{
closed = 1;
nodes = (
"166 364 OFFCURVE",
"113 429 OFFCURVE",
"124 507 CURVE SMOOTH",
"136 589 OFFCURVE",
"211 657 OFFCURVE",
"289 657 CURVE SMOOTH",
"363 657 OFFCURVE",
"417 593 OFFCURVE",
"406 515 CURVE SMOOTH",
"395 433 OFFCURVE",
"318 364 OFFCURVE",
"242 364 CURVE SMOOTH"
);
},
{
closed = 1;
nodes = (
"229 421 LINE",
"239 491 LINE",
"252 491 LINE",
"284 421 LINE",
"328 421 LINE",
"294 495 LINE",
"316 505 OFFCURVE",
"331 526 OFFCURVE",
"333 545 CURVE SMOOTH",
"338 578 OFFCURVE",
"316 606 OFFCURVE",
"287 606 CURVE SMOOTH",
"217 606 LINE",
"191 421 LINE"
);
},
{
closed = 1;
nodes = (
"285 568 LINE SMOOTH",
"292 568 OFFCURVE",
"297 561 OFFCURVE",
"295 553 CURVE SMOOTH",
"294 541 OFFCURVE",
"283 529 OFFCURVE",
"275 529 CURVE SMOOTH",
"244 529 LINE",
"250 568 LINE"
);
}
);
width = 456;
}
);
note = registered;
unicode = 00AE;
},
{
glyphname = trademark;
lastChange = "2018-04-19 23:52:13 +0000";
layers = (
{
layerId = "D890DE10-725C-4894-AB83-5F7B73FFD58A";
paths = (
{
closed = 1;
nodes = (
"202 653 LINE",
"161 362 LINE",
"211 362 LINE",
"252 653 LINE",
"338 653 LINE",
"297 362 LINE",
"347 362 LINE",
"385 636 LINE",
"397 636 LINE",
"455 413 LINE",
"505 413 LINE",
"627 636 LINE",
"637 636 LINE",
"599 362 LINE",
"650 362 LINE",
"697 700 LINE",
"608 700 LINE",
"488 482 LINE",
"431 700 LINE",
"108 700 LINE",
"102 653 LINE"
);
}
);
width = 679;
}
);
note = trademark;
unicode = 2122;
},
{
glyphname = degree;
lastChange = "2018-04-19 23:52:13 +0000";
layers = (
{
layerId = "D890DE10-725C-4894-AB83-5F7B73FFD58A";
paths = (
{
closed = 1;
nodes = (
"253 412 OFFCURVE",
"291 427 OFFCURVE",
"321 451 CURVE SMOOTH",
"350 479 OFFCURVE",
"369 513 OFFCURVE",
"374 551 CURVE SMOOTH",
"380 593 OFFCURVE",
"369 630 OFFCURVE",
"345 654 CURVE SMOOTH",
"324 682 OFFCURVE",
"290 699 OFFCURVE",
"249 699 CURVE SMOOTH",
"210 699 OFFCURVE",
"173 684 OFFCURVE",
"142 660 CURVE SMOOTH",
"114 632 OFFCURVE",
"94 597 OFFCURVE",
"88 559 CURVE SMOOTH",
"82 517 OFFCURVE",
"95 481 OFFCURVE",
"118 457 CURVE SMOOTH",
"139 429 OFFCURVE",
"173 412 OFFCURVE",
"215 412 CURVE SMOOTH"
);
},
{
closed = 1;
nodes = (
"295 645 OFFCURVE",
"328 608 OFFCURVE",
"321 559 CURVE SMOOTH",
"314 508 OFFCURVE",
"267 466 OFFCURVE",
"216 466 CURVE SMOOTH",
"167 466 OFFCURVE",
"135 504 OFFCURVE",
"141 551 CURVE SMOOTH",
"149 604 OFFCURVE",
"195 645 OFFCURVE",
"248 645 CURVE SMOOTH"
);
}
);
width = 377;
}
);
note = degree;
unicode = 00B0;
},
{
glyphname = bar;
lastChange = "2018-04-19 23:52:13 +0000";
layers = (
{
layerId = "D890DE10-725C-4894-AB83-5F7B73FFD58A";
paths = (
{
closed = 1;
nodes = (
"173 698 LINE",
"108 698 LINE",
"2 -58 LINE",
"67 -58 LINE"
);
}
);
width = 155;
}
);
note = bar;
unicode = 007C;
},
{
glyphname = brokenbar;
lastChange = "2018-04-19 23:52:13 +0000";
layers = (
{
layerId = "D890DE10-725C-4894-AB83-5F7B73FFD58A";
paths = (
{
closed = 1;
nodes = (
"174 700 LINE",
"109 700 LINE",
"65 386 LINE",
"130 386 LINE"
);
},
{
closed = 1;
nodes = (
"101 177 LINE",
"36 177 LINE",
"-9 -137 LINE",
"56 -137 LINE"
);
}
);
width = 156;
}
);
note = brokenbar;
unicode = 00A6;
},
{
glyphname = dagger;
lastChange = "2018-04-19 23:52:13 +0000";
layers = (
{
layerId = "D890DE10-725C-4894-AB83-5F7B73FFD58A";
paths = (
{
closed = 1;
nodes = (
"356 604 LINE",
"258 604 LINE",
"271 700 LINE",
"207 700 LINE",
"193 603 LINE",
"95 603 LINE",
"87 544 LINE",
"185 544 LINE",
"138 205 LINE",
"202 205 LINE",
"249 544 LINE",
"347 544 LINE"
);
}
);
width = 351;
}
);
note = dagger;
unicode = 2020;
},
{
glyphname = daggerdbl;
lastChange = "2018-04-19 23:52:13 +0000";
layers = (
{
layerId = "D890DE10-725C-4894-AB83-5F7B73FFD58A";
paths = (
{
closed = 1;
nodes = (
"322 372 LINE",
"224 372 LINE",
"247 534 LINE",
"345 534 LINE",
"353 594 LINE",
"255 594 LINE",
"270 701 LINE",
"206 701 LINE",
"191 593 LINE",
"93 593 LINE",
"85 534 LINE",
"183 534 LINE",
"160 372 LINE",
"62 372 LINE",
"54 312 LINE",
"152 312 LINE",
"137 206 LINE",
"201 206 LINE",
"216 313 LINE",
"314 313 LINE"
);
}
);
width = 350;
}
);
note = daggerdbl;
unicode = 2021;
},
{
glyphname = asciicircum;
lastChange = "2018-04-19 23:52:13 +0000";
layers = (
{
layerId = "D890DE10-725C-4894-AB83-5F7B73FFD58A";
paths = (
{
closed = 1;
nodes = (
"347 700 LINE",
"281 700 LINE",
"62 370 LINE",
"133 370 LINE",
"307 637 LINE",
"404 370 LINE",
"473 370 LINE"
);
}
);
width = 501;
}
);
note = asciicircum;
unicode = 005E;
},
{
glyphname = dieresiscomb;
lastChange = "2018-04-19 23:33:36 +0000";
layers = (
{
anchors = (
{
name = _top;
position = "{121, 560}";
},
{
name = top;
position = "{141, 700}";
}
);
layerId = "D890DE10-725C-4894-AB83-5F7B73FFD58A";
paths = (
{
closed = 1;
nodes = (
"93 678 OFFCURVE",
"75 700 OFFCURVE",
"48 700 CURVE SMOOTH",
"25 700 OFFCURVE",
"4 682 OFFCURVE",
"0 659 CURVE SMOOTH",
"-3 632 OFFCURVE",
"15 610 OFFCURVE",
"42 610 CURVE SMOOTH",
"65 610 OFFCURVE",
"86 628 OFFCURVE",
"89 651 CURVE SMOOTH"
);
},
{
closed = 1;
nodes = (
"272 678 OFFCURVE",
"254 700 OFFCURVE",
"227 700 CURVE SMOOTH",
"204 700 OFFCURVE",
"183 682 OFFCURVE",
"179 659 CURVE SMOOTH",
"176 632 OFFCURVE",
"194 610 OFFCURVE",
"221 610 CURVE SMOOTH",
"244 610 OFFCURVE",
"265 628 OFFCURVE",
"268 651 CURVE SMOOTH"
);
}
);
width = 269;
}
);
unicode = 0308;
},
{
glyphname = dotaccentcomb;
lastChange = "2018-04-19 23:33:36 +0000";
layers = (
{
anchors = (
{
name = _top;
position = "{31, 560}";
},
{
name = top;
position = "{51, 700}";
}
);
layerId = "D890DE10-725C-4894-AB83-5F7B73FFD58A";
paths = (
{
closed = 1;
nodes = (
"93 678 OFFCURVE",
"75 700 OFFCURVE",
"48 700 CURVE SMOOTH",
"25 700 OFFCURVE",
"4 682 OFFCURVE",
"0 659 CURVE SMOOTH",
"-3 632 OFFCURVE",
"15 610 OFFCURVE",
"42 610 CURVE SMOOTH",
"65 610 OFFCURVE",
"86 628 OFFCURVE",
"89 651 CURVE SMOOTH"
);
}
);
width = 90;
}
);
unicode = 0307;
},
{
glyphname = gravecomb;
lastChange = "2018-04-19 23:33:36 +0000";
layers = (
{
anchors = (
{
name = _top;
position = "{33, 560}";
},
{
name = top;
position = "{43, 739}";
}
);
layerId = "D890DE10-725C-4894-AB83-5F7B73FFD58A";
paths = (
{
closed = 1;
nodes = (
"0 739 LINE",
"19 606 LINE",
"72 606 LINE",
"65 739 LINE"
);
}
);
width = 72;
}
);
unicode = 0300;
},
{
glyphname = acutecomb;
lastChange = "2018-04-19 23:33:36 +0000";
layers = (
{
anchors = (
{
name = _top;
position = "{19, 560}";
},
{
name = top;
position = "{65, 739}";
}
);
layerId = "D890DE10-725C-4894-AB83-5F7B73FFD58A";
paths = (
{
closed = 1;
nodes = (
"0 606 LINE",
"53 606 LINE",
"110 739 LINE",
"43 739 LINE"
);
}
);
width = 110;
}
);
unicode = 0301;
},
{
glyphname = hungarumlautcomb;
lastChange = "2018-04-19 23:33:36 +0000";
layers = (
{
anchors = (
{
name = _top;
position = "{90, 550}";
},
{
name = top;
position = "{117, 739}";
}
);
layerId = "D890DE10-725C-4894-AB83-5F7B73FFD58A";
paths = (
{
closed = 1;
nodes = (
"0 606 LINE",
"48 606 LINE",
"106 739 LINE",
"44 739 LINE"
);
},
{
closed = 1;
nodes = (
"106 606 LINE",
"154 606 LINE",
"214 739 LINE",
"152 739 LINE"
);
}
);
width = 214;
}
);
unicode = 030B;
},
{
glyphname = circumflexcomb;
lastChange = "2018-04-19 23:33:36 +0000";
layers = (
{
anchors = (
{
name = _top;
position = "{119, 544}";
},
{
name = top;
position = "{141, 700}";
}
);
layerId = "D890DE10-725C-4894-AB83-5F7B73FFD58A";
paths = (
{
closed = 1;
nodes = (
"67 589 LINE",
"136 656 LINE",
"185 589 LINE",
"250 589 LINE",
"165 700 LINE",
"117 700 LINE",
"0 589 LINE"
);
}
);
width = 250;
}
);
unicode = 0302;
},
{
glyphname = caroncomb;
lastChange = "2018-04-19 23:33:36 +0000";
layers = (
{
anchors = (
{
name = _top;
position = "{101, 537}";
},
{
name = top;
position = "{124, 700}";
}
);
layerId = "D890DE10-725C-4894-AB83-5F7B73FFD58A";
paths = (
{
closed = 1;
nodes = (
"85 589 LINE",
"133 589 LINE",
"250 700 LINE",
"183 700 LINE",
"114 633 LINE",
"65 700 LINE",
"0 700 LINE"
);
}
);
width = 250;
}
);
unicode = 030C;
},
{
glyphname = brevecomb;
lastChange = "2018-04-19 23:33:36 +0000";
layers = (
{
anchors = (
{
name = _top;
position = "{92, 534}";
},
{
name = top;
position = "{115, 701}";
}
);
layerId = "D890DE10-725C-4894-AB83-5F7B73FFD58A";
paths = (
{
closed = 1;
nodes = (
"163 586 OFFCURVE",
"220 635 OFFCURVE",
"229 699 CURVE",
"181 703 LINE",
"175 666 OFFCURVE",
"139 635 OFFCURVE",
"102 635 CURVE",
"67 635 OFFCURVE",
"44 662 OFFCURVE",
"49 699 CURVE",
"1 703 LINE",
"-8 639 OFFCURVE",
"37 586 OFFCURVE",
"101 586 CURVE"
);
}
);
width = 229;
}
);
unicode = 0306;
},
{
glyphname = ringcomb;
lastChange = "2018-04-19 23:33:36 +0000";
layers = (
{
anchors = (
{
name = _top;
position = "{59, 550}";
},
{
name = top;
position = "{84, 729}";
}
);
layerId = "D890DE10-725C-4894-AB83-5F7B73FFD58A";
paths = (
{
closed = 1;
nodes = (
"105 583 OFFCURVE",
"141 614 OFFCURVE",
"146 652 CURVE",
"152 693 OFFCURVE",
"123 729 OFFCURVE",
"81 729 CURVE",
"44 729 OFFCURVE",
"7 697 OFFCURVE",
"1 660 CURVE",
"-4 618 OFFCURVE",
"26 583 OFFCURVE",
"67 583 CURVE"
);
},
{
closed = 1;
nodes = (
"51 624 OFFCURVE",
"39 635 OFFCURVE",
"41 652 CURVE",
"44 671 OFFCURVE",
"63 688 OFFCURVE",
"82 688 CURVE",
"99 688 OFFCURVE",
"109 675 OFFCURVE",
"106 660 CURVE",
"104 639 OFFCURVE",
"87 624 OFFCURVE",
"66 624 CURVE"
);
}
);
width = 147;
}
);
unicode = 030A;
},
{
glyphname = tildecomb;
lastChange = "2018-04-19 23:33:36 +0000";
layers = (
{
anchors = (
{
name = _top;
position = "{120, 555}";
},
{
name = top;
position = "{140, 702}";
}
);
layerId = "D890DE10-725C-4894-AB83-5F7B73FFD58A";
paths = (
{
closed = 1;
nodes = (
"117 598 OFFCURVE",
"177 598 CURVE SMOOTH",
"226 598 OFFCURVE",
"256 637 OFFCURVE",
"265 698 CURVE",
"211 702 LINE",
"209 685 OFFCURVE",
"200 650 OFFCURVE",
"178 650 CURVE SMOOTH",
"152 650 OFFCURVE",
"165 702 OFFCURVE",
"98 702 CURVE SMOOTH",
"50 702 OFFCURVE",
"9 662 OFFCURVE",
"0 601 CURVE",
"53 597 LINE",
"56 619 OFFCURVE",
"73 649 OFFCURVE",
"97 647 CURVE",
"127 643 OFFCURVE"
);
}
);
width = 265;
}
);
unicode = 0303;
},
{
glyphname = macroncomb;
lastChange = "2018-04-19 23:33:36 +0000";
layers = (
{
anchors = (
{
name = _top;
position = "{115, 572}";
},
{
name = top;
position = "{133, 700}";
}
);
layerId = "D890DE10-725C-4894-AB83-5F7B73FFD58A";
paths = (
{
closed = 1;
nodes = (
"0 640 LINE",
"250 640 LINE",
"258 700 LINE",
"8 700 LINE"
);
}
);
width = 258;
}
);
unicode = 0304;
},
{
glyphname = commaaccentcomb;
lastChange = "2018-04-19 23:33:36 +0000";
layers = (
{
anchors = (
{
name = _bottom;
position = "{45, 0}";
},
{
name = bottom;
position = "{17, -200}";
}
);
layerId = "D890DE10-725C-4894-AB83-5F7B73FFD58A";
paths = (
{
closed = 1;
nodes = (
"-20 -100 OFFCURVE",
"-1 -123 OFFCURVE",
"26 -120 CURVE",
"12 -160 OFFCURVE",
"-5 -193 OFFCURVE",
"-12 -205 CURVE",
"7 -217 LINE",
"19 -198 OFFCURVE",
"71 -108 OFFCURVE",
"75 -83 CURVE",
"82 -57 OFFCURVE",
"61 -29 OFFCURVE",
"33 -29 CURVE SMOOTH",
"9 -29 OFFCURVE",
"-13 -49 OFFCURVE",
"-16 -72 CURVE SMOOTH"
);
}
);
width = 94;
}
);
unicode = 0326;
},
{
glyphname = cedillacomb;
lastChange = "2018-04-19 23:33:36 +0000";
layers = (
{
anchors = (
{
name = _bottom;
position = "{107, 0}";
},
{
name = bottom;
position = "{82, -175}";
}
);
layerId = "D890DE10-725C-4894-AB83-5F7B73FFD58A";
paths = (
{
closed = 1;
nodes = (
"204 -177 OFFCURVE",
"221 -9 OFFCURVE",
"95 -9 CURVE SMOOTH",
"95 -9 OFFCURVE",
"92 -9 OFFCURVE",
"88 -10 CURVE",
"91 -13 LINE",
"136 30 LINE",
"95 43 LINE",
"37 -24 LINE",
"32 -67 LINE",
"36 -70 LINE",
"62 -52 OFFCURVE",
"81 -51 OFFCURVE",
"96 -51 CURVE SMOOTH",
"151 -51 OFFCURVE",
"144 -134 OFFCURVE",
"73 -134 CURVE SMOOTH",
"56 -134 OFFCURVE",
"42 -125 OFFCURVE",
"37 -109 CURVE",
"0 -134 LINE",
"10 -158 OFFCURVE",
"40 -177 OFFCURVE",
"73 -177 CURVE SMOOTH"
);
}
);
width = 181;
}
);
unicode = 0327;
},
{
glyphname = ogonekcomb;
lastChange = "2018-04-19 23:33:36 +0000";
layers = (
{
anchors = (
{
name = _ogonek;
position = "{86, 10}";
}
);
layerId = "D890DE10-725C-4894-AB83-5F7B73FFD58A";
paths = (
{
closed = 1;
nodes = (
"146 -105 LINE",
"117 -124 OFFCURVE",
"86 -123 OFFCURVE",
"68 -99 CURVE",
"53 -74 OFFCURVE",
"65 -42 OFFCURVE",
"99 -2 CURVE",
"102 3 OFFCURVE",
"104 5 OFFCURVE",
"107 9 CURVE",
"52 14 LINE",
"1 -52 OFFCURVE",
"-9 -104 OFFCURVE",
"8 -131 CURVE",
"30 -166 OFFCURVE",
"105 -185 OFFCURVE",
"171 -143 CURVE"
);
}
);
width = 171;
}
);
unicode = 0328;
},
{
glyphname = strokeshortcomb;
lastChange = "2018-04-19 23:33:36 +0000";
layers = (
{
anchors = (
{
name = _center;
position = "{214, 314}";
}
);
layerId = "D890DE10-725C-4894-AB83-5F7B73FFD58A";
paths = (
{
closed = 1;
nodes = (
"0 284 LINE",
"420 284 LINE",
"428 344 LINE",
"8 344 LINE"
);
}
);
width = 428;
}
);
unicode = 0335;
},
{
glyphname = strokelongcomb;
lastChange = "2018-04-19 23:33:36 +0000";
layers = (
{
anchors = (
{
name = _center;
position = "{305, 314}";
}
);
layerId = "D890DE10-725C-4894-AB83-5F7B73FFD58A";
paths = (
{
closed = 1;
nodes = (
"0 284 LINE",
"601 284 LINE",
"609 344 LINE",
"8 344 LINE"
);
}
);
width = 609;
}
);
unicode = 0336;
},
{
glyphname = slashshortcomb;
lastChange = "2018-04-19 23:33:36 +0000";
layers = (
{
anchors = (
{
name = _center;
position = "{265, 282}";
}
);
layerId = "D890DE10-725C-4894-AB83-5F7B73FFD58A";
paths = (
{
closed = 1;
nodes = (
"70 0 LINE",
"531 564 LINE",
"459 564 LINE",
"0 0 LINE"
);
}
);
width = 531;
}
);
unicode = 0337;
},
{
glyphname = slashlongcomb;
lastChange = "2018-04-19 23:33:36 +0000";
layers = (
{
anchors = (
{
name = _center;
position = "{333, 341}";
}
);
layerId = "D890DE10-725C-4894-AB83-5F7B73FFD58A";
paths = (
{
closed = 1;
nodes = (
"71 -83 LINE",
"664 764 LINE",
"593 764 LINE",
"0 -83 LINE"
);
}
);
width = 664;
}
);
unicode = 0338;
},
